<?xml version="1.0" encoding="UTF-8" standalone="no"?>
<!DOCTYPE svg PUBLIC "-//W3C//DTD SVG 1.1//EN"
 "http://www.w3.org/Graphics/SVG/1.1/DTD/svg11.dtd">
<!-- Generated by graphviz version 2.38.0 (20140413.2041)
 -->
<!-- Title: Client Pages: 1 -->
<svg width="545pt" height="868pt"
 viewBox="0.00 0.00 545.00 868.00" xmlns="http://www.w3.org/2000/svg" xmlns:xlink="http://www.w3.org/1999/xlink">
<g id="graph0" class="graph" transform="scale(1 1) rotate(0) translate(4 864)">
<title>Client</title>
<polygon fill="white" stroke="none" points="-4,4 -4,-864 541,-864 541,4 -4,4"/>
<g id="clust1" class="cluster"><title>cluster_0</title>
<polygon fill="none" stroke="black" stroke-dasharray="5,2" points="264,-211 264,-724 412,-724 412,-211 264,-211"/>
<text text-anchor="middle" x="338" y="-708.8" font-family="Times,serif" font-size="14.00">Send Request</text>
</g>
<g id="clust2" class="cluster"><title>cluster_token</title>
<polygon fill="none" stroke="black" stroke-dasharray="5,2" points="8,-649 8,-795 256,-795 256,-649 8,-649"/>
</g>
<!-- start -->
<g id="node1" class="node"><title>start</title>
<ellipse fill="none" stroke="black" cx="132" cy="-842" rx="27" ry="18"/>
<text text-anchor="middle" x="132" y="-838.3" font-family="Times,serif" font-size="14.00">start</text>
</g>
<!-- CheckTokens -->
<g id="node10" class="node"><title>CheckTokens</title>
<polygon fill="none" stroke="black" points="132,-787 48.2131,-769 132,-751 215.787,-769 132,-787"/>
<text text-anchor="middle" x="132" y="-765.3" font-family="Times,serif" font-size="14.00">CheckTokens</text>
</g>
<!-- start&#45;&gt;CheckTokens -->
<g id="edge10" class="edge"><title>start&#45;&gt;CheckTokens</title>
<path fill="none" stroke="black" d="M132,-823.955C132,-823.955 132,-797.09 132,-797.09"/>
<polygon fill="black" stroke="black" points="135.5,-797.09 132,-787.09 128.5,-797.09 135.5,-797.09"/>
</g>
<!-- end -->
<g id="node2" class="node"><title>end</title>
<ellipse fill="none" stroke="black" cx="410" cy="-18" rx="27" ry="18"/>
<text text-anchor="middle" x="410" y="-14.3" font-family="Times,serif" font-size="14.00">end</text>
</g>
<!-- SendRequest -->
<g id="node3" class="node"><title>SendRequest</title>
<polygon fill="none" stroke="black" points="370.5,-693 283.5,-693 283.5,-657 370.5,-657 370.5,-693"/>
<text text-anchor="middle" x="327" y="-671.3" font-family="Times,serif" font-size="14.00">SendRequest</text>
</g>
<!-- PendingParityGroup -->
<g id="node4" class="node"><title>PendingParityGroup</title>
<polygon fill="none" stroke="black" points="402,-620 274,-620 274,-584 402,-584 402,-620"/>
<text text-anchor="middle" x="338" y="-598.3" font-family="Times,serif" font-size="14.00">PendingParityGroup</text>
</g>
<!-- SendRequest&#45;&gt;PendingParityGroup -->
<g id="edge1" class="edge"><title>SendRequest&#45;&gt;PendingParityGroup</title>
<path fill="none" stroke="black" d="M327,-656.955C327,-656.955 327,-630.09 327,-630.09"/>
<polygon fill="black" stroke="black" points="330.5,-630.09 327,-620.09 323.5,-630.09 330.5,-630.09"/>
</g>
<!-- FormingParityGroup -->
<g id="node5" class="node"><title>FormingParityGroup</title>
<polygon fill="none" stroke="black" points="403.5,-547 272.5,-547 272.5,-511 403.5,-511 403.5,-547"/>
<text text-anchor="middle" x="338" y="-525.3" font-family="Times,serif" font-size="14.00">FormingParityGroup</text>
</g>
<!-- PendingParityGroup&#45;&gt;FormingParityGroup -->
<g id="edge2" class="edge"><title>PendingParityGroup&#45;&gt;FormingParityGroup</title>
<path fill="none" stroke="black" d="M338,-583.955C338,-583.955 338,-557.09 338,-557.09"/>
<polygon fill="black" stroke="black" points="341.5,-557.09 338,-547.09 334.5,-557.09 341.5,-557.09"/>
</g>
<!-- PendingSendGroup -->
<g id="node6" class="node"><title>PendingSendGroup</title>
<polygon fill="none" stroke="black" points="403,-474 281,-474 281,-438 403,-438 403,-474"/>
<text text-anchor="middle" x="342" y="-452.3" font-family="Times,serif" font-size="14.00">PendingSendGroup</text>
</g>
<!-- FormingParityGroup&#45;&gt;PendingSendGroup -->
<g id="edge3" class="edge"><title>FormingParityGroup&#45;&gt;PendingSendGroup</title>
<path fill="none" stroke="black" d="M342,-510.955C342,-510.955 342,-484.09 342,-484.09"/>
<polygon fill="black" stroke="black" points="345.5,-484.09 342,-474.09 338.5,-484.09 345.5,-484.09"/>
</g>
<!-- Aggregation -->
<g id="node7" class="node"><title>Aggregation</title>
<polygon fill="none" stroke="black" points="393,-401 309,-401 309,-365 393,-365 393,-401"/>
<text text-anchor="middle" x="351" y="-379.3" font-family="Times,serif" font-size="14.00">Aggregation</text>
</g>
<!-- PendingSendGroup&#45;&gt;Aggregation -->
<g id="edge4" class="edge"><title>PendingSendGroup&#45;&gt;Aggregation</title>
<path fill="none" stroke="black" d="M351,-437.955C351,-437.955 351,-411.09 351,-411.09"/>
<polygon fill="black" stroke="black" points="354.5,-411.09 351,-401.09 347.5,-411.09 354.5,-411.09"/>
</g>
<!-- NetworkBuffer -->
<g id="node8" class="node"><title>NetworkBuffer</title>
<polygon fill="none" stroke="black" points="402.5,-328 303.5,-328 303.5,-292 402.5,-292 402.5,-328"/>
<text text-anchor="middle" x="353" y="-306.3" font-family="Times,serif" font-size="14.00">NetworkBuffer</text>
</g>
<!-- Aggregation&#45;&gt;NetworkBuffer -->
<g id="edge5" class="edge"><title>Aggregation&#45;&gt;NetworkBuffer</title>
<path fill="none" stroke="black" d="M351,-364.955C351,-364.955 351,-338.09 351,-338.09"/>
<polygon fill="black" stroke="black" points="354.5,-338.09 351,-328.09 347.5,-338.09 354.5,-338.09"/>
</g>
<!-- OpDone -->
<g id="node9" class="node"><title>OpDone</title>
<polygon fill="none" stroke="black" points="399,-255 337,-255 337,-219 399,-219 399,-255"/>
<text text-anchor="middle" x="368" y="-233.3" font-family="Times,serif" font-size="14.00">OpDone</text>
</g>
<!-- NetworkBuffer&#45;&gt;OpDone -->
<g id="edge6" class="edge"><title>NetworkBuffer&#45;&gt;OpDone</title>
<path fill="none" stroke="black" d="M368,-291.955C368,-291.955 368,-265.09 368,-265.09"/>
<polygon fill="black" stroke="black" points="371.5,-265.09 368,-255.09 364.5,-265.09 371.5,-265.09"/>
</g>
<!-- Timeout -->
<g id="node12" class="node"><title>Timeout</title>
<polygon fill="none" stroke="black" points="410,-182 352.186,-164 410,-146 467.814,-164 410,-182"/>
<text text-anchor="middle" x="410" y="-160.3" font-family="Times,serif" font-size="14.00">Timeout</text>
</g>
<!-- OpDone&#45;&gt;Timeout -->
<g id="edge11" class="edge"><title>OpDone&#45;&gt;Timeout</title>
<path fill="none" stroke="black" d="M375.547,-218.955C375.547,-218.955 375.547,-181.636 375.547,-181.636"/>
<polygon fill="black" stroke="black" points="379.047,-181.636 375.547,-171.636 372.047,-181.636 379.047,-181.636"/>
</g>
<!-- CheckTokens&#45;&gt;SendRequest -->
<g id="edge7" class="edge"><title>CheckTokens&#45;&gt;SendRequest</title>
<path fill="none" stroke="forestgreen" d="M215.829,-769C268.681,-769 327,-769 327,-769 327,-769 327,-703.124 327,-703.124"/>
<polygon fill="forestgreen" stroke="forestgreen" points="330.5,-703.124 327,-693.124 323.5,-703.124 330.5,-703.124"/>
</g>
<!-- WaitForNewToken -->
<g id="node11" class="node"><title>WaitForNewToken</title>
<polygon fill="none" stroke="black" points="248.018,-693 63.4595,-693 15.9823,-657 200.54,-657 248.018,-693"/>
<text text-anchor="middle" x="132" y="-671.3" font-family="Times,serif" font-size="14.00">WaitForNewToken</text>
</g>
<!-- CheckTokens&#45;&gt;WaitForNewToken -->
<g id="edge8" class="edge"><title>CheckTokens&#45;&gt;WaitForNewToken</title>
<path fill="none" stroke="red" d="M104.119,-756.711C104.119,-756.711 104.119,-703.093 104.119,-703.093"/>
<polygon fill="red" stroke="red" points="107.619,-703.093 104.119,-693.093 100.619,-703.093 107.619,-703.093"/>
</g>
<!-- WaitForNewToken&#45;&gt;CheckTokens -->
<g id="edge9" class="edge"><title>WaitForNewToken&#45;&gt;CheckTokens</title>
<path fill="none" stroke="black" d="M159.881,-693.124C159.881,-693.124 159.881,-746.904 159.881,-746.904"/>
<polygon fill="black" stroke="black" points="156.381,-746.904 159.881,-756.904 163.381,-746.904 156.381,-746.904"/>
</g>
<!-- Timeout&#45;&gt;PendingParityGroup -->
<g id="edge14" class="edge"><title>Timeout&#45;&gt;PendingParityGroup</title>
<path fill="none" stroke="red" d="M435.703,-174.395C435.703,-240.723 435.703,-602 435.703,-602 435.703,-602 412.079,-602 412.079,-602"/>
<polygon fill="red" stroke="red" points="412.08,-598.5 402.079,-602 412.079,-605.5 412.08,-598.5"/>
<text text-anchor="middle" x="484.5" y="-379.3" font-family="Times,serif" font-size="14.00">Choose next server</text>
</g>
<!-- ReceiveData -->
<g id="node13" class="node"><title>ReceiveData</title>
<polygon fill="none" stroke="black" points="453,-109 367,-109 367,-73 453,-73 453,-109"/>
<text text-anchor="middle" x="410" y="-87.3" font-family="Times,serif" font-size="14.00">ReceiveData</text>
</g>
<!-- Timeout&#45;&gt;ReceiveData -->
<g id="edge12" class="edge"><title>Timeout&#45;&gt;ReceiveData</title>
<path fill="none" stroke="forestgreen" d="M410,-145.955C410,-145.955 410,-119.09 410,-119.09"/>
<polygon fill="forestgreen" stroke="forestgreen" points="413.5,-119.09 410,-109.09 406.5,-119.09 413.5,-119.09"/>
</g>
<!-- ReceiveData&#45;&gt;end -->
<g id="edge13" class="edge"><title>ReceiveData&#45;&gt;end</title>
<path fill="none" stroke="black" d="M410,-72.9551C410,-72.9551 410,-46.0904 410,-46.0904"/>
<polygon fill="black" stroke="black" points="413.5,-46.0903 410,-36.0904 406.5,-46.0904 413.5,-46.0903"/>
</g>
</g>
</svg>
