<?xml version="1.0" encoding="UTF-8" standalone="no"?>
<!DOCTYPE svg PUBLIC "-//W3C//DTD SVG 1.1//EN"
 "http://www.w3.org/Graphics/SVG/1.1/DTD/svg11.dtd">
<!-- Generated by graphviz version 2.38.0 (20140413.2041)
 -->
<!-- Title: Client Pages: 1 -->
<svg width="521pt" height="863pt"
 viewBox="0.00 0.00 521.25 863.00" xmlns="http://www.w3.org/2000/svg" xmlns:xlink="http://www.w3.org/1999/xlink">
<g id="graph0" class="graph" transform="scale(1 1) rotate(0) translate(4 859)">
<title>Client</title>
<polygon fill="white" stroke="none" points="-4,4 -4,-859 517.25,-859 517.25,4 -4,4"/>
<g id="clust1" class="cluster"><title>cluster_0</title>
<polygon fill="none" stroke="black" stroke-dasharray="5,2" points="264,-208 264,-715 412,-715 412,-208 264,-208"/>
<text text-anchor="middle" x="338" y="-699.8" font-family="Times,serif" font-size="14.00">Send Request</text>
</g>
<g id="clust2" class="cluster"><title>cluster_token</title>
<polygon fill="none" stroke="black" stroke-dasharray="5,2" points="8,-640 8,-775 256,-775 256,-640 8,-640"/>
</g>
<g id="clust3" class="cluster"><title>cluster_clearcache</title>
<polygon fill="none" stroke="black" stroke-dasharray="5,2" points="264,-723 264,-847 473,-847 473,-723 264,-723"/>
</g>
<!-- start -->
<g id="node1" class="node"><title>start</title>
<ellipse fill="none" stroke="black" cx="132" cy="-821" rx="27" ry="18"/>
<text text-anchor="middle" x="132" y="-817.3" font-family="Times,serif" font-size="14.00">start</text>
</g>
<!-- CheckTokens -->
<g id="node10" class="node"><title>CheckTokens</title>
<polygon fill="none" stroke="black" points="132,-767 48.2131,-749 132,-731 215.787,-749 132,-767"/>
<text text-anchor="middle" x="132" y="-745.3" font-family="Times,serif" font-size="14.00">CheckTokens</text>
</g>
<!-- start&#45;&gt;CheckTokens -->
<g id="edge10" class="edge"><title>start&#45;&gt;CheckTokens</title>
<path fill="none" stroke="black" d="M132,-802.831C132,-802.831 132,-777.413 132,-777.413"/>
<polygon fill="black" stroke="black" points="135.5,-777.413 132,-767.413 128.5,-777.413 135.5,-777.413"/>
</g>
<!-- end -->
<g id="node2" class="node"><title>end</title>
<ellipse fill="none" stroke="black" cx="390" cy="-18" rx="27" ry="18"/>
<text text-anchor="middle" x="390" y="-14.3" font-family="Times,serif" font-size="14.00">end</text>
</g>
<!-- SendRequest -->
<g id="node3" class="node"><title>SendRequest</title>
<polygon fill="none" stroke="black" points="370.5,-684 283.5,-684 283.5,-648 370.5,-648 370.5,-684"/>
<text text-anchor="middle" x="327" y="-662.3" font-family="Times,serif" font-size="14.00">SendRequest</text>
</g>
<!-- PendingParityGroup -->
<g id="node4" class="node"><title>PendingParityGroup</title>
<polygon fill="none" stroke="black" points="402,-612 274,-612 274,-576 402,-576 402,-612"/>
<text text-anchor="middle" x="338" y="-590.3" font-family="Times,serif" font-size="14.00">PendingParityGroup</text>
</g>
<!-- SendRequest&#45;&gt;PendingParityGroup -->
<g id="edge1" class="edge"><title>SendRequest&#45;&gt;PendingParityGroup</title>
<path fill="none" stroke="black" d="M327,-647.831C327,-647.831 327,-622.413 327,-622.413"/>
<polygon fill="black" stroke="black" points="330.5,-622.413 327,-612.413 323.5,-622.413 330.5,-622.413"/>
</g>
<!-- FormingParityGroup -->
<g id="node5" class="node"><title>FormingParityGroup</title>
<polygon fill="none" stroke="black" points="403.5,-540 272.5,-540 272.5,-504 403.5,-504 403.5,-540"/>
<text text-anchor="middle" x="338" y="-518.3" font-family="Times,serif" font-size="14.00">FormingParityGroup</text>
</g>
<!-- PendingParityGroup&#45;&gt;FormingParityGroup -->
<g id="edge2" class="edge"><title>PendingParityGroup&#45;&gt;FormingParityGroup</title>
<path fill="none" stroke="black" d="M338,-575.831C338,-575.831 338,-550.413 338,-550.413"/>
<polygon fill="black" stroke="black" points="341.5,-550.413 338,-540.413 334.5,-550.413 341.5,-550.413"/>
</g>
<!-- PendingSendGroup -->
<g id="node6" class="node"><title>PendingSendGroup</title>
<polygon fill="none" stroke="black" points="402,-468 280,-468 280,-432 402,-432 402,-468"/>
<text text-anchor="middle" x="341" y="-446.3" font-family="Times,serif" font-size="14.00">PendingSendGroup</text>
</g>
<!-- FormingParityGroup&#45;&gt;PendingSendGroup -->
<g id="edge3" class="edge"><title>FormingParityGroup&#45;&gt;PendingSendGroup</title>
<path fill="none" stroke="black" d="M341,-503.831C341,-503.831 341,-478.413 341,-478.413"/>
<polygon fill="black" stroke="black" points="344.5,-478.413 341,-468.413 337.5,-478.413 344.5,-478.413"/>
</g>
<!-- Aggregation -->
<g id="node7" class="node"><title>Aggregation</title>
<polygon fill="none" stroke="black" points="387,-396 303,-396 303,-360 387,-360 387,-396"/>
<text text-anchor="middle" x="345" y="-374.3" font-family="Times,serif" font-size="14.00">Aggregation</text>
</g>
<!-- PendingSendGroup&#45;&gt;Aggregation -->
<g id="edge4" class="edge"><title>PendingSendGroup&#45;&gt;Aggregation</title>
<path fill="none" stroke="black" d="M345,-431.831C345,-431.831 345,-406.413 345,-406.413"/>
<polygon fill="black" stroke="black" points="348.5,-406.413 345,-396.413 341.5,-406.413 348.5,-406.413"/>
</g>
<!-- Cache -->
<g id="node8" class="node"><title>Cache</title>
<polygon fill="none" stroke="black" points="374,-324 320,-324 320,-288 374,-288 374,-324"/>
<text text-anchor="middle" x="347" y="-302.3" font-family="Times,serif" font-size="14.00">Cache</text>
</g>
<!-- Aggregation&#45;&gt;Cache -->
<g id="edge5" class="edge"><title>Aggregation&#45;&gt;Cache</title>
<path fill="none" stroke="black" d="M347,-359.831C347,-359.831 347,-334.413 347,-334.413"/>
<polygon fill="black" stroke="black" points="350.5,-334.413 347,-324.413 343.5,-334.413 350.5,-334.413"/>
</g>
<!-- NetworkTransfer -->
<g id="node9" class="node"><title>NetworkTransfer</title>
<polygon fill="none" stroke="black" points="403,-252 293,-252 293,-216 403,-216 403,-252"/>
<text text-anchor="middle" x="348" y="-230.3" font-family="Times,serif" font-size="14.00">NetworkTransfer</text>
</g>
<!-- Cache&#45;&gt;NetworkTransfer -->
<g id="edge6" class="edge"><title>Cache&#45;&gt;NetworkTransfer</title>
<path fill="none" stroke="black" d="M347,-287.831C347,-287.831 347,-262.413 347,-262.413"/>
<polygon fill="black" stroke="black" points="350.5,-262.413 347,-252.413 343.5,-262.413 350.5,-262.413"/>
</g>
<!-- Timeout -->
<g id="node12" class="node"><title>Timeout</title>
<polygon fill="none" stroke="black" points="390,-180 332.186,-162 390,-144 447.814,-162 390,-180"/>
<text text-anchor="middle" x="390" y="-158.3" font-family="Times,serif" font-size="14.00">Timeout</text>
</g>
<!-- NetworkTransfer&#45;&gt;Timeout -->
<g id="edge11" class="edge"><title>NetworkTransfer&#45;&gt;Timeout</title>
<path fill="none" stroke="black" d="M367.547,-215.831C367.547,-215.831 367.547,-183.409 367.547,-183.409"/>
<polygon fill="black" stroke="black" points="371.047,-183.409 367.547,-173.409 364.047,-183.409 371.047,-183.409"/>
</g>
<!-- CheckTokens&#45;&gt;SendRequest -->
<g id="edge7" class="edge"><title>CheckTokens&#45;&gt;SendRequest</title>
<path fill="none" stroke="forestgreen" d="M215.834,-749C260.056,-749 305.25,-749 305.25,-749 305.25,-749 305.25,-694.01 305.25,-694.01"/>
<polygon fill="forestgreen" stroke="forestgreen" points="308.75,-694.01 305.25,-684.01 301.75,-694.01 308.75,-694.01"/>
</g>
<!-- WaitForNewToken -->
<g id="node11" class="node"><title>WaitForNewToken</title>
<polygon fill="none" stroke="black" points="248.018,-684 63.4595,-684 15.9823,-648 200.54,-648 248.018,-684"/>
<text text-anchor="middle" x="132" y="-662.3" font-family="Times,serif" font-size="14.00">WaitForNewToken</text>
</g>
<!-- CheckTokens&#45;&gt;WaitForNewToken -->
<g id="edge8" class="edge"><title>CheckTokens&#45;&gt;WaitForNewToken</title>
<path fill="none" stroke="red" d="M104.119,-736.753C104.119,-736.753 104.119,-694.131 104.119,-694.131"/>
<polygon fill="red" stroke="red" points="107.619,-694.131 104.119,-684.131 100.619,-694.131 107.619,-694.131"/>
</g>
<!-- WaitForNewToken&#45;&gt;CheckTokens -->
<g id="edge9" class="edge"><title>WaitForNewToken&#45;&gt;CheckTokens</title>
<path fill="none" stroke="black" d="M159.881,-684.01C159.881,-684.01 159.881,-726.92 159.881,-726.92"/>
<polygon fill="black" stroke="black" points="156.381,-726.92 159.881,-736.92 163.381,-726.92 156.381,-726.92"/>
</g>
<!-- Timeout&#45;&gt;PendingParityGroup -->
<g id="edge14" class="edge"><title>Timeout&#45;&gt;PendingParityGroup</title>
<path fill="none" stroke="red" d="M408.25,-174.463C408.25,-245.294 408.25,-594 408.25,-594 408.25,-594 407.651,-594 407.651,-594"/>
<polygon fill="red" stroke="red" points="412.261,-590.5 402.261,-594 412.26,-597.5 412.261,-590.5"/>
<text text-anchor="middle" x="460.75" y="-388.331" font-family="Times,serif" font-size="14.00">Choose next server</text>
</g>
<!-- ReceiveData -->
<g id="node13" class="node"><title>ReceiveData</title>
<polygon fill="none" stroke="black" points="433,-108 347,-108 347,-72 433,-72 433,-108"/>
<text text-anchor="middle" x="390" y="-86.3" font-family="Times,serif" font-size="14.00">ReceiveData</text>
</g>
<!-- Timeout&#45;&gt;ReceiveData -->
<g id="edge12" class="edge"><title>Timeout&#45;&gt;ReceiveData</title>
<path fill="none" stroke="forestgreen" d="M390,-143.831C390,-143.831 390,-118.413 390,-118.413"/>
<polygon fill="forestgreen" stroke="forestgreen" points="393.5,-118.413 390,-108.413 386.5,-118.413 393.5,-118.413"/>
</g>
<!-- ReceiveData&#45;&gt;end -->
<g id="edge13" class="edge"><title>ReceiveData&#45;&gt;end</title>
<path fill="none" stroke="black" d="M390,-71.8314C390,-71.8314 390,-46.4133 390,-46.4133"/>
<polygon fill="black" stroke="black" points="393.5,-46.4132 390,-36.4133 386.5,-46.4133 393.5,-46.4132"/>
</g>
<!-- CacheIsFull -->
<g id="node14" class="node"><title>CacheIsFull</title>
<polygon fill="none" stroke="black" points="465,-839 383,-839 383,-803 465,-803 465,-839"/>
<text text-anchor="middle" x="424" y="-817.3" font-family="Times,serif" font-size="14.00">CacheIsFull</text>
</g>
<!-- DeleteCache -->
<g id="node15" class="node"><title>DeleteCache</title>
<polygon fill="none" stroke="black" points="413,-767 327,-767 327,-731 413,-731 413,-767"/>
<text text-anchor="middle" x="370" y="-745.3" font-family="Times,serif" font-size="14.00">DeleteCache</text>
</g>
<!-- CacheIsFull&#45;&gt;DeleteCache -->
<g id="edge15" class="edge"><title>CacheIsFull&#45;&gt;DeleteCache</title>
<path fill="none" stroke="black" d="M398,-802.831C398,-802.831 398,-777.413 398,-777.413"/>
<polygon fill="black" stroke="black" points="401.5,-777.413 398,-767.413 394.5,-777.413 401.5,-777.413"/>
</g>
<!-- OtherTriggers -->
<g id="node16" class="node"><title>OtherTriggers</title>
<polygon fill="none" stroke="black" points="364.5,-839 271.5,-839 271.5,-803 364.5,-803 364.5,-839"/>
<text text-anchor="middle" x="318" y="-817.3" font-family="Times,serif" font-size="14.00">OtherTriggers</text>
</g>
<!-- OtherTriggers&#45;&gt;DeleteCache -->
<g id="edge16" class="edge"><title>OtherTriggers&#45;&gt;DeleteCache</title>
<path fill="none" stroke="black" d="M345.75,-802.831C345.75,-802.831 345.75,-777.413 345.75,-777.413"/>
<polygon fill="black" stroke="black" points="349.25,-777.413 345.75,-767.413 342.25,-777.413 349.25,-777.413"/>
</g>
</g>
</svg>
