<?xml version="1.0" encoding="UTF-8" standalone="no"?>
<!DOCTYPE svg PUBLIC "-//W3C//DTD SVG 1.1//EN"
 "http://www.w3.org/Graphics/SVG/1.1/DTD/svg11.dtd">
<!-- Generated by graphviz version 2.38.0 (20140413.2041)
 -->
<!-- Title: Client Pages: 1 -->
<svg width="234pt" height="551pt"
 viewBox="0.00 0.00 234.00 551.00" xmlns="http://www.w3.org/2000/svg" xmlns:xlink="http://www.w3.org/1999/xlink">
<g id="graph0" class="graph" transform="scale(1 1) rotate(0) translate(4 547)">
<title>Client</title>
<polygon fill="white" stroke="none" points="-4,4 -4,-547 230,-547 230,4 -4,4"/>
<g id="clust1" class="cluster"><title>cluster_0</title>
<polygon fill="none" stroke="blue" points="68,-280 68,-499 218,-499 218,-280 68,-280"/>
<text text-anchor="middle" x="143" y="-483.8" font-family="Times,serif" font-size="14.00">Send Request</text>
</g>
<!-- start -->
<g id="node1" class="node"><title>start</title>
<ellipse fill="none" stroke="black" cx="143" cy="-525" rx="27" ry="18"/>
<text text-anchor="middle" x="143" y="-521.3" font-family="Times,serif" font-size="14.00">start</text>
</g>
<!-- SendRead -->
<g id="node3" class="node"><title>SendRead</title>
<polygon fill="none" stroke="black" points="178.5,-468 107.5,-468 107.5,-432 178.5,-432 178.5,-468"/>
<text text-anchor="middle" x="143" y="-446.3" font-family="Times,serif" font-size="14.00">SendRead</text>
</g>
<!-- start&#45;&gt;SendRead -->
<g id="edge3" class="edge"><title>start&#45;&gt;SendRead</title>
<path fill="none" stroke="black" d="M143,-506.845C143,-506.845 143,-478.248 143,-478.248"/>
<polygon fill="black" stroke="black" points="146.5,-478.248 143,-468.248 139.5,-478.248 146.5,-478.248"/>
</g>
<!-- end -->
<g id="node2" class="node"><title>end</title>
<ellipse fill="none" stroke="black" cx="43" cy="-18" rx="27" ry="18"/>
<text text-anchor="middle" x="43" y="-14.3" font-family="Times,serif" font-size="14.00">end</text>
</g>
<!-- Hash Address -->
<g id="node4" class="node"><title>Hash Address</title>
<polygon fill="none" stroke="black" points="189,-396 97,-396 97,-360 189,-360 189,-396"/>
<text text-anchor="middle" x="143" y="-374.3" font-family="Times,serif" font-size="14.00">Hash Address</text>
</g>
<!-- SendRead&#45;&gt;Hash Address -->
<g id="edge1" class="edge"><title>SendRead&#45;&gt;Hash Address</title>
<path fill="none" stroke="black" d="M143,-431.831C143,-431.831 143,-406.413 143,-406.413"/>
<polygon fill="black" stroke="black" points="146.5,-406.413 143,-396.413 139.5,-406.413 146.5,-406.413"/>
</g>
<!-- Decide Which Server -->
<g id="node5" class="node"><title>Decide Which Server</title>
<polygon fill="none" stroke="black" points="210,-324 76,-324 76,-288 210,-288 210,-324"/>
<text text-anchor="middle" x="143" y="-302.3" font-family="Times,serif" font-size="14.00">Decide Which Server</text>
</g>
<!-- Hash Address&#45;&gt;Decide Which Server -->
<g id="edge2" class="edge"><title>Hash Address&#45;&gt;Decide Which Server</title>
<path fill="none" stroke="black" d="M143,-359.831C143,-359.831 143,-334.413 143,-334.413"/>
<polygon fill="black" stroke="black" points="146.5,-334.413 143,-324.413 139.5,-334.413 146.5,-334.413"/>
</g>
<!-- SendRequest -->
<g id="node6" class="node"><title>SendRequest</title>
<polygon fill="none" stroke="black" points="186.5,-252 99.5,-252 99.5,-216 186.5,-216 186.5,-252"/>
<text text-anchor="middle" x="143" y="-230.3" font-family="Times,serif" font-size="14.00">SendRequest</text>
</g>
<!-- Decide Which Server&#45;&gt;SendRequest -->
<g id="edge4" class="edge"><title>Decide Which Server&#45;&gt;SendRequest</title>
<path fill="none" stroke="black" d="M143,-287.831C143,-287.831 143,-262.413 143,-262.413"/>
<polygon fill="black" stroke="black" points="146.5,-262.413 143,-252.413 139.5,-262.413 146.5,-262.413"/>
</g>
<!-- Timeout -->
<g id="node7" class="node"><title>Timeout</title>
<polygon fill="none" stroke="black" points="143,-180 85.186,-162 143,-144 200.814,-162 143,-180"/>
<text text-anchor="middle" x="143" y="-158.3" font-family="Times,serif" font-size="14.00">Timeout</text>
</g>
<!-- SendRequest&#45;&gt;Timeout -->
<g id="edge5" class="edge"><title>SendRequest&#45;&gt;Timeout</title>
<path fill="none" stroke="black" d="M143,-215.831C143,-215.831 143,-190.413 143,-190.413"/>
<polygon fill="black" stroke="black" points="146.5,-190.413 143,-180.413 139.5,-190.413 146.5,-190.413"/>
</g>
<!-- ReceiveData -->
<g id="node8" class="node"><title>ReceiveData</title>
<polygon fill="none" stroke="black" points="86,-108 0,-108 0,-72 86,-72 86,-108"/>
<text text-anchor="middle" x="43" y="-86.3" font-family="Times,serif" font-size="14.00">ReceiveData</text>
</g>
<!-- Timeout&#45;&gt;ReceiveData -->
<g id="edge6" class="edge"><title>Timeout&#45;&gt;ReceiveData</title>
<path fill="none" stroke="forestgreen" d="M85.038,-162C82.2276,-162 80.5465,-162 80.5465,-162 80.5465,-162 80.5465,-118.169 80.5465,-118.169"/>
<polygon fill="forestgreen" stroke="forestgreen" points="84.0466,-118.169 80.5465,-108.169 77.0466,-118.169 84.0466,-118.169"/>
</g>
<!-- NotifyIME -->
<g id="node9" class="node"><title>NotifyIME</title>
<polygon fill="none" stroke="black" points="181.5,-108 104.5,-108 104.5,-72 181.5,-72 181.5,-108"/>
<text text-anchor="middle" x="143" y="-86.3" font-family="Times,serif" font-size="14.00">NotifyIME</text>
</g>
<!-- Timeout&#45;&gt;NotifyIME -->
<g id="edge8" class="edge"><title>Timeout&#45;&gt;NotifyIME</title>
<path fill="none" stroke="red" d="M143,-143.831C143,-143.831 143,-118.413 143,-118.413"/>
<polygon fill="red" stroke="red" points="146.5,-118.413 143,-108.413 139.5,-118.413 146.5,-118.413"/>
</g>
<!-- ReceiveData&#45;&gt;end -->
<g id="edge7" class="edge"><title>ReceiveData&#45;&gt;end</title>
<path fill="none" stroke="black" d="M43,-71.8314C43,-71.8314 43,-46.4133 43,-46.4133"/>
<polygon fill="black" stroke="black" points="46.5001,-46.4132 43,-36.4133 39.5001,-46.4133 46.5001,-46.4132"/>
</g>
<!-- TryNextServer -->
<g id="node10" class="node"><title>TryNextServer</title>
<polygon fill="none" stroke="black" points="225,-36 127,-36 127,-0 225,-0 225,-36"/>
<text text-anchor="middle" x="176" y="-14.3" font-family="Times,serif" font-size="14.00">TryNextServer</text>
</g>
<!-- NotifyIME&#45;&gt;TryNextServer -->
<g id="edge9" class="edge"><title>NotifyIME&#45;&gt;TryNextServer</title>
<path fill="none" stroke="black" d="M154.25,-71.8314C154.25,-71.8314 154.25,-46.4133 154.25,-46.4133"/>
<polygon fill="black" stroke="black" points="157.75,-46.4132 154.25,-36.4133 150.75,-46.4133 157.75,-46.4132"/>
</g>
<!-- TryNextServer&#45;&gt;Timeout -->
<g id="edge10" class="edge"><title>TryNextServer&#45;&gt;Timeout</title>
<path fill="none" stroke="black" d="M191.203,-36.2377C191.203,-36.2377 191.203,-148.633 191.203,-148.633"/>
<polygon fill="black" stroke="black" points="187.704,-148.633 191.203,-158.633 194.704,-148.633 187.704,-148.633"/>
</g>
</g>
</svg>
