<?xml version="1.0" encoding="UTF-8" standalone="no"?>
<!DOCTYPE svg PUBLIC "-//W3C//DTD SVG 1.1//EN"
 "http://www.w3.org/Graphics/SVG/1.1/DTD/svg11.dtd">
<!-- Generated by graphviz version 2.38.0 (20140413.2041)
 -->
<!-- Title: Client Pages: 1 -->
<svg width="458pt" height="684pt"
 viewBox="0.00 0.00 458.00 684.00" xmlns="http://www.w3.org/2000/svg" xmlns:xlink="http://www.w3.org/1999/xlink">
<g id="graph0" class="graph" transform="scale(1 1) rotate(0) translate(4 680)">
<title>Client</title>
<polygon fill="white" stroke="none" points="-4,4 -4,-680 454,-680 454,4 -4,4"/>
<g id="clust1" class="cluster"><title>cluster_0</title>
<polygon fill="none" stroke="black" stroke-dasharray="5,2" points="264,-211 264,-540 390,-540 390,-211 264,-211"/>
<text text-anchor="middle" x="327" y="-524.8" font-family="Times,serif" font-size="14.00">Send Request</text>
</g>
<g id="clust2" class="cluster"><title>cluster_token</title>
<polygon fill="none" stroke="black" stroke-dasharray="5,2" points="8,-465 8,-611 256,-611 256,-465 8,-465"/>
</g>
<!-- start -->
<g id="node1" class="node"><title>start</title>
<ellipse fill="none" stroke="black" cx="132" cy="-658" rx="27" ry="18"/>
<text text-anchor="middle" x="132" y="-654.3" font-family="Times,serif" font-size="14.00">start</text>
</g>
<!-- CheckTokens -->
<g id="node8" class="node"><title>CheckTokens</title>
<polygon fill="none" stroke="black" points="132,-603 48.2131,-585 132,-567 215.787,-585 132,-603"/>
<text text-anchor="middle" x="132" y="-581.3" font-family="Times,serif" font-size="14.00">CheckTokens</text>
</g>
<!-- start&#45;&gt;CheckTokens -->
<g id="edge9" class="edge"><title>start&#45;&gt;CheckTokens</title>
<path fill="none" stroke="black" d="M132,-639.813C132,-631.789 132,-622.047 132,-613.069"/>
<polygon fill="black" stroke="black" points="135.5,-613.029 132,-603.029 128.5,-613.029 135.5,-613.029"/>
</g>
<!-- end -->
<g id="node2" class="node"><title>end</title>
<ellipse fill="none" stroke="black" cx="347" cy="-18" rx="27" ry="18"/>
<text text-anchor="middle" x="347" y="-14.3" font-family="Times,serif" font-size="14.00">end</text>
</g>
<!-- SendRequest -->
<g id="node3" class="node"><title>SendRequest</title>
<polygon fill="none" stroke="black" points="359.5,-509 272.5,-509 272.5,-473 359.5,-473 359.5,-509"/>
<text text-anchor="middle" x="316" y="-487.3" font-family="Times,serif" font-size="14.00">SendRequest</text>
</g>
<!-- HashAddress -->
<g id="node4" class="node"><title>HashAddress</title>
<polygon fill="none" stroke="black" points="382.5,-436 293.5,-436 293.5,-400 382.5,-400 382.5,-436"/>
<text text-anchor="middle" x="338" y="-414.3" font-family="Times,serif" font-size="14.00">HashAddress</text>
</g>
<!-- SendRequest&#45;&gt;HashAddress -->
<g id="edge1" class="edge"><title>SendRequest&#45;&gt;HashAddress</title>
<path fill="none" stroke="black" d="M321.326,-472.813C323.839,-464.702 326.896,-454.836 329.703,-445.777"/>
<polygon fill="black" stroke="black" points="333.107,-446.617 332.723,-436.029 326.42,-444.545 333.107,-446.617"/>
</g>
<!-- ComputeParity -->
<g id="node7" class="node"><title>ComputeParity</title>
<polygon fill="none" stroke="black" points="371.5,-382 272.5,-382 272.5,-346 371.5,-346 371.5,-382"/>
<text text-anchor="middle" x="322" y="-360.3" font-family="Times,serif" font-size="14.00">ComputeParity</text>
</g>
<!-- SendRequest&#45;&gt;ComputeParity -->
<g id="edge4" class="edge"><title>SendRequest&#45;&gt;ComputeParity</title>
<path fill="none" stroke="black" d="M302.481,-472.793C289.828,-454.463 274.347,-424.741 285,-400 286.568,-396.358 288.722,-392.918 291.209,-389.721"/>
<polygon fill="black" stroke="black" points="293.813,-392.06 297.931,-382.298 288.624,-387.361 293.813,-392.06"/>
</g>
<!-- DecideServer -->
<g id="node5" class="node"><title>DecideServer</title>
<polygon fill="none" stroke="black" points="382,-328 292,-328 292,-292 382,-292 382,-328"/>
<text text-anchor="middle" x="337" y="-306.3" font-family="Times,serif" font-size="14.00">DecideServer</text>
</g>
<!-- HashAddress&#45;&gt;DecideServer -->
<g id="edge2" class="edge"><title>HashAddress&#45;&gt;DecideServer</title>
<path fill="none" stroke="black" d="M360.427,-399.863C365.52,-394.73 370.238,-388.669 373,-382 379.123,-367.218 379.227,-360.739 373,-346 371.442,-342.311 369.283,-338.82 366.791,-335.573"/>
<polygon fill="black" stroke="black" points="369.329,-333.16 360.057,-328.034 364.108,-337.823 369.329,-333.16"/>
</g>
<!-- OpDone -->
<g id="node6" class="node"><title>OpDone</title>
<polygon fill="none" stroke="black" points="334,-255 272,-255 272,-219 334,-219 334,-255"/>
<text text-anchor="middle" x="303" y="-233.3" font-family="Times,serif" font-size="14.00">OpDone</text>
</g>
<!-- DecideServer&#45;&gt;OpDone -->
<g id="edge3" class="edge"><title>DecideServer&#45;&gt;OpDone</title>
<path fill="none" stroke="black" d="M328.77,-291.813C324.802,-283.528 319.957,-273.41 315.543,-264.193"/>
<polygon fill="black" stroke="black" points="318.63,-262.536 311.155,-255.029 312.317,-265.56 318.63,-262.536"/>
</g>
<!-- Timeout -->
<g id="node10" class="node"><title>Timeout</title>
<polygon fill="none" stroke="black" points="347,-182 289.186,-164 347,-146 404.814,-164 347,-182"/>
<text text-anchor="middle" x="347" y="-160.3" font-family="Times,serif" font-size="14.00">Timeout</text>
</g>
<!-- OpDone&#45;&gt;Timeout -->
<g id="edge10" class="edge"><title>OpDone&#45;&gt;Timeout</title>
<path fill="none" stroke="black" d="M313.651,-218.813C319.337,-209.638 326.416,-198.215 332.587,-188.257"/>
<polygon fill="black" stroke="black" points="335.641,-189.974 337.933,-179.631 329.69,-186.287 335.641,-189.974"/>
</g>
<!-- ComputeParity&#45;&gt;OpDone -->
<g id="edge5" class="edge"><title>ComputeParity&#45;&gt;OpDone</title>
<path fill="none" stroke="black" d="M296.654,-345.914C291.134,-340.852 286.04,-334.813 283,-328 273.933,-307.68 280.611,-282.889 288.608,-264.476"/>
<polygon fill="black" stroke="black" points="291.868,-265.766 292.963,-255.228 285.536,-262.784 291.868,-265.766"/>
</g>
<!-- CheckTokens&#45;&gt;SendRequest -->
<g id="edge6" class="edge"><title>CheckTokens&#45;&gt;SendRequest</title>
<path fill="none" stroke="forestgreen" d="M169.723,-575.074C196.098,-567.886 231.55,-556.284 260,-540 271.287,-533.54 282.432,-524.65 291.772,-516.276"/>
<polygon fill="forestgreen" stroke="forestgreen" points="294.204,-518.794 299.156,-509.428 289.444,-513.662 294.204,-518.794"/>
</g>
<!-- WaitForNewToken -->
<g id="node9" class="node"><title>WaitForNewToken</title>
<polygon fill="none" stroke="black" points="248.018,-509 63.4595,-509 15.9823,-473 200.54,-473 248.018,-509"/>
<text text-anchor="middle" x="132" y="-487.3" font-family="Times,serif" font-size="14.00">WaitForNewToken</text>
</g>
<!-- CheckTokens&#45;&gt;WaitForNewToken -->
<g id="edge7" class="edge"><title>CheckTokens&#45;&gt;WaitForNewToken</title>
<path fill="none" stroke="red" d="M126.733,-567.975C125.16,-554.59 124.838,-535.207 125.768,-519.369"/>
<polygon fill="red" stroke="red" points="129.282,-519.342 126.612,-509.089 122.306,-518.769 129.282,-519.342"/>
</g>
<!-- WaitForNewToken&#45;&gt;CheckTokens -->
<g id="edge8" class="edge"><title>WaitForNewToken&#45;&gt;CheckTokens</title>
<path fill="none" stroke="black" d="M137.388,-509.089C138.896,-522.782 139.152,-542.222 138.156,-557.867"/>
<polygon fill="black" stroke="black" points="134.657,-557.707 137.267,-567.975 141.63,-558.32 134.657,-557.707"/>
</g>
<!-- Timeout&#45;&gt;DecideServer -->
<g id="edge13" class="edge"><title>Timeout&#45;&gt;DecideServer</title>
<path fill="none" stroke="red" d="M346.582,-181.94C346.056,-200.046 344.975,-229.583 343,-255 342.332,-263.596 341.376,-272.938 340.423,-281.397"/>
<polygon fill="red" stroke="red" points="336.925,-281.179 339.239,-291.518 343.878,-281.992 336.925,-281.179"/>
<text text-anchor="middle" x="397.5" y="-233.3" font-family="Times,serif" font-size="14.00">Choose next server</text>
</g>
<!-- ReceiveData -->
<g id="node11" class="node"><title>ReceiveData</title>
<polygon fill="none" stroke="black" points="390,-109 304,-109 304,-73 390,-73 390,-109"/>
<text text-anchor="middle" x="347" y="-87.3" font-family="Times,serif" font-size="14.00">ReceiveData</text>
</g>
<!-- Timeout&#45;&gt;ReceiveData -->
<g id="edge11" class="edge"><title>Timeout&#45;&gt;ReceiveData</title>
<path fill="none" stroke="forestgreen" d="M347,-145.813C347,-137.789 347,-128.047 347,-119.069"/>
<polygon fill="forestgreen" stroke="forestgreen" points="350.5,-119.029 347,-109.029 343.5,-119.029 350.5,-119.029"/>
</g>
<!-- ReceiveData&#45;&gt;end -->
<g id="edge12" class="edge"><title>ReceiveData&#45;&gt;end</title>
<path fill="none" stroke="black" d="M347,-72.8129C347,-64.7895 347,-55.0475 347,-46.0691"/>
<polygon fill="black" stroke="black" points="350.5,-46.0288 347,-36.0288 343.5,-46.0289 350.5,-46.0288"/>
</g>
</g>
</svg>
