<?xml version="1.0" encoding="UTF-8" standalone="no"?>
<!DOCTYPE svg PUBLIC "-//W3C//DTD SVG 1.1//EN"
 "http://www.w3.org/Graphics/SVG/1.1/DTD/svg11.dtd">
<!-- Generated by graphviz version 2.38.0 (20140413.2041)
 -->
<!-- Title: %3 Pages: 1 -->
<svg width="862pt" height="824pt"
 viewBox="0.00 0.00 862.00 824.24" xmlns="http://www.w3.org/2000/svg" xmlns:xlink="http://www.w3.org/1999/xlink">
<g id="graph0" class="graph" transform="scale(1 1) rotate(0) translate(4 820.237)">
<title>%3</title>
<polygon fill="white" stroke="none" points="-4,4 -4,-820.237 858,-820.237 858,4 -4,4"/>
<g id="clust1" class="cluster"><title>cluster_0</title>
<polygon fill="none" stroke="black" stroke-dasharray="5,2" points="582,-119 582,-460.447 846,-460.447 846,-119 582,-119"/>
<text text-anchor="middle" x="800" y="-126.8" font-family="Times,serif" font-size="14.00">Read Request</text>
</g>
<g id="clust2" class="cluster"><title>cluster</title>
<polygon fill="none" stroke="darkviolet" stroke-dasharray="5,2" points="720,-150 720,-316.447 838,-316.447 838,-150 720,-150"/>
<text text-anchor="middle" x="763" y="-157.8" font-family="Times,serif" font-size="14.00">SendAnswer</text>
</g>
<g id="clust3" class="cluster"><title>cluster</title>
<polygon fill="none" stroke="black" stroke-dasharray="5,2" points="8,-44 8,-752.237 574,-752.237 574,-44 8,-44"/>
<text text-anchor="middle" x="291" y="-51.8" font-family="Times,serif" font-size="14.00">Write Request</text>
</g>
<g id="clust4" class="cluster"><title>cluster_propagation</title>
<polygon fill="none" stroke="black" stroke-dasharray="5,2" points="432,-241.447 432,-532.447 566,-532.447 566,-241.447 432,-241.447"/>
<text text-anchor="middle" x="499" y="-249.247" font-family="Times,serif" font-size="14.00">Write Request</text>
</g>
<!-- start -->
<g id="node1" class="node"><title>start</title>
<ellipse fill="none" stroke="black" cx="545" cy="-798.237" rx="27" ry="18"/>
<text text-anchor="middle" x="545" y="-794.537" font-family="Times,serif" font-size="14.00">start</text>
</g>
<!-- Receive Read Request -->
<g id="node3" class="node"><title>Receive Read Request</title>
<polygon fill="none" stroke="black" points="729.5,-452.447 590.5,-452.447 590.5,-416.447 729.5,-416.447 729.5,-452.447"/>
<text text-anchor="middle" x="660" y="-430.747" font-family="Times,serif" font-size="14.00">Receive Read Request</text>
</g>
<!-- start&#45;&gt;Receive Read Request -->
<g id="edge1" class="edge"><title>start&#45;&gt;Receive Read Request</title>
<path fill="none" stroke="black" stroke-width="2" d="M565,-786.118C565,-722.918 565,-434 565,-434 565,-434 580.458,-434 580.458,-434"/>
<polygon fill="black" stroke="black" stroke-width="2" points="580.458,-437.5 590.458,-434 580.458,-430.5 580.458,-437.5"/>
</g>
<!-- ReceiveWriteRequest -->
<g id="node10" class="node"><title>ReceiveWriteRequest</title>
<polygon fill="none" stroke="black" points="476.5,-744.237 341.5,-744.237 341.5,-708.237 476.5,-708.237 476.5,-744.237"/>
<text text-anchor="middle" x="409" y="-722.537" font-family="Times,serif" font-size="14.00">ReceiveWriteRequest</text>
</g>
<!-- start&#45;&gt;ReceiveWriteRequest -->
<g id="edge10" class="edge"><title>start&#45;&gt;ReceiveWriteRequest</title>
<path fill="none" stroke="black" stroke-width="2" d="M527.448,-784.309C527.448,-763.318 527.448,-726 527.448,-726 527.448,-726 486.528,-726 486.528,-726"/>
<polygon fill="black" stroke="black" stroke-width="2" points="486.528,-722.5 476.528,-726 486.528,-729.5 486.528,-722.5"/>
</g>
<!-- end -->
<g id="node2" class="node"><title>end</title>
<ellipse fill="none" stroke="black" cx="634" cy="-18" rx="27" ry="18"/>
<text text-anchor="middle" x="634" y="-14.3" font-family="Times,serif" font-size="14.00">end</text>
</g>
<!-- LocalData -->
<g id="node5" class="node"><title>LocalData</title>
<polygon fill="none" stroke="black" points="660,-380.447 592.803,-362.447 660,-344.447 727.197,-362.447 660,-380.447"/>
<text text-anchor="middle" x="660" y="-358.747" font-family="Times,serif" font-size="14.00">LocalData</text>
</g>
<!-- Receive Read Request&#45;&gt;LocalData -->
<g id="edge2" class="edge"><title>Receive Read Request&#45;&gt;LocalData</title>
<path fill="none" stroke="black" stroke-width="2" d="M660,-416.278C660,-416.278 660,-390.86 660,-390.86"/>
<polygon fill="black" stroke="black" stroke-width="2" points="663.5,-390.86 660,-380.86 656.5,-390.86 663.5,-390.86"/>
</g>
<!-- timeout_1 -->
<g id="node4" class="node"><title>timeout_1</title>
<polygon fill="none" stroke="black" points="648,-217 590.186,-199 648,-181 705.814,-199 648,-217"/>
<text text-anchor="middle" x="648" y="-195.3" font-family="Times,serif" font-size="14.00">Timeout</text>
</g>
<!-- timeout_1&#45;&gt;end -->
<g id="edge9" class="edge"><title>timeout_1&#45;&gt;end</title>
<path fill="none" stroke="#ff4040" stroke-width="2" d="M695.953,-195.66C695.953,-171.467 695.953,-24 695.953,-24 695.953,-24 669.557,-24 669.557,-24"/>
<polygon fill="#ff4040" stroke="#ff4040" stroke-width="2" points="669.557,-20.5001 659.557,-24 669.556,-27.5001 669.557,-20.5001"/>
</g>
<!-- RestructureData -->
<g id="node9" class="node"><title>RestructureData</title>
<polygon fill="none" stroke="black" points="686,-111 582,-111 582,-75 686,-75 686,-111"/>
<text text-anchor="middle" x="634" y="-89.3" font-family="Times,serif" font-size="14.00">RestructureData</text>
</g>
<!-- timeout_1&#45;&gt;RestructureData -->
<g id="edge8" class="edge"><title>timeout_1&#45;&gt;RestructureData</title>
<path fill="none" stroke="forestgreen" stroke-width="2" d="M638.047,-183.813C638.047,-183.813 638.047,-121.364 638.047,-121.364"/>
<polygon fill="forestgreen" stroke="forestgreen" stroke-width="2" points="641.547,-121.364 638.047,-111.364 634.547,-121.364 641.547,-121.364"/>
</g>
<!-- CreatePacket -->
<g id="node6" class="node"><title>CreatePacket</title>
<polygon fill="none" stroke="black" points="819,-308.447 731,-308.447 731,-272.447 819,-272.447 819,-308.447"/>
<text text-anchor="middle" x="775" y="-286.747" font-family="Times,serif" font-size="14.00">CreatePacket</text>
</g>
<!-- LocalData&#45;&gt;CreatePacket -->
<g id="edge3" class="edge"><title>LocalData&#45;&gt;CreatePacket</title>
<path fill="none" stroke="forestgreen" stroke-width="2" d="M716.503,-359.334C716.503,-345.467 716.503,-290 716.503,-290 716.503,-290 720.963,-290 720.963,-290"/>
<polygon fill="forestgreen" stroke="forestgreen" stroke-width="2" points="720.963,-293.5 730.963,-290 720.963,-286.5 720.963,-293.5"/>
</g>
<!-- SendRequest -->
<g id="node8" class="node"><title>SendRequest</title>
<polygon fill="none" stroke="black" points="697.5,-308.447 610.5,-308.447 610.5,-272.447 697.5,-272.447 697.5,-308.447"/>
<text text-anchor="middle" x="654" y="-286.747" font-family="Times,serif" font-size="14.00">SendRequest</text>
</g>
<!-- LocalData&#45;&gt;SendRequest -->
<g id="edge5" class="edge"><title>LocalData&#45;&gt;SendRequest</title>
<path fill="none" stroke="#ff4040" stroke-width="2" d="M654,-345.748C654,-345.748 654,-318.569 654,-318.569"/>
<polygon fill="#ff4040" stroke="#ff4040" stroke-width="2" points="657.5,-318.569 654,-308.569 650.5,-318.569 657.5,-318.569"/>
</g>
<!-- TransmitPacket -->
<g id="node7" class="node"><title>TransmitPacket</title>
<polygon fill="none" stroke="black" points="830,-217 728,-217 728,-181 830,-181 830,-217"/>
<text text-anchor="middle" x="779" y="-195.3" font-family="Times,serif" font-size="14.00">TransmitPacket</text>
</g>
<!-- CreatePacket&#45;&gt;TransmitPacket -->
<g id="edge4" class="edge"><title>CreatePacket&#45;&gt;TransmitPacket</title>
<path fill="none" stroke="black" stroke-width="2" d="M775,-272.38C775,-272.38 775,-227.029 775,-227.029"/>
<polygon fill="black" stroke="black" stroke-width="2" points="778.5,-227.029 775,-217.029 771.5,-227.029 778.5,-227.029"/>
</g>
<!-- TransmitPacket&#45;&gt;end -->
<g id="edge7" class="edge"><title>TransmitPacket&#45;&gt;end</title>
<path fill="none" stroke="black" stroke-width="2" d="M779,-180.729C779,-133.675 779,-12 779,-12 779,-12 669.589,-12 669.589,-12"/>
<polygon fill="black" stroke="black" stroke-width="2" points="669.589,-8.5001 659.589,-12 669.589,-15.5001 669.589,-8.5001"/>
</g>
<!-- SendRequest&#45;&gt;timeout_1 -->
<g id="edge6" class="edge"><title>SendRequest&#45;&gt;timeout_1</title>
<path fill="none" stroke="black" stroke-width="2" d="M654,-272.38C654,-272.38 654,-225.191 654,-225.191"/>
<polygon fill="black" stroke="black" stroke-width="2" points="657.5,-225.191 654,-215.191 650.5,-225.191 657.5,-225.191"/>
</g>
<!-- RestructureData&#45;&gt;end -->
<g id="edge30" class="edge"><title>RestructureData&#45;&gt;end</title>
<path fill="none" stroke="black" stroke-width="2" d="M634,-74.8446C634,-74.8446 634,-46.2482 634,-46.2482"/>
<polygon fill="black" stroke="black" stroke-width="2" points="637.5,-46.2481 634,-36.2482 630.5,-46.2482 637.5,-46.2481"/>
</g>
<!-- waitJUMBO -->
<g id="node13" class="node"><title>waitJUMBO</title>
<ellipse fill="none" stroke="black" cx="481" cy="-616.342" rx="55.7903" ry="55.7903"/>
<text text-anchor="middle" x="481" y="-612.642" font-family="Times,serif" font-size="14.00">waitJUMBO</text>
</g>
<!-- ReceiveWriteRequest&#45;&gt;waitJUMBO -->
<g id="edge20" class="edge"><title>ReceiveWriteRequest&#45;&gt;waitJUMBO</title>
<path fill="none" stroke="black" stroke-width="2" d="M450.802,-708.09C450.802,-708.09 450.802,-673.446 450.802,-673.446"/>
<polygon fill="black" stroke="black" stroke-width="2" points="454.303,-673.446 450.802,-663.446 447.303,-673.446 454.303,-673.446"/>
</g>
<!-- WriteDataToDisk -->
<g id="node16" class="node"><title>WriteDataToDisk</title>
<polygon fill="none" stroke="black" points="411,-452.447 297,-452.447 297,-416.447 411,-416.447 411,-452.447"/>
<text text-anchor="middle" x="354" y="-430.747" font-family="Times,serif" font-size="14.00">WriteDataToDisk</text>
</g>
<!-- ReceiveWriteRequest&#45;&gt;WriteDataToDisk -->
<g id="edge12" class="edge"><title>ReceiveWriteRequest&#45;&gt;WriteDataToDisk</title>
<path fill="none" stroke="black" stroke-width="2" d="M376.25,-707.984C376.25,-707.984 376.25,-462.693 376.25,-462.693"/>
<polygon fill="black" stroke="black" stroke-width="2" points="379.75,-462.693 376.25,-452.693 372.75,-462.693 379.75,-462.693"/>
</g>
<!-- WriteMetaToDHT -->
<g id="node20" class="node"><title>WriteMetaToDHT</title>
<polygon fill="none" stroke="black" points="205.5,-452.447 86.5,-452.447 86.5,-416.447 205.5,-416.447 205.5,-452.447"/>
<text text-anchor="middle" x="146" y="-430.747" font-family="Times,serif" font-size="14.00">WriteMetaToDHT</text>
</g>
<!-- ReceiveWriteRequest&#45;&gt;WriteMetaToDHT -->
<g id="edge16" class="edge"><title>ReceiveWriteRequest&#45;&gt;WriteMetaToDHT</title>
<path fill="none" stroke="black" stroke-width="2" d="M341.271,-726C263.346,-726 146,-726 146,-726 146,-726 146,-462.685 146,-462.685"/>
<polygon fill="black" stroke="black" stroke-width="2" points="149.5,-462.685 146,-452.685 142.5,-462.685 149.5,-462.685"/>
</g>
<!-- timeout_2 -->
<g id="node11" class="node"><title>timeout_2</title>
<polygon fill="none" stroke="black" points="366,-308.447 308.186,-290.447 366,-272.447 423.814,-290.447 366,-308.447"/>
<text text-anchor="middle" x="366" y="-286.747" font-family="Times,serif" font-size="14.00">Timeout</text>
</g>
<!-- timeout_2&#45;&gt;end -->
<g id="edge28" class="edge"><title>timeout_2&#45;&gt;end</title>
<path fill="none" stroke="#ff4040" stroke-width="2" d="M367.302,-272.551C367.302,-212.81 367.302,-24 367.302,-24 367.302,-24 598.428,-24 598.428,-24"/>
<polygon fill="#ff4040" stroke="#ff4040" stroke-width="2" points="598.428,-27.5001 608.428,-24 598.428,-20.5001 598.428,-27.5001"/>
</g>
<!-- timeout_2&#45;&gt;RestructureData -->
<g id="edge29" class="edge"><title>timeout_2&#45;&gt;RestructureData</title>
<path fill="none" stroke="forestgreen" stroke-width="2" d="M395.605,-281.45C395.605,-242.824 395.605,-93 395.605,-93 395.605,-93 571.978,-93 571.978,-93"/>
<polygon fill="forestgreen" stroke="forestgreen" stroke-width="2" points="571.978,-96.5001 581.978,-93 571.978,-89.5001 571.978,-96.5001"/>
</g>
<!-- barrier -->
<g id="node12" class="node"><title>barrier</title>
<ellipse fill="none" stroke="black" cx="277" cy="-199" rx="34.394" ry="34.394"/>
<text text-anchor="middle" x="277" y="-195.3" font-family="Times,serif" font-size="14.00">barrier</text>
</g>
<!-- SendAck -->
<g id="node25" class="node"><title>SendAck</title>
<polygon fill="none" stroke="black" points="339,-111 273,-111 273,-75 339,-75 339,-111"/>
<text text-anchor="middle" x="306" y="-89.3" font-family="Times,serif" font-size="14.00">SendAck</text>
</g>
<!-- barrier&#45;&gt;SendAck -->
<g id="edge26" class="edge"><title>barrier&#45;&gt;SendAck</title>
<path fill="none" stroke="black" stroke-width="2" d="M292.223,-168.055C292.223,-168.055 292.223,-121.208 292.223,-121.208"/>
<polygon fill="black" stroke="black" stroke-width="2" points="295.724,-121.208 292.223,-111.208 288.724,-121.208 295.724,-121.208"/>
</g>
<!-- NetworkTransfer -->
<g id="node21" class="node"><title>NetworkTransfer</title>
<polygon fill="none" stroke="black" points="552,-524.447 442,-524.447 442,-488.447 552,-488.447 552,-524.447"/>
<text text-anchor="middle" x="497" y="-502.747" font-family="Times,serif" font-size="14.00">NetworkTransfer</text>
</g>
<!-- waitJUMBO&#45;&gt;NetworkTransfer -->
<g id="edge21" class="edge"><title>waitJUMBO&#45;&gt;NetworkTransfer</title>
<path fill="none" stroke="black" stroke-width="2" d="M489.448,-561.073C489.448,-561.073 489.448,-534.467 489.448,-534.467"/>
<polygon fill="black" stroke="black" stroke-width="2" points="492.948,-534.467 489.448,-524.467 485.948,-534.467 492.948,-534.467"/>
</g>
<!-- accessSmallDisks -->
<g id="node14" class="node"><title>accessSmallDisks</title>
<polygon fill="none" stroke="black" points="134,-308.447 16,-308.447 16,-272.447 134,-272.447 134,-308.447"/>
<text text-anchor="middle" x="75" y="-286.747" font-family="Times,serif" font-size="14.00">AccessSmallDisks</text>
</g>
<!-- accessSmallDisks&#45;&gt;barrier -->
<g id="edge19" class="edge"><title>accessSmallDisks&#45;&gt;barrier</title>
<path fill="none" stroke="black" stroke-width="2" d="M75,-272.38C75,-245.73 75,-199 75,-199 75,-199 232.275,-199 232.275,-199"/>
<polygon fill="black" stroke="black" stroke-width="2" points="232.275,-202.5 242.275,-199 232.275,-195.5 232.275,-202.5"/>
</g>
<!-- FUSE_Overhead_2 -->
<g id="node15" class="node"><title>FUSE_Overhead_2</title>
<polygon fill="none" stroke="black" points="132.5,-380.447 23.5,-380.447 23.5,-344.447 132.5,-344.447 132.5,-380.447"/>
<text text-anchor="middle" x="78" y="-358.747" font-family="Times,serif" font-size="14.00">FUSE_Overhead</text>
</g>
<!-- FUSE_Overhead_2&#45;&gt;accessSmallDisks -->
<g id="edge18" class="edge"><title>FUSE_Overhead_2&#45;&gt;accessSmallDisks</title>
<path fill="none" stroke="black" stroke-width="2" d="M78,-344.278C78,-344.278 78,-318.86 78,-318.86"/>
<polygon fill="black" stroke="black" stroke-width="2" points="81.5001,-318.86 78,-308.86 74.5001,-318.86 81.5001,-318.86"/>
</g>
<!-- TransactionalTraffic -->
<g id="node17" class="node"><title>TransactionalTraffic</title>
<polygon fill="none" stroke="black" points="418,-380.447 290,-380.447 290,-344.447 418,-344.447 418,-380.447"/>
<text text-anchor="middle" x="354" y="-358.747" font-family="Times,serif" font-size="14.00">TransactionalTraffic</text>
</g>
<!-- WriteDataToDisk&#45;&gt;TransactionalTraffic -->
<g id="edge11" class="edge"><title>WriteDataToDisk&#45;&gt;TransactionalTraffic</title>
<path fill="none" stroke="black" stroke-width="2" stroke-dasharray="5,2" d="M354,-416.278C354,-416.278 354,-390.86 354,-390.86"/>
<polygon fill="black" stroke="black" stroke-width="2" points="354,-380.86 358.5,-390.86 354.5,-385.86 354.5,-390.86 354,-390.86 353.5,-390.86 353.5,-385.86 349.5,-390.86 354,-380.86 354,-380.86"/>
</g>
<!-- FUSE_Overhead -->
<g id="node18" class="node"><title>FUSE_Overhead</title>
<polygon fill="none" stroke="black" points="267.5,-380.447 158.5,-380.447 158.5,-344.447 267.5,-344.447 267.5,-380.447"/>
<text text-anchor="middle" x="213" y="-358.747" font-family="Times,serif" font-size="14.00">FUSE_Overhead</text>
</g>
<!-- WriteDataToDisk&#45;&gt;FUSE_Overhead -->
<g id="edge13" class="edge"><title>WriteDataToDisk&#45;&gt;FUSE_Overhead</title>
<path fill="none" stroke="black" stroke-width="2" d="M296.971,-434C267.034,-434 236.5,-434 236.5,-434 236.5,-434 236.5,-390.503 236.5,-390.503"/>
<polygon fill="black" stroke="black" stroke-width="2" points="240,-390.503 236.5,-380.503 233,-390.503 240,-390.503"/>
</g>
<!-- TransactionalTraffic&#45;&gt;timeout_2 -->
<g id="edge27" class="edge"><title>TransactionalTraffic&#45;&gt;timeout_2</title>
<g id="a_edge27"><a xlink:title="Calls to multiple nodes">
<path fill="none" stroke="black" stroke-width="2" d="M363.047,-344.278C359.047,-344.278 359.047,-317.865 363.047,-317.865"/>
<path fill="none" stroke="none" stroke-width="2" d="M363.047,-344.278C361.047,-344.278 361.047,-317.865 363.047,-317.865"/>
<path fill="none" stroke="black" stroke-width="2" d="M363.047,-344.278C363.047,-344.278 363.047,-317.865 363.047,-317.865"/>
<path fill="none" stroke="none" stroke-width="2" d="M363.047,-344.278C365.047,-344.278 365.047,-317.865 363.047,-317.865"/>
<path fill="none" stroke="black" stroke-width="2" d="M363.047,-344.278C367.047,-344.278 367.047,-317.865 363.047,-317.865"/>
<polygon fill="black" stroke="black" stroke-width="2" points="366.547,-317.865 363.047,-307.865 359.547,-317.865 366.547,-317.865"/>
</a>
</g>
</g>
<!-- AccessCapableDisks -->
<g id="node19" class="node"><title>AccessCapableDisks</title>
<polygon fill="none" stroke="black" points="286,-308.447 156,-308.447 156,-272.447 286,-272.447 286,-308.447"/>
<text text-anchor="middle" x="221" y="-286.747" font-family="Times,serif" font-size="14.00">AccessCapableDisks</text>
</g>
<!-- FUSE_Overhead&#45;&gt;AccessCapableDisks -->
<g id="edge14" class="edge"><title>FUSE_Overhead&#45;&gt;AccessCapableDisks</title>
<path fill="none" stroke="black" stroke-width="2" d="M213,-344.278C213,-344.278 213,-318.86 213,-318.86"/>
<polygon fill="black" stroke="black" stroke-width="2" points="216.5,-318.86 213,-308.86 209.5,-318.86 216.5,-318.86"/>
</g>
<!-- AccessCapableDisks&#45;&gt;barrier -->
<g id="edge15" class="edge"><title>AccessCapableDisks&#45;&gt;barrier</title>
<path fill="none" stroke="black" stroke-width="2" d="M264.277,-272.38C264.277,-272.38 264.277,-241.098 264.277,-241.098"/>
<polygon fill="black" stroke="black" stroke-width="2" points="267.777,-241.098 264.277,-231.098 260.777,-241.098 267.777,-241.098"/>
</g>
<!-- WriteMetaToDHT&#45;&gt;FUSE_Overhead_2 -->
<g id="edge17" class="edge"><title>WriteMetaToDHT&#45;&gt;FUSE_Overhead_2</title>
<path fill="none" stroke="black" stroke-width="2" d="M109.5,-416.278C109.5,-416.278 109.5,-390.86 109.5,-390.86"/>
<polygon fill="black" stroke="black" stroke-width="2" points="113,-390.86 109.5,-380.86 106,-390.86 113,-390.86"/>
</g>
<!-- FUSE -->
<g id="node22" class="node"><title>FUSE</title>
<polygon fill="none" stroke="black" points="552.5,-452.447 443.5,-452.447 443.5,-416.447 552.5,-416.447 552.5,-452.447"/>
<text text-anchor="middle" x="498" y="-430.747" font-family="Times,serif" font-size="14.00">FUSE_Overhead</text>
</g>
<!-- NetworkTransfer&#45;&gt;FUSE -->
<g id="edge22" class="edge"><title>NetworkTransfer&#45;&gt;FUSE</title>
<path fill="none" stroke="black" stroke-width="2" d="M497.75,-488.278C497.75,-488.278 497.75,-462.86 497.75,-462.86"/>
<polygon fill="black" stroke="black" stroke-width="2" points="501.25,-462.86 497.75,-452.86 494.25,-462.86 501.25,-462.86"/>
</g>
<!-- AccessSmallDisks -->
<g id="node24" class="node"><title>AccessSmallDisks</title>
<polygon fill="none" stroke="black" points="558,-380.447 440,-380.447 440,-344.447 558,-344.447 558,-380.447"/>
<text text-anchor="middle" x="499" y="-358.747" font-family="Times,serif" font-size="14.00">AccessSmallDisks</text>
</g>
<!-- FUSE&#45;&gt;AccessSmallDisks -->
<g id="edge23" class="edge"><title>FUSE&#45;&gt;AccessSmallDisks</title>
<path fill="none" stroke="black" stroke-width="2" d="M498,-416.278C498,-416.278 498,-390.86 498,-390.86"/>
<polygon fill="black" stroke="black" stroke-width="2" points="501.5,-390.86 498,-380.86 494.5,-390.86 501.5,-390.86"/>
</g>
<!-- send_ack -->
<g id="node23" class="node"><title>send_ack</title>
<polygon fill="none" stroke="black" points="522,-308.447 456,-308.447 456,-272.447 522,-272.447 522,-308.447"/>
<text text-anchor="middle" x="489" y="-286.747" font-family="Times,serif" font-size="14.00">SendAck</text>
</g>
<!-- send_ack&#45;&gt;barrier -->
<g id="edge25" class="edge"><title>send_ack&#45;&gt;barrier</title>
<path fill="none" stroke="black" stroke-width="2" d="M489,-272.216C489,-252.851 489,-225 489,-225 489,-225 309.688,-225 309.688,-225"/>
<polygon fill="black" stroke="black" stroke-width="2" points="309.688,-221.5 299.688,-225 309.688,-228.5 309.688,-221.5"/>
</g>
<!-- AccessSmallDisks&#45;&gt;send_ack -->
<g id="edge24" class="edge"><title>AccessSmallDisks&#45;&gt;send_ack</title>
<path fill="none" stroke="black" stroke-width="2" d="M489,-344.278C489,-344.278 489,-318.86 489,-318.86"/>
<polygon fill="black" stroke="black" stroke-width="2" points="492.5,-318.86 489,-308.86 485.5,-318.86 492.5,-318.86"/>
</g>
<!-- SendAck&#45;&gt;end -->
<g id="edge31" class="edge"><title>SendAck&#45;&gt;end</title>
<path fill="none" stroke="black" stroke-width="2" d="M306,-74.6198C306,-50.7215 306,-12 306,-12 306,-12 598.535,-12 598.535,-12"/>
<polygon fill="black" stroke="black" stroke-width="2" points="598.535,-15.5001 608.535,-12 598.535,-8.5001 598.535,-15.5001"/>
</g>
</g>
</svg>
