<?xml version="1.0" encoding="UTF-8" standalone="no"?>
<!DOCTYPE svg PUBLIC "-//W3C//DTD SVG 1.1//EN"
 "http://www.w3.org/Graphics/SVG/1.1/DTD/svg11.dtd">
<!-- Generated by graphviz version 2.38.0 (20140413.2041)
 -->
<!-- Title: %3 Pages: 1 -->
<svg width="676pt" height="843pt"
 viewBox="0.00 0.00 676.00 843.00" xmlns="http://www.w3.org/2000/svg" xmlns:xlink="http://www.w3.org/1999/xlink">
<g id="graph0" class="graph" transform="scale(1 1) rotate(0) translate(4 839)">
<title>%3</title>
<polygon fill="white" stroke="none" points="-4,4 -4,-839 672,-839 672,4 -4,4"/>
<g id="clust1" class="cluster"><title>cluster_0</title>
<polygon fill="none" stroke="black" stroke-dasharray="5,2" points="396,-150 396,-472 660,-472 660,-150 396,-150"/>
<text text-anchor="middle" x="614" y="-157.8" font-family="Times,serif" font-size="14.00">Read Request</text>
</g>
<g id="clust2" class="cluster"><title>cluster</title>
<polygon fill="none" stroke="darkviolet" stroke-dasharray="5,2" points="534,-181 534,-328 652,-328 652,-181 534,-181"/>
<text text-anchor="middle" x="577" y="-188.8" font-family="Times,serif" font-size="14.00">SendAnswer</text>
</g>
<g id="clust3" class="cluster"><title>cluster</title>
<polygon fill="none" stroke="black" stroke-dasharray="5,2" points="8,-44 8,-771 388,-771 388,-44 8,-44"/>
<text text-anchor="middle" x="55.5" y="-51.8" font-family="Times,serif" font-size="14.00">Write Request</text>
</g>
<g id="clust4" class="cluster"><title>cluster_1</title>
<polygon fill="none" stroke="black" stroke-dasharray="5,2" points="16,-75 16,-699 244,-699 244,-75 16,-75"/>
<text text-anchor="middle" x="50" y="-82.8" font-family="Times,serif" font-size="14.00">Metadata</text>
</g>
<g id="clust5" class="cluster"><title>cluster_propagate</title>
<polygon fill="none" stroke="black" stroke-dasharray="5,2" points="44,-480 44,-627 174,-627 174,-480 44,-480"/>
<text text-anchor="middle" x="85" y="-487.8" font-family="Times,serif" font-size="14.00">Propagation</text>
</g>
<g id="clust6" class="cluster"><title>cluster_metadata</title>
<polygon fill="none" stroke="black" stroke-dasharray="5,2" points="24,-181 24,-472 236,-472 236,-181 24,-181"/>
<text text-anchor="middle" x="77" y="-188.8" font-family="Times,serif" font-size="14.00">FUSE Overhead</text>
</g>
<!-- start -->
<g id="node1" class="node"><title>start</title>
<ellipse fill="none" stroke="black" cx="376" cy="-817" rx="27" ry="18"/>
<text text-anchor="middle" x="376" y="-813.3" font-family="Times,serif" font-size="14.00">start</text>
</g>
<!-- Receive Read Request -->
<g id="node3" class="node"><title>Receive Read Request</title>
<polygon fill="none" stroke="black" points="543.5,-464 404.5,-464 404.5,-428 543.5,-428 543.5,-464"/>
<text text-anchor="middle" x="474" y="-442.3" font-family="Times,serif" font-size="14.00">Receive Read Request</text>
</g>
<!-- start&#45;&gt;Receive Read Request -->
<g id="edge1" class="edge"><title>start&#45;&gt;Receive Read Request</title>
<path fill="none" stroke="black" stroke-width="2" d="M400.667,-809.376C400.667,-756.961 400.667,-452 400.667,-452 400.667,-452 401.02,-452 401.02,-452"/>
<polygon fill="black" stroke="black" stroke-width="2" points="394.204,-455.5 404.204,-452 394.204,-448.5 394.204,-455.5"/>
</g>
<!-- Receive Write Request -->
<g id="node10" class="node"><title>Receive Write Request</title>
<polygon fill="none" stroke="black" points="379.5,-763 236.5,-763 236.5,-727 379.5,-727 379.5,-763"/>
<text text-anchor="middle" x="308" y="-741.3" font-family="Times,serif" font-size="14.00">Receive Write Request</text>
</g>
<!-- start&#45;&gt;Receive Write Request -->
<g id="edge10" class="edge"><title>start&#45;&gt;Receive Write Request</title>
<path fill="none" stroke="black" stroke-width="2" d="M364.25,-800.662C364.25,-800.662 364.25,-773.042 364.25,-773.042"/>
<polygon fill="black" stroke="black" stroke-width="2" points="367.75,-773.042 364.25,-763.042 360.75,-773.042 367.75,-773.042"/>
</g>
<!-- end -->
<g id="node2" class="node"><title>end</title>
<ellipse fill="none" stroke="black" cx="448" cy="-18" rx="27" ry="18"/>
<text text-anchor="middle" x="448" y="-14.3" font-family="Times,serif" font-size="14.00">end</text>
</g>
<!-- LocalData -->
<g id="node5" class="node"><title>LocalData</title>
<polygon fill="none" stroke="black" points="474,-392 406.803,-374 474,-356 541.197,-374 474,-392"/>
<text text-anchor="middle" x="474" y="-370.3" font-family="Times,serif" font-size="14.00">LocalData</text>
</g>
<!-- Receive Read Request&#45;&gt;LocalData -->
<g id="edge2" class="edge"><title>Receive Read Request&#45;&gt;LocalData</title>
<path fill="none" stroke="black" stroke-width="2" d="M474,-427.831C474,-427.831 474,-402.413 474,-402.413"/>
<polygon fill="black" stroke="black" stroke-width="2" points="477.5,-402.413 474,-392.413 470.5,-402.413 477.5,-402.413"/>
</g>
<!-- timeout_1 -->
<g id="node4" class="node"><title>timeout_1</title>
<polygon fill="none" stroke="black" points="462,-248 404.186,-230 462,-212 519.814,-230 462,-248"/>
<text text-anchor="middle" x="462" y="-226.3" font-family="Times,serif" font-size="14.00">Timeout</text>
</g>
<!-- timeout_1&#45;&gt;end -->
<g id="edge9" class="edge"><title>timeout_1&#45;&gt;end</title>
<path fill="none" stroke="#ff4040" stroke-width="2" d="M509.953,-226.764C509.953,-200.557 509.953,-24 509.953,-24 509.953,-24 483.557,-24 483.557,-24"/>
<polygon fill="#ff4040" stroke="#ff4040" stroke-width="2" points="483.557,-20.5001 473.557,-24 483.556,-27.5001 483.557,-20.5001"/>
</g>
<!-- RestructureData -->
<g id="node9" class="node"><title>RestructureData</title>
<polygon fill="none" stroke="black" points="500,-142 396,-142 396,-106 500,-106 500,-142"/>
<text text-anchor="middle" x="448" y="-120.3" font-family="Times,serif" font-size="14.00">RestructureData</text>
</g>
<!-- timeout_1&#45;&gt;RestructureData -->
<g id="edge8" class="edge"><title>timeout_1&#45;&gt;RestructureData</title>
<path fill="none" stroke="forestgreen" stroke-width="2" d="M452.047,-214.813C452.047,-214.813 452.047,-152.364 452.047,-152.364"/>
<polygon fill="forestgreen" stroke="forestgreen" stroke-width="2" points="455.547,-152.364 452.047,-142.364 448.547,-152.364 455.547,-152.364"/>
</g>
<!-- CreatePacket -->
<g id="node6" class="node"><title>CreatePacket</title>
<polygon fill="none" stroke="black" points="633,-320 545,-320 545,-284 633,-284 633,-320"/>
<text text-anchor="middle" x="589" y="-298.3" font-family="Times,serif" font-size="14.00">CreatePacket</text>
</g>
<!-- LocalData&#45;&gt;CreatePacket -->
<g id="edge3" class="edge"><title>LocalData&#45;&gt;CreatePacket</title>
<path fill="none" stroke="forestgreen" stroke-width="2" d="M530.503,-370.906C530.503,-357.125 530.503,-302 530.503,-302 530.503,-302 534.963,-302 534.963,-302"/>
<polygon fill="forestgreen" stroke="forestgreen" stroke-width="2" points="534.963,-305.5 544.963,-302 534.963,-298.5 534.963,-305.5"/>
</g>
<!-- SendRequest -->
<g id="node8" class="node"><title>SendRequest</title>
<polygon fill="none" stroke="black" points="511.5,-320 424.5,-320 424.5,-284 511.5,-284 511.5,-320"/>
<text text-anchor="middle" x="468" y="-298.3" font-family="Times,serif" font-size="14.00">SendRequest</text>
</g>
<!-- LocalData&#45;&gt;SendRequest -->
<g id="edge5" class="edge"><title>LocalData&#45;&gt;SendRequest</title>
<path fill="none" stroke="#ff4040" stroke-width="2" d="M468,-357.301C468,-357.301 468,-330.122 468,-330.122"/>
<polygon fill="#ff4040" stroke="#ff4040" stroke-width="2" points="471.5,-330.122 468,-320.122 464.5,-330.122 471.5,-330.122"/>
</g>
<!-- TransmitPacket -->
<g id="node7" class="node"><title>TransmitPacket</title>
<polygon fill="none" stroke="black" points="644,-248 542,-248 542,-212 644,-212 644,-248"/>
<text text-anchor="middle" x="593" y="-226.3" font-family="Times,serif" font-size="14.00">TransmitPacket</text>
</g>
<!-- CreatePacket&#45;&gt;TransmitPacket -->
<g id="edge4" class="edge"><title>CreatePacket&#45;&gt;TransmitPacket</title>
<path fill="none" stroke="black" stroke-width="2" d="M589,-283.831C589,-283.831 589,-258.413 589,-258.413"/>
<polygon fill="black" stroke="black" stroke-width="2" points="592.5,-258.413 589,-248.413 585.5,-258.413 592.5,-258.413"/>
</g>
<!-- TransmitPacket&#45;&gt;end -->
<g id="edge7" class="edge"><title>TransmitPacket&#45;&gt;end</title>
<path fill="none" stroke="black" stroke-width="2" d="M593,-211.788C593,-159.394 593,-12 593,-12 593,-12 483.589,-12 483.589,-12"/>
<polygon fill="black" stroke="black" stroke-width="2" points="483.589,-8.5001 473.589,-12 483.589,-15.5001 483.589,-8.5001"/>
</g>
<!-- SendRequest&#45;&gt;timeout_1 -->
<g id="edge6" class="edge"><title>SendRequest&#45;&gt;timeout_1</title>
<path fill="none" stroke="black" stroke-width="2" d="M468,-283.831C468,-283.831 468,-256.439 468,-256.439"/>
<polygon fill="black" stroke="black" stroke-width="2" points="471.5,-256.439 468,-246.439 464.5,-256.439 471.5,-256.439"/>
</g>
<!-- RestructureData&#45;&gt;end -->
<g id="edge27" class="edge"><title>RestructureData&#45;&gt;end</title>
<path fill="none" stroke="black" stroke-width="2" d="M448,-105.536C448,-105.536 448,-46.2522 448,-46.2522"/>
<polygon fill="black" stroke="black" stroke-width="2" points="451.5,-46.2522 448,-36.2522 444.5,-46.2522 451.5,-46.2522"/>
</g>
<!-- WriteMetaToDHT -->
<g id="node12" class="node"><title>WriteMetaToDHT</title>
<polygon fill="none" stroke="black" points="232.5,-691 113.5,-691 113.5,-655 232.5,-655 232.5,-691"/>
<text text-anchor="middle" x="173" y="-669.3" font-family="Times,serif" font-size="14.00">WriteMetaToDHT</text>
</g>
<!-- Receive Write Request&#45;&gt;WriteMetaToDHT -->
<g id="edge23" class="edge"><title>Receive Write Request&#45;&gt;WriteMetaToDHT</title>
<path fill="none" stroke="black" stroke-width="2" d="M241.667,-726.965C241.667,-707.424 241.667,-679 241.667,-679 241.667,-679 240.769,-679 240.769,-679"/>
<polygon fill="black" stroke="black" stroke-width="2" points="242.69,-675.5 232.69,-679 242.69,-682.5 242.69,-675.5"/>
</g>
<!-- WriteDataToDisk -->
<g id="node21" class="node"><title>WriteDataToDisk</title>
<polygon fill="none" stroke="black" points="369,-691 255,-691 255,-655 369,-655 369,-691"/>
<text text-anchor="middle" x="312" y="-669.3" font-family="Times,serif" font-size="14.00">WriteDataToDisk</text>
</g>
<!-- Receive Write Request&#45;&gt;WriteDataToDisk -->
<g id="edge22" class="edge"><title>Receive Write Request&#45;&gt;WriteDataToDisk</title>
<path fill="none" stroke="black" stroke-width="2" d="M312,-726.831C312,-726.831 312,-701.413 312,-701.413"/>
<polygon fill="black" stroke="black" stroke-width="2" points="315.5,-701.413 312,-691.413 308.5,-701.413 315.5,-701.413"/>
</g>
<!-- timeout_2 -->
<g id="node11" class="node"><title>timeout_2</title>
<polygon fill="none" stroke="black" points="322,-547 264.186,-529 322,-511 379.814,-529 322,-547"/>
<text text-anchor="middle" x="322" y="-525.3" font-family="Times,serif" font-size="14.00">Timeout</text>
</g>
<!-- timeout_2&#45;&gt;end -->
<g id="edge25" class="edge"><title>timeout_2&#45;&gt;end</title>
<path fill="none" stroke="#ff4040" stroke-width="2" d="M322,-510.728C322,-420.192 322,-24 322,-24 322,-24 412.502,-24 412.502,-24"/>
<polygon fill="#ff4040" stroke="#ff4040" stroke-width="2" points="412.502,-27.5001 422.502,-24 412.502,-20.5001 412.502,-27.5001"/>
</g>
<!-- timeout_2&#45;&gt;RestructureData -->
<g id="edge26" class="edge"><title>timeout_2&#45;&gt;RestructureData</title>
<path fill="none" stroke="forestgreen" stroke-width="2" d="M379.855,-529C390.502,-529 398.333,-529 398.333,-529 398.333,-529 398.333,-152.189 398.333,-152.189"/>
<polygon fill="forestgreen" stroke="forestgreen" stroke-width="2" points="401.833,-152.189 398.333,-142.189 394.833,-152.189 401.833,-152.189"/>
</g>
<!-- PropagateToDHT -->
<g id="node13" class="node"><title>PropagateToDHT</title>
<polygon fill="none" stroke="black" points="165.5,-619 52.5,-619 52.5,-583 165.5,-583 165.5,-619"/>
<text text-anchor="middle" x="109" y="-597.3" font-family="Times,serif" font-size="14.00">PropagateToDHT</text>
</g>
<!-- WriteMetaToDHT&#45;&gt;PropagateToDHT -->
<g id="edge11" class="edge"><title>WriteMetaToDHT&#45;&gt;PropagateToDHT</title>
<path fill="none" stroke="black" stroke-width="2" d="M139.5,-654.831C139.5,-654.831 139.5,-629.413 139.5,-629.413"/>
<polygon fill="black" stroke="black" stroke-width="2" points="143,-629.413 139.5,-619.413 136,-629.413 143,-629.413"/>
<text text-anchor="middle" x="116" y="-630.922" font-family="Times,serif" font-size="14.00">JUMBO</text>
</g>
<!-- AccessToDisk -->
<g id="node15" class="node"><title>AccessToDisk</title>
<polygon fill="none" stroke="black" points="217.5,-464 122.5,-464 122.5,-428 217.5,-428 217.5,-464"/>
<text text-anchor="middle" x="170" y="-442.3" font-family="Times,serif" font-size="14.00">AccessToDisk</text>
</g>
<!-- WriteMetaToDHT&#45;&gt;AccessToDisk -->
<g id="edge14" class="edge"><title>WriteMetaToDHT&#45;&gt;AccessToDisk</title>
<path fill="none" stroke="black" stroke-width="2" d="M191.5,-654.807C191.5,-654.807 191.5,-474.279 191.5,-474.279"/>
<polygon fill="black" stroke="black" stroke-width="2" points="195,-474.279 191.5,-464.279 188,-474.279 195,-474.279"/>
<text text-anchor="middle" x="176" y="-568.343" font-family="Times,serif" font-size="14.00">Local</text>
</g>
<!-- NetworkTransfer -->
<g id="node14" class="node"><title>NetworkTransfer</title>
<polygon fill="none" stroke="black" points="165,-547 55,-547 55,-511 165,-511 165,-547"/>
<text text-anchor="middle" x="110" y="-525.3" font-family="Times,serif" font-size="14.00">NetworkTransfer</text>
</g>
<!-- PropagateToDHT&#45;&gt;NetworkTransfer -->
<g id="edge12" class="edge"><title>PropagateToDHT&#45;&gt;NetworkTransfer</title>
<path fill="none" stroke="black" stroke-width="2" d="M110,-582.831C110,-582.831 110,-557.413 110,-557.413"/>
<polygon fill="black" stroke="black" stroke-width="2" points="113.5,-557.413 110,-547.413 106.5,-557.413 113.5,-557.413"/>
</g>
<!-- NetworkTransfer&#45;&gt;AccessToDisk -->
<g id="edge13" class="edge"><title>NetworkTransfer&#45;&gt;AccessToDisk</title>
<path fill="none" stroke="black" stroke-width="2" d="M143.75,-510.99C143.75,-510.99 143.75,-474.261 143.75,-474.261"/>
<polygon fill="black" stroke="black" stroke-width="2" points="147.25,-474.261 143.75,-464.261 140.25,-474.261 147.25,-474.261"/>
</g>
<!-- fim_main_int -->
<g id="node17" class="node"><title>fim_main_int</title>
<polygon fill="none" stroke="black" points="214,-392 122,-392 122,-356 214,-356 214,-392"/>
<text text-anchor="middle" x="168" y="-370.3" font-family="Times,serif" font-size="14.00">fim_main_int</text>
</g>
<!-- AccessToDisk&#45;&gt;fim_main_int -->
<g id="edge15" class="edge"><title>AccessToDisk&#45;&gt;fim_main_int</title>
<path fill="none" stroke="black" stroke-width="2" d="M168.25,-427.831C168.25,-427.831 168.25,-402.413 168.25,-402.413"/>
<polygon fill="black" stroke="black" stroke-width="2" points="171.75,-402.413 168.25,-392.413 164.75,-402.413 171.75,-402.413"/>
</g>
<!-- OpCompleted_2 -->
<g id="node16" class="node"><title>OpCompleted_2</title>
<polygon fill="none" stroke="black" points="227.747,-248 86.5705,-248 50.2531,-212 191.43,-212 227.747,-248"/>
<text text-anchor="middle" x="139" y="-226.3" font-family="Times,serif" font-size="14.00">OpCompleted</text>
</g>
<!-- SendAck -->
<g id="node20" class="node"><title>SendAck</title>
<polygon fill="none" stroke="black" points="204,-142 138,-142 138,-106 204,-106 204,-142"/>
<text text-anchor="middle" x="171" y="-120.3" font-family="Times,serif" font-size="14.00">SendAck</text>
</g>
<!-- OpCompleted_2&#45;&gt;SendAck -->
<g id="edge20" class="edge"><title>OpCompleted_2&#45;&gt;SendAck</title>
<path fill="none" stroke="black" stroke-width="2" d="M171,-211.536C171,-211.536 171,-152.252 171,-152.252"/>
<polygon fill="black" stroke="black" stroke-width="2" points="174.5,-152.252 171,-142.252 167.5,-152.252 174.5,-152.252"/>
</g>
<!-- cic_int -->
<g id="node18" class="node"><title>cic_int</title>
<polygon fill="none" stroke="black" points="86,-320 32,-320 32,-284 86,-284 86,-320"/>
<text text-anchor="middle" x="59" y="-298.3" font-family="Times,serif" font-size="14.00">cic_int</text>
</g>
<!-- fim_main_int&#45;&gt;cic_int -->
<g id="edge16" class="edge"><title>fim_main_int&#45;&gt;cic_int</title>
<path fill="none" stroke="black" stroke-width="2" d="M121.82,-374C96.619,-374 70.5,-374 70.5,-374 70.5,-374 70.5,-330.169 70.5,-330.169"/>
<polygon fill="black" stroke="black" stroke-width="2" points="74.0001,-330.169 70.5,-320.169 67.0001,-330.169 74.0001,-330.169"/>
</g>
<!-- otherFunctionCalls -->
<g id="node19" class="node"><title>otherFunctionCalls</title>
<polygon fill="none" stroke="black" points="228,-320 108,-320 108,-284 228,-284 228,-320"/>
<text text-anchor="middle" x="168" y="-298.3" font-family="Times,serif" font-size="14.00">otherFunctionCalls</text>
</g>
<!-- fim_main_int&#45;&gt;otherFunctionCalls -->
<g id="edge18" class="edge"><title>fim_main_int&#45;&gt;otherFunctionCalls</title>
<path fill="none" stroke="black" stroke-width="2" d="M168,-355.831C168,-355.831 168,-330.413 168,-330.413"/>
<polygon fill="black" stroke="black" stroke-width="2" points="171.5,-330.413 168,-320.413 164.5,-330.413 171.5,-330.413"/>
</g>
<!-- cic_int&#45;&gt;OpCompleted_2 -->
<g id="edge17" class="edge"><title>cic_int&#45;&gt;OpCompleted_2</title>
<path fill="none" stroke="black" stroke-width="2" d="M68.1883,-283.831C68.1883,-283.831 68.1883,-240.094 68.1883,-240.094"/>
<polygon fill="black" stroke="black" stroke-width="2" points="71.6884,-240.094 68.1883,-230.094 64.6884,-240.094 71.6884,-240.094"/>
</g>
<!-- otherFunctionCalls&#45;&gt;OpCompleted_2 -->
<g id="edge19" class="edge"><title>otherFunctionCalls&#45;&gt;OpCompleted_2</title>
<path fill="none" stroke="black" stroke-width="2" d="M167.812,-283.831C167.812,-283.831 167.812,-258.413 167.812,-258.413"/>
<polygon fill="black" stroke="black" stroke-width="2" points="171.312,-258.413 167.812,-248.413 164.312,-258.413 171.312,-258.413"/>
</g>
<!-- SendAck&#45;&gt;end -->
<g id="edge28" class="edge"><title>SendAck&#45;&gt;end</title>
<path fill="none" stroke="black" stroke-width="2" d="M171,-105.505C171,-73.6943 171,-12 171,-12 171,-12 412.437,-12 412.437,-12"/>
<polygon fill="black" stroke="black" stroke-width="2" points="412.437,-15.5001 422.437,-12 412.437,-8.5001 412.437,-15.5001"/>
</g>
<!-- WriteDataToDisk&#45;&gt;AccessToDisk -->
<g id="edge29" class="edge"><title>WriteDataToDisk&#45;&gt;AccessToDisk</title>
<path fill="none" stroke="black" stroke-width="2" d="M254.824,-667C249.952,-667 246.833,-667 246.833,-667 246.833,-667 246.833,-440 246.833,-440 246.833,-440 227.786,-440 227.786,-440"/>
<polygon fill="black" stroke="black" stroke-width="2" points="227.786,-436.5 217.786,-440 227.786,-443.5 227.786,-436.5"/>
</g>
<!-- TransactionalTraffic -->
<g id="node22" class="node"><title>TransactionalTraffic</title>
<polygon fill="none" stroke="black" points="380,-619 252,-619 252,-583 380,-583 380,-619"/>
<text text-anchor="middle" x="316" y="-597.3" font-family="Times,serif" font-size="14.00">TransactionalTraffic</text>
</g>
<!-- WriteDataToDisk&#45;&gt;TransactionalTraffic -->
<g id="edge21" class="edge"><title>WriteDataToDisk&#45;&gt;TransactionalTraffic</title>
<path fill="none" stroke="black" stroke-width="2" stroke-dasharray="5,2" d="M312,-654.831C312,-654.831 312,-629.413 312,-629.413"/>
<polygon fill="black" stroke="black" stroke-width="2" points="312,-619.413 316.5,-629.413 312.5,-624.413 312.5,-629.413 312,-629.413 311.5,-629.413 311.5,-624.413 307.5,-629.413 312,-619.413 312,-619.413"/>
</g>
<!-- TransactionalTraffic&#45;&gt;timeout_2 -->
<g id="edge24" class="edge"><title>TransactionalTraffic&#45;&gt;timeout_2</title>
<g id="a_edge24"><a xlink:title="Calls to multiple nodes">
<path fill="none" stroke="black" stroke-width="2" d="M322,-582.831C318,-582.831 318,-557.413 322,-557.413"/>
<path fill="none" stroke="none" stroke-width="2" d="M322,-582.831C320,-582.831 320,-557.413 322,-557.413"/>
<path fill="none" stroke="black" stroke-width="2" d="M322,-582.831C322,-582.831 322,-557.413 322,-557.413"/>
<path fill="none" stroke="none" stroke-width="2" d="M322,-582.831C324,-582.831 324,-557.413 322,-557.413"/>
<path fill="none" stroke="black" stroke-width="2" d="M322,-582.831C326,-582.831 326,-557.413 322,-557.413"/>
<polygon fill="black" stroke="black" stroke-width="2" points="325.5,-557.413 322,-547.413 318.5,-557.413 325.5,-557.413"/>
</a>
</g>
</g>
</g>
</svg>
