<?xml version="1.0" encoding="UTF-8" standalone="no"?>
<!DOCTYPE svg PUBLIC "-//W3C//DTD SVG 1.1//EN"
 "http://www.w3.org/Graphics/SVG/1.1/DTD/svg11.dtd">
<!-- Generated by graphviz version 2.38.0 (20140413.2041)
 -->
<!-- Title: %3 Pages: 1 -->
<svg width="583pt" height="510pt"
 viewBox="0.00 0.00 583.00 510.00" xmlns="http://www.w3.org/2000/svg" xmlns:xlink="http://www.w3.org/1999/xlink">
<g id="graph0" class="graph" transform="scale(1 1) rotate(0) translate(4 506)">
<title>%3</title>
<polygon fill="white" stroke="none" points="-4,4 -4,-506 579,-506 579,4 -4,4"/>
<g id="clust1" class="cluster"><title>cluster_0</title>
<polygon fill="none" stroke="black" stroke-dasharray="5,2" points="8,-116 8,-438 286,-438 286,-116 8,-116"/>
<text text-anchor="middle" x="147" y="-123.8" font-family="Times,serif" font-size="14.00">Read Request</text>
</g>
<g id="clust2" class="cluster"><title>cluster</title>
<polygon fill="none" stroke="darkviolet" stroke-dasharray="5,2" points="16,-147 16,-294 134,-294 134,-147 16,-147"/>
<text text-anchor="middle" x="59" y="-154.8" font-family="Times,serif" font-size="14.00">SendAnswer</text>
</g>
<g id="clust3" class="cluster"><title>cluster</title>
<polygon fill="none" stroke="black" stroke-dasharray="5,2" points="294,-147 294,-438 567,-438 567,-147 294,-147"/>
<text text-anchor="middle" x="341.5" y="-154.8" font-family="Times,serif" font-size="14.00">Write Request</text>
</g>
<!-- start -->
<g id="node1" class="node"><title>start</title>
<ellipse fill="none" stroke="black" cx="286" cy="-484" rx="27" ry="18"/>
<text text-anchor="middle" x="286" y="-480.3" font-family="Times,serif" font-size="14.00">start</text>
</g>
<!-- Receive Read Request -->
<g id="node3" class="node"><title>Receive Read Request</title>
<polygon fill="none" stroke="black" points="267.5,-430 128.5,-430 128.5,-394 267.5,-394 267.5,-430"/>
<text text-anchor="middle" x="198" y="-408.3" font-family="Times,serif" font-size="14.00">Receive Read Request</text>
</g>
<!-- start&#45;&gt;Receive Read Request -->
<g id="edge1" class="edge"><title>start&#45;&gt;Receive Read Request</title>
<path fill="none" stroke="black" stroke-width="2" d="M263.25,-474.29C263.25,-474.29 263.25,-440.124 263.25,-440.124"/>
<polygon fill="black" stroke="black" stroke-width="2" points="266.75,-440.124 263.25,-430.124 259.75,-440.124 266.75,-440.124"/>
</g>
<!-- Receive Write Request -->
<g id="node10" class="node"><title>Receive Write Request</title>
<polygon fill="none" stroke="black" points="446.5,-430 303.5,-430 303.5,-394 446.5,-394 446.5,-430"/>
<text text-anchor="middle" x="375" y="-408.3" font-family="Times,serif" font-size="14.00">Receive Write Request</text>
</g>
<!-- start&#45;&gt;Receive Write Request -->
<g id="edge10" class="edge"><title>start&#45;&gt;Receive Write Request</title>
<path fill="none" stroke="black" stroke-width="2" d="M308.25,-473.684C308.25,-473.684 308.25,-440.09 308.25,-440.09"/>
<polygon fill="black" stroke="black" stroke-width="2" points="311.75,-440.09 308.25,-430.09 304.75,-440.09 311.75,-440.09"/>
</g>
<!-- end -->
<g id="node2" class="node"><title>end</title>
<ellipse fill="none" stroke="black" cx="280" cy="-18" rx="27" ry="18"/>
<text text-anchor="middle" x="280" y="-14.3" font-family="Times,serif" font-size="14.00">end</text>
</g>
<!-- LocalData -->
<g id="node5" class="node"><title>LocalData</title>
<polygon fill="none" stroke="black" points="198,-358 130.803,-340 198,-322 265.197,-340 198,-358"/>
<text text-anchor="middle" x="198" y="-336.3" font-family="Times,serif" font-size="14.00">LocalData</text>
</g>
<!-- Receive Read Request&#45;&gt;LocalData -->
<g id="edge2" class="edge"><title>Receive Read Request&#45;&gt;LocalData</title>
<path fill="none" stroke="black" stroke-width="2" d="M198,-393.831C198,-393.831 198,-368.413 198,-368.413"/>
<polygon fill="black" stroke="black" stroke-width="2" points="201.5,-368.413 198,-358.413 194.5,-368.413 201.5,-368.413"/>
</g>
<!-- timeout_1 -->
<g id="node4" class="node"><title>timeout_1</title>
<polygon fill="none" stroke="black" points="220,-214 162.186,-196 220,-178 277.814,-196 220,-214"/>
<text text-anchor="middle" x="220" y="-192.3" font-family="Times,serif" font-size="14.00">Timeout</text>
</g>
<!-- timeout_1&#45;&gt;end -->
<g id="edge9" class="edge"><title>timeout_1&#45;&gt;end</title>
<path fill="none" stroke="#ff4040" stroke-width="2" d="M195.047,-185.756C195.047,-148.727 195.047,-24 195.047,-24 195.047,-24 244.511,-24 244.511,-24"/>
<polygon fill="#ff4040" stroke="#ff4040" stroke-width="2" points="244.511,-27.5001 254.511,-24 244.511,-20.5001 244.511,-27.5001"/>
</g>
<!-- RestructureData -->
<g id="node9" class="node"><title>RestructureData</title>
<polygon fill="none" stroke="black" points="332,-108 228,-108 228,-72 332,-72 332,-108"/>
<text text-anchor="middle" x="280" y="-86.3" font-family="Times,serif" font-size="14.00">RestructureData</text>
</g>
<!-- timeout_1&#45;&gt;RestructureData -->
<g id="edge8" class="edge"><title>timeout_1&#45;&gt;RestructureData</title>
<path fill="none" stroke="forestgreen" stroke-width="2" d="M252.953,-188.033C252.953,-188.033 252.953,-118.171 252.953,-118.171"/>
<polygon fill="forestgreen" stroke="forestgreen" stroke-width="2" points="256.454,-118.171 252.953,-108.171 249.454,-118.171 256.454,-118.171"/>
</g>
<!-- CreatePacket -->
<g id="node6" class="node"><title>CreatePacket</title>
<polygon fill="none" stroke="black" points="122,-286 34,-286 34,-250 122,-250 122,-286"/>
<text text-anchor="middle" x="78" y="-264.3" font-family="Times,serif" font-size="14.00">CreatePacket</text>
</g>
<!-- LocalData&#45;&gt;CreatePacket -->
<g id="edge3" class="edge"><title>LocalData&#45;&gt;CreatePacket</title>
<path fill="none" stroke="forestgreen" stroke-width="2" d="M146.497,-335.712C146.497,-320.211 146.497,-268 146.497,-268 146.497,-268 132.155,-268 132.155,-268"/>
<polygon fill="forestgreen" stroke="forestgreen" stroke-width="2" points="132.155,-264.5 122.155,-268 132.155,-271.5 132.155,-264.5"/>
</g>
<!-- SendRequest -->
<g id="node8" class="node"><title>SendRequest</title>
<polygon fill="none" stroke="black" points="255.5,-286 168.5,-286 168.5,-250 255.5,-250 255.5,-286"/>
<text text-anchor="middle" x="212" y="-264.3" font-family="Times,serif" font-size="14.00">SendRequest</text>
</g>
<!-- LocalData&#45;&gt;SendRequest -->
<g id="edge5" class="edge"><title>LocalData&#45;&gt;SendRequest</title>
<path fill="none" stroke="#ff4040" stroke-width="2" d="M212,-325.43C212,-325.43 212,-296.128 212,-296.128"/>
<polygon fill="#ff4040" stroke="#ff4040" stroke-width="2" points="215.5,-296.128 212,-286.128 208.5,-296.128 215.5,-296.128"/>
</g>
<!-- TransmitPacket -->
<g id="node7" class="node"><title>TransmitPacket</title>
<polygon fill="none" stroke="black" points="126,-214 24,-214 24,-178 126,-178 126,-214"/>
<text text-anchor="middle" x="75" y="-192.3" font-family="Times,serif" font-size="14.00">TransmitPacket</text>
</g>
<!-- CreatePacket&#45;&gt;TransmitPacket -->
<g id="edge4" class="edge"><title>CreatePacket&#45;&gt;TransmitPacket</title>
<path fill="none" stroke="black" stroke-width="2" d="M78,-249.831C78,-249.831 78,-224.413 78,-224.413"/>
<polygon fill="black" stroke="black" stroke-width="2" points="81.5001,-224.413 78,-214.413 74.5001,-224.413 81.5001,-224.413"/>
</g>
<!-- TransmitPacket&#45;&gt;end -->
<g id="edge7" class="edge"><title>TransmitPacket&#45;&gt;end</title>
<path fill="none" stroke="black" stroke-width="2" d="M75,-177.685C75,-131.144 75,-12 75,-12 75,-12 244.451,-12 244.451,-12"/>
<polygon fill="black" stroke="black" stroke-width="2" points="244.451,-15.5001 254.451,-12 244.451,-8.5001 244.451,-15.5001"/>
</g>
<!-- SendRequest&#45;&gt;timeout_1 -->
<g id="edge6" class="edge"><title>SendRequest&#45;&gt;timeout_1</title>
<path fill="none" stroke="black" stroke-width="2" d="M212,-249.831C212,-249.831 212,-221.957 212,-221.957"/>
<polygon fill="black" stroke="black" stroke-width="2" points="215.5,-221.957 212,-211.957 208.5,-221.957 215.5,-221.957"/>
</g>
<!-- RestructureData&#45;&gt;end -->
<g id="edge20" class="edge"><title>RestructureData&#45;&gt;end</title>
<path fill="none" stroke="black" stroke-width="2" d="M280,-71.8314C280,-71.8314 280,-46.4133 280,-46.4133"/>
<polygon fill="black" stroke="black" stroke-width="2" points="283.5,-46.4132 280,-36.4133 276.5,-46.4133 283.5,-46.4132"/>
</g>
<!-- WriteToDisk -->
<g id="node12" class="node"><title>WriteToDisk</title>
<polygon fill="none" stroke="black" points="403.5,-358 314.5,-358 314.5,-322 403.5,-322 403.5,-358"/>
<text text-anchor="middle" x="359" y="-336.3" font-family="Times,serif" font-size="14.00">WriteToDisk</text>
</g>
<!-- Receive Write Request&#45;&gt;WriteToDisk -->
<g id="edge11" class="edge"><title>Receive Write Request&#45;&gt;WriteToDisk</title>
<path fill="none" stroke="black" stroke-width="2" d="M359,-393.831C359,-393.831 359,-368.413 359,-368.413"/>
<polygon fill="black" stroke="black" stroke-width="2" points="362.5,-368.413 359,-358.413 355.5,-368.413 362.5,-368.413"/>
</g>
<!-- WriteMetaToDHT -->
<g id="node15" class="node"><title>WriteMetaToDHT</title>
<polygon fill="none" stroke="black" points="558.5,-358 439.5,-358 439.5,-322 558.5,-322 558.5,-358"/>
<text text-anchor="middle" x="499" y="-336.3" font-family="Times,serif" font-size="14.00">WriteMetaToDHT</text>
</g>
<!-- Receive Write Request&#45;&gt;WriteMetaToDHT -->
<g id="edge14" class="edge"><title>Receive Write Request&#45;&gt;WriteMetaToDHT</title>
<path fill="none" stroke="black" stroke-width="2" d="M443,-393.831C443,-393.831 443,-368.413 443,-368.413"/>
<polygon fill="black" stroke="black" stroke-width="2" points="446.5,-368.413 443,-358.413 439.5,-368.413 446.5,-368.413"/>
</g>
<!-- timeout_2 -->
<g id="node11" class="node"><title>timeout_2</title>
<polygon fill="none" stroke="black" points="372,-214 314.186,-196 372,-178 429.814,-196 372,-214"/>
<text text-anchor="middle" x="372" y="-192.3" font-family="Times,serif" font-size="14.00">Timeout</text>
</g>
<!-- timeout_2&#45;&gt;end -->
<g id="edge18" class="edge"><title>timeout_2&#45;&gt;end</title>
<path fill="none" stroke="#ff4040" stroke-width="2" d="M380.953,-180.736C380.953,-138.641 380.953,-24 380.953,-24 380.953,-24 315.475,-24 315.475,-24"/>
<polygon fill="#ff4040" stroke="#ff4040" stroke-width="2" points="315.475,-20.5001 305.475,-24 315.475,-27.5001 315.475,-20.5001"/>
</g>
<!-- timeout_2&#45;&gt;RestructureData -->
<g id="edge19" class="edge"><title>timeout_2&#45;&gt;RestructureData</title>
<path fill="none" stroke="forestgreen" stroke-width="2" d="M323.047,-192.942C323.047,-192.942 323.047,-118.166 323.047,-118.166"/>
<polygon fill="forestgreen" stroke="forestgreen" stroke-width="2" points="326.547,-118.166 323.047,-108.166 319.547,-118.166 326.547,-118.166"/>
</g>
<!-- OpCompleted -->
<g id="node13" class="node"><title>OpCompleted</title>
<polygon fill="none" stroke="black" points="559.5,-286 466.5,-286 466.5,-250 559.5,-250 559.5,-286"/>
<text text-anchor="middle" x="513" y="-264.3" font-family="Times,serif" font-size="14.00">OpCompleted</text>
</g>
<!-- WriteToDisk&#45;&gt;OpCompleted -->
<g id="edge12" class="edge"><title>WriteToDisk&#45;&gt;OpCompleted</title>
<path fill="none" stroke="black" stroke-width="2" d="M403.502,-340C419.991,-340 434.75,-340 434.75,-340 434.75,-340 434.75,-268 434.75,-268 434.75,-268 456.126,-268 456.126,-268"/>
<polygon fill="black" stroke="black" stroke-width="2" points="456.126,-271.5 466.126,-268 456.126,-264.5 456.126,-271.5"/>
</g>
<!-- TransactionalTraffic -->
<g id="node16" class="node"><title>TransactionalTraffic</title>
<polygon fill="none" stroke="black" points="430,-286 302,-286 302,-250 430,-250 430,-286"/>
<text text-anchor="middle" x="366" y="-264.3" font-family="Times,serif" font-size="14.00">TransactionalTraffic</text>
</g>
<!-- WriteToDisk&#45;&gt;TransactionalTraffic -->
<g id="edge16" class="edge"><title>WriteToDisk&#45;&gt;TransactionalTraffic</title>
<path fill="none" stroke="black" stroke-width="2" d="M359,-321.831C359,-321.831 359,-296.413 359,-296.413"/>
<polygon fill="black" stroke="black" stroke-width="2" points="362.5,-296.413 359,-286.413 355.5,-296.413 362.5,-296.413"/>
</g>
<!-- SendAck -->
<g id="node14" class="node"><title>SendAck</title>
<polygon fill="none" stroke="black" points="539,-214 473,-214 473,-178 539,-178 539,-214"/>
<text text-anchor="middle" x="506" y="-192.3" font-family="Times,serif" font-size="14.00">SendAck</text>
</g>
<!-- OpCompleted&#45;&gt;SendAck -->
<g id="edge13" class="edge"><title>OpCompleted&#45;&gt;SendAck</title>
<path fill="none" stroke="black" stroke-width="2" d="M506,-249.831C506,-249.831 506,-224.413 506,-224.413"/>
<polygon fill="black" stroke="black" stroke-width="2" points="509.5,-224.413 506,-214.413 502.5,-224.413 509.5,-224.413"/>
</g>
<!-- SendAck&#45;&gt;end -->
<g id="edge21" class="edge"><title>SendAck&#45;&gt;end</title>
<path fill="none" stroke="black" stroke-width="2" d="M506,-177.685C506,-131.144 506,-12 506,-12 506,-12 315.486,-12 315.486,-12"/>
<polygon fill="black" stroke="black" stroke-width="2" points="315.486,-8.5001 305.486,-12 315.486,-15.5001 315.486,-8.5001"/>
</g>
<!-- WriteMetaToDHT&#45;&gt;OpCompleted -->
<g id="edge15" class="edge"><title>WriteMetaToDHT&#45;&gt;OpCompleted</title>
<path fill="none" stroke="black" stroke-width="2" d="M512.5,-321.831C512.5,-321.831 512.5,-296.413 512.5,-296.413"/>
<polygon fill="black" stroke="black" stroke-width="2" points="516,-296.413 512.5,-286.413 509,-296.413 516,-296.413"/>
</g>
<!-- TransactionalTraffic&#45;&gt;timeout_2 -->
<g id="edge17" class="edge"><title>TransactionalTraffic&#45;&gt;timeout_2</title>
<g id="a_edge17"><a xlink:title="Calls to multiple nodes">
<path fill="none" stroke="black" stroke-width="2" d="M372,-249.831C368,-249.831 368,-224.413 372,-224.413"/>
<path fill="none" stroke="none" stroke-width="2" d="M372,-249.831C370,-249.831 370,-224.413 372,-224.413"/>
<path fill="none" stroke="black" stroke-width="2" d="M372,-249.831C372,-249.831 372,-224.413 372,-224.413"/>
<path fill="none" stroke="none" stroke-width="2" d="M372,-249.831C374,-249.831 374,-224.413 372,-224.413"/>
<path fill="none" stroke="black" stroke-width="2" d="M372,-249.831C376,-249.831 376,-224.413 372,-224.413"/>
<polygon fill="black" stroke="black" stroke-width="2" points="375.5,-224.413 372,-214.413 368.5,-224.413 375.5,-224.413"/>
</a>
</g>
</g>
</g>
</svg>
