<?xml version="1.0" encoding="UTF-8" standalone="no"?>
<!DOCTYPE svg PUBLIC "-//W3C//DTD SVG 1.1//EN"
 "http://www.w3.org/Graphics/SVG/1.1/DTD/svg11.dtd">
<!-- Generated by graphviz version 2.38.0 (20140413.2041)
 -->
<!-- Title: %3 Pages: 1 -->
<svg width="958pt" height="1129pt"
 viewBox="0.00 0.00 958.00 1128.68" xmlns="http://www.w3.org/2000/svg" xmlns:xlink="http://www.w3.org/1999/xlink">
<g id="graph0" class="graph" transform="scale(1 1) rotate(0) translate(4 1124.68)">
<title>%3</title>
<polygon fill="white" stroke="none" points="-4,4 -4,-1124.68 954,-1124.68 954,4 -4,4"/>
<g id="clust1" class="cluster"><title>cluster_0</title>
<polygon fill="none" stroke="black" stroke-dasharray="5,2" points="678,-116 678,-441 942,-441 942,-116 678,-116"/>
<text text-anchor="middle" x="896" y="-123.8" font-family="Times,serif" font-size="14.00">Read Request</text>
</g>
<g id="clust2" class="cluster"><title>cluster</title>
<polygon fill="none" stroke="darkviolet" stroke-dasharray="5,2" points="686,-147 686,-297 804,-297 804,-147 686,-147"/>
<text text-anchor="middle" x="729" y="-154.8" font-family="Times,serif" font-size="14.00">SendAnswer</text>
</g>
<g id="clust3" class="cluster"><title>cluster</title>
<polygon fill="none" stroke="black" stroke-dasharray="5,2" points="8,-147 8,-1056.68 670,-1056.68 670,-147 8,-147"/>
<text text-anchor="middle" x="339" y="-154.8" font-family="Times,serif" font-size="14.00">Write Request</text>
</g>
<g id="clust4" class="cluster"><title>cluster_propagation</title>
<polygon fill="none" stroke="black" stroke-dasharray="5,2" points="144,-545.894 144,-836.894 278,-836.894 278,-545.894 144,-545.894"/>
<text text-anchor="middle" x="211" y="-553.694" font-family="Times,serif" font-size="14.00">Write Request</text>
</g>
<g id="clust5" class="cluster"><title>cluster_1</title>
<polygon fill="none" stroke="black" stroke-dasharray="5,2" points="424,-222 424,-692.894 662,-692.894 662,-222 424,-222"/>
<text text-anchor="middle" x="543" y="-229.8" font-family="Times,serif" font-size="14.00">Write Request</text>
</g>
<!-- start -->
<g id="node1" class="node"><title>start</title>
<ellipse fill="none" stroke="black" cx="502" cy="-1102.68" rx="27" ry="18"/>
<text text-anchor="middle" x="502" y="-1098.98" font-family="Times,serif" font-size="14.00">start</text>
</g>
<!-- Receive Read Request -->
<g id="node3" class="node"><title>Receive Read Request</title>
<polygon fill="none" stroke="black" points="825.5,-433 686.5,-433 686.5,-397 825.5,-397 825.5,-433"/>
<text text-anchor="middle" x="756" y="-411.3" font-family="Times,serif" font-size="14.00">Receive Read Request</text>
</g>
<!-- start&#45;&gt;Receive Read Request -->
<g id="edge1" class="edge"><title>start&#45;&gt;Receive Read Request</title>
<path fill="none" stroke="black" stroke-width="2" d="M529.182,-1102C594.708,-1102 756,-1102 756,-1102 756,-1102 756,-443.022 756,-443.022"/>
<polygon fill="black" stroke="black" stroke-width="2" points="759.5,-443.022 756,-433.022 752.5,-443.022 759.5,-443.022"/>
</g>
<!-- ReceiveWriteRequest -->
<g id="node10" class="node"><title>ReceiveWriteRequest</title>
<polygon fill="none" stroke="black" points="334.5,-1048.68 199.5,-1048.68 199.5,-1012.68 334.5,-1012.68 334.5,-1048.68"/>
<text text-anchor="middle" x="267" y="-1026.98" font-family="Times,serif" font-size="14.00">ReceiveWriteRequest</text>
</g>
<!-- start&#45;&gt;ReceiveWriteRequest -->
<g id="edge10" class="edge"><title>start&#45;&gt;ReceiveWriteRequest</title>
<path fill="none" stroke="black" stroke-width="2" d="M502,-1084.34C502,-1062.81 502,-1030 502,-1030 502,-1030 344.656,-1030 344.656,-1030"/>
<polygon fill="black" stroke="black" stroke-width="2" points="344.656,-1026.5 334.656,-1030 344.656,-1033.5 344.656,-1026.5"/>
</g>
<!-- end -->
<g id="node2" class="node"><title>end</title>
<ellipse fill="none" stroke="black" cx="663" cy="-18" rx="27" ry="18"/>
<text text-anchor="middle" x="663" y="-14.3" font-family="Times,serif" font-size="14.00">end</text>
</g>
<!-- LocalData -->
<g id="node5" class="node"><title>LocalData</title>
<polygon fill="none" stroke="black" points="756,-361 688.803,-343 756,-325 823.197,-343 756,-361"/>
<text text-anchor="middle" x="756" y="-339.3" font-family="Times,serif" font-size="14.00">LocalData</text>
</g>
<!-- Receive Read Request&#45;&gt;LocalData -->
<g id="edge2" class="edge"><title>Receive Read Request&#45;&gt;LocalData</title>
<path fill="none" stroke="black" stroke-width="2" d="M756,-396.831C756,-396.831 756,-371.413 756,-371.413"/>
<polygon fill="black" stroke="black" stroke-width="2" points="759.5,-371.413 756,-361.413 752.5,-371.413 759.5,-371.413"/>
</g>
<!-- timeout_1 -->
<g id="node4" class="node"><title>timeout_1</title>
<polygon fill="none" stroke="black" points="876,-214 818.186,-196 876,-178 933.814,-196 876,-214"/>
<text text-anchor="middle" x="876" y="-192.3" font-family="Times,serif" font-size="14.00">Timeout</text>
</g>
<!-- timeout_1&#45;&gt;end -->
<g id="edge9" class="edge"><title>timeout_1&#45;&gt;end</title>
<path fill="none" stroke="#ff4040" stroke-width="2" d="M895.302,-183.927C895.302,-142.992 895.302,-12 895.302,-12 895.302,-12 698.748,-12 698.748,-12"/>
<polygon fill="#ff4040" stroke="#ff4040" stroke-width="2" points="698.748,-8.5001 688.748,-12 698.748,-15.5001 698.748,-8.5001"/>
</g>
<!-- RestructureData -->
<g id="node9" class="node"><title>RestructureData</title>
<polygon fill="none" stroke="black" points="715,-108 611,-108 611,-72 715,-72 715,-108"/>
<text text-anchor="middle" x="663" y="-86.3" font-family="Times,serif" font-size="14.00">RestructureData</text>
</g>
<!-- timeout_1&#45;&gt;RestructureData -->
<g id="edge8" class="edge"><title>timeout_1&#45;&gt;RestructureData</title>
<path fill="none" stroke="forestgreen" stroke-width="2" d="M856.698,-183.84C856.698,-155.998 856.698,-90 856.698,-90 856.698,-90 725.162,-90 725.162,-90"/>
<polygon fill="forestgreen" stroke="forestgreen" stroke-width="2" points="725.162,-86.5001 715.162,-90 725.162,-93.5001 725.162,-86.5001"/>
</g>
<!-- CreatePacket -->
<g id="node6" class="node"><title>CreatePacket</title>
<polygon fill="none" stroke="black" points="792,-289 704,-289 704,-253 792,-253 792,-289"/>
<text text-anchor="middle" x="748" y="-267.3" font-family="Times,serif" font-size="14.00">CreatePacket</text>
</g>
<!-- LocalData&#45;&gt;CreatePacket -->
<g id="edge3" class="edge"><title>LocalData&#45;&gt;CreatePacket</title>
<path fill="none" stroke="forestgreen" stroke-width="2" d="M748,-327.021C748,-327.021 748,-299.218 748,-299.218"/>
<polygon fill="forestgreen" stroke="forestgreen" stroke-width="2" points="751.5,-299.218 748,-289.218 744.5,-299.218 751.5,-299.218"/>
</g>
<!-- SendRequest -->
<g id="node8" class="node"><title>SendRequest</title>
<polygon fill="none" stroke="black" points="909.5,-289 822.5,-289 822.5,-253 909.5,-253 909.5,-289"/>
<text text-anchor="middle" x="866" y="-267.3" font-family="Times,serif" font-size="14.00">SendRequest</text>
</g>
<!-- LocalData&#45;&gt;SendRequest -->
<g id="edge5" class="edge"><title>LocalData&#45;&gt;SendRequest</title>
<path fill="none" stroke="#ff4040" stroke-width="2" d="M807.047,-338.276C807.047,-322.258 807.047,-271 807.047,-271 807.047,-271 812.229,-271 812.229,-271"/>
<polygon fill="#ff4040" stroke="#ff4040" stroke-width="2" points="812.229,-274.5 822.229,-271 812.228,-267.5 812.229,-274.5"/>
</g>
<!-- TransmitPacket -->
<g id="node7" class="node"><title>TransmitPacket</title>
<polygon fill="none" stroke="black" points="796,-214 694,-214 694,-178 796,-178 796,-214"/>
<text text-anchor="middle" x="745" y="-192.3" font-family="Times,serif" font-size="14.00">TransmitPacket</text>
</g>
<!-- CreatePacket&#45;&gt;TransmitPacket -->
<g id="edge4" class="edge"><title>CreatePacket&#45;&gt;TransmitPacket</title>
<path fill="none" stroke="black" stroke-width="2" d="M748,-252.845C748,-252.845 748,-224.248 748,-224.248"/>
<polygon fill="black" stroke="black" stroke-width="2" points="751.5,-224.248 748,-214.248 744.5,-224.248 751.5,-224.248"/>
</g>
<!-- TransmitPacket&#45;&gt;end -->
<g id="edge7" class="edge"><title>TransmitPacket&#45;&gt;end</title>
<path fill="none" stroke="black" stroke-width="2" d="M755.5,-177.918C755.5,-133.758 755.5,-24 755.5,-24 755.5,-24 698.766,-24 698.766,-24"/>
<polygon fill="black" stroke="black" stroke-width="2" points="698.766,-20.5001 688.766,-24 698.766,-27.5001 698.766,-20.5001"/>
</g>
<!-- SendRequest&#45;&gt;timeout_1 -->
<g id="edge6" class="edge"><title>SendRequest&#45;&gt;timeout_1</title>
<path fill="none" stroke="black" stroke-width="2" d="M866,-252.845C866,-252.845 866,-220.963 866,-220.963"/>
<polygon fill="black" stroke="black" stroke-width="2" points="869.5,-220.963 866,-210.963 862.5,-220.963 869.5,-220.963"/>
</g>
<!-- RestructureData&#45;&gt;end -->
<g id="edge38" class="edge"><title>RestructureData&#45;&gt;end</title>
<path fill="none" stroke="black" stroke-width="2" d="M663,-71.8314C663,-71.8314 663,-46.4133 663,-46.4133"/>
<polygon fill="black" stroke="black" stroke-width="2" points="666.5,-46.4132 663,-36.4133 659.5,-46.4133 666.5,-46.4132"/>
</g>
<!-- waitJUMBO -->
<g id="node13" class="node"><title>waitJUMBO</title>
<ellipse fill="none" stroke="black" cx="228" cy="-920.789" rx="55.7903" ry="55.7903"/>
<text text-anchor="middle" x="228" y="-917.089" font-family="Times,serif" font-size="14.00">waitJUMBO</text>
</g>
<!-- ReceiveWriteRequest&#45;&gt;waitJUMBO -->
<g id="edge20" class="edge"><title>ReceiveWriteRequest&#45;&gt;waitJUMBO</title>
<path fill="none" stroke="black" stroke-width="2" d="M241.698,-1012.54C241.698,-1012.54 241.698,-985.037 241.698,-985.037"/>
<polygon fill="black" stroke="black" stroke-width="2" points="245.198,-985.037 241.698,-975.037 238.198,-985.037 245.198,-985.037"/>
</g>
<!-- WriteDataToDisk -->
<g id="node16" class="node"><title>WriteDataToDisk</title>
<polygon fill="none" stroke="black" points="408,-756.894 294,-756.894 294,-720.894 408,-720.894 408,-756.894"/>
<text text-anchor="middle" x="351" y="-735.194" font-family="Times,serif" font-size="14.00">WriteDataToDisk</text>
</g>
<!-- ReceiveWriteRequest&#45;&gt;WriteDataToDisk -->
<g id="edge12" class="edge"><title>ReceiveWriteRequest&#45;&gt;WriteDataToDisk</title>
<path fill="none" stroke="black" stroke-width="2" d="M314.25,-1012.43C314.25,-1012.43 314.25,-767.14 314.25,-767.14"/>
<polygon fill="black" stroke="black" stroke-width="2" points="317.75,-767.14 314.25,-757.14 310.75,-767.14 317.75,-767.14"/>
</g>
<!-- WriteMetaToDHT -->
<g id="node20" class="node"><title>WriteMetaToDHT</title>
<polygon fill="none" stroke="black" points="135.5,-756.894 16.5,-756.894 16.5,-720.894 135.5,-720.894 135.5,-756.894"/>
<text text-anchor="middle" x="76" y="-735.194" font-family="Times,serif" font-size="14.00">WriteMetaToDHT</text>
</g>
<!-- ReceiveWriteRequest&#45;&gt;WriteMetaToDHT -->
<g id="edge16" class="edge"><title>ReceiveWriteRequest&#45;&gt;WriteMetaToDHT</title>
<path fill="none" stroke="black" stroke-width="2" d="M199.392,-1030C144.447,-1030 76,-1030 76,-1030 76,-1030 76,-767.104 76,-767.104"/>
<polygon fill="black" stroke="black" stroke-width="2" points="79.5001,-767.104 76,-757.104 72.5001,-767.104 79.5001,-767.104"/>
</g>
<!-- timeout_2 -->
<g id="node11" class="node"><title>timeout_2</title>
<polygon fill="none" stroke="black" points="585,-214 527.186,-196 585,-178 642.814,-196 585,-214"/>
<text text-anchor="middle" x="585" y="-192.3" font-family="Times,serif" font-size="14.00">Timeout</text>
</g>
<!-- timeout_2&#45;&gt;end -->
<g id="edge36" class="edge"><title>timeout_2&#45;&gt;end</title>
<path fill="none" stroke="#ff4040" stroke-width="2" d="M569.047,-182.789C569.047,-142.513 569.047,-24 569.047,-24 569.047,-24 627.327,-24 627.327,-24"/>
<polygon fill="#ff4040" stroke="#ff4040" stroke-width="2" points="627.327,-27.5001 637.327,-24 627.327,-20.5001 627.327,-27.5001"/>
</g>
<!-- timeout_2&#45;&gt;RestructureData -->
<g id="edge37" class="edge"><title>timeout_2&#45;&gt;RestructureData</title>
<path fill="none" stroke="forestgreen" stroke-width="2" d="M626.953,-190.887C626.953,-190.887 626.953,-118.29 626.953,-118.29"/>
<polygon fill="forestgreen" stroke="forestgreen" stroke-width="2" points="630.454,-118.29 626.953,-108.29 623.454,-118.29 630.454,-118.29"/>
</g>
<!-- barrier -->
<g id="node12" class="node"><title>barrier</title>
<ellipse fill="none" stroke="black" cx="286" cy="-503.447" rx="34.394" ry="34.394"/>
<text text-anchor="middle" x="286" y="-499.747" font-family="Times,serif" font-size="14.00">barrier</text>
</g>
<!-- SendAck -->
<g id="node25" class="node"><title>SendAck</title>
<polygon fill="none" stroke="black" points="365,-433 299,-433 299,-397 365,-397 365,-433"/>
<text text-anchor="middle" x="332" y="-411.3" font-family="Times,serif" font-size="14.00">SendAck</text>
</g>
<!-- barrier&#45;&gt;SendAck -->
<g id="edge26" class="edge"><title>barrier&#45;&gt;SendAck</title>
<path fill="none" stroke="black" stroke-width="2" d="M309.723,-478.338C309.723,-478.338 309.723,-443.142 309.723,-443.142"/>
<polygon fill="black" stroke="black" stroke-width="2" points="313.224,-443.142 309.723,-433.142 306.224,-443.142 313.224,-443.142"/>
</g>
<!-- NetworkTransfer -->
<g id="node21" class="node"><title>NetworkTransfer</title>
<polygon fill="none" stroke="black" points="269,-828.894 159,-828.894 159,-792.894 269,-792.894 269,-828.894"/>
<text text-anchor="middle" x="214" y="-807.194" font-family="Times,serif" font-size="14.00">NetworkTransfer</text>
</g>
<!-- waitJUMBO&#45;&gt;NetworkTransfer -->
<g id="edge21" class="edge"><title>waitJUMBO&#45;&gt;NetworkTransfer</title>
<path fill="none" stroke="black" stroke-width="2" d="M220.552,-865.198C220.552,-865.198 220.552,-839.276 220.552,-839.276"/>
<polygon fill="black" stroke="black" stroke-width="2" points="224.053,-839.276 220.552,-829.276 217.053,-839.276 224.053,-839.276"/>
</g>
<!-- accessSmallDisks -->
<g id="node14" class="node"><title>accessSmallDisks</title>
<polygon fill="none" stroke="black" points="135,-612.894 17,-612.894 17,-576.894 135,-576.894 135,-612.894"/>
<text text-anchor="middle" x="76" y="-591.194" font-family="Times,serif" font-size="14.00">AccessSmallDisks</text>
</g>
<!-- accessSmallDisks&#45;&gt;barrier -->
<g id="edge19" class="edge"><title>accessSmallDisks&#45;&gt;barrier</title>
<path fill="none" stroke="black" stroke-width="2" d="M76,-576.739C76,-549.958 76,-503 76,-503 76,-503 241.323,-503 241.323,-503"/>
<polygon fill="black" stroke="black" stroke-width="2" points="241.323,-506.5 251.323,-503 241.323,-499.5 241.323,-506.5"/>
</g>
<!-- FUSE_Overhead_2 -->
<g id="node15" class="node"><title>FUSE_Overhead_2</title>
<polygon fill="none" stroke="black" points="129.5,-684.894 20.5,-684.894 20.5,-648.894 129.5,-648.894 129.5,-684.894"/>
<text text-anchor="middle" x="75" y="-663.194" font-family="Times,serif" font-size="14.00">FUSE_Overhead</text>
</g>
<!-- FUSE_Overhead_2&#45;&gt;accessSmallDisks -->
<g id="edge18" class="edge"><title>FUSE_Overhead_2&#45;&gt;accessSmallDisks</title>
<path fill="none" stroke="black" stroke-width="2" d="M75,-648.725C75,-648.725 75,-623.307 75,-623.307"/>
<polygon fill="black" stroke="black" stroke-width="2" points="78.5001,-623.307 75,-613.307 71.5001,-623.307 78.5001,-623.307"/>
</g>
<!-- TransactionalTraffic -->
<g id="node17" class="node"><title>TransactionalTraffic</title>
<polygon fill="none" stroke="black" points="560,-684.894 432,-684.894 432,-648.894 560,-648.894 560,-684.894"/>
<text text-anchor="middle" x="496" y="-663.194" font-family="Times,serif" font-size="14.00">TransactionalTraffic</text>
</g>
<!-- WriteDataToDisk&#45;&gt;TransactionalTraffic -->
<g id="edge11" class="edge"><title>WriteDataToDisk&#45;&gt;TransactionalTraffic</title>
<path fill="none" stroke="black" stroke-width="2" stroke-dasharray="5,2" d="M408.244,-738C431.723,-738 453.5,-738 453.5,-738 453.5,-738 453.5,-695.205 453.5,-695.205"/>
<polygon fill="black" stroke="black" stroke-width="2" points="453.5,-685.205 458,-695.205 454,-690.205 454,-695.205 453.5,-695.205 453,-695.205 453,-690.205 449,-695.206 453.5,-685.205 453.5,-685.205"/>
</g>
<!-- FUSE_Overhead -->
<g id="node18" class="node"><title>FUSE_Overhead</title>
<polygon fill="none" stroke="black" points="405.5,-684.894 296.5,-684.894 296.5,-648.894 405.5,-648.894 405.5,-684.894"/>
<text text-anchor="middle" x="351" y="-663.194" font-family="Times,serif" font-size="14.00">FUSE_Overhead</text>
</g>
<!-- WriteDataToDisk&#45;&gt;FUSE_Overhead -->
<g id="edge13" class="edge"><title>WriteDataToDisk&#45;&gt;FUSE_Overhead</title>
<path fill="none" stroke="black" stroke-width="2" d="M351,-720.725C351,-720.725 351,-695.307 351,-695.307"/>
<polygon fill="black" stroke="black" stroke-width="2" points="354.5,-695.307 351,-685.307 347.5,-695.307 354.5,-695.307"/>
</g>
<!-- SelectTarget -->
<g id="node28" class="node"><title>SelectTarget</title>
<polygon fill="none" stroke="black" points="537.5,-612.894 452.5,-612.894 452.5,-576.894 537.5,-576.894 537.5,-612.894"/>
<text text-anchor="middle" x="495" y="-591.194" font-family="Times,serif" font-size="14.00">SelectTarget</text>
</g>
<!-- TransactionalTraffic&#45;&gt;SelectTarget -->
<g id="edge27" class="edge"><title>TransactionalTraffic&#45;&gt;SelectTarget</title>
<path fill="none" stroke="black" stroke-width="2" d="M495,-648.725C495,-648.725 495,-623.307 495,-623.307"/>
<polygon fill="black" stroke="black" stroke-width="2" points="498.5,-623.307 495,-613.307 491.5,-623.307 498.5,-623.307"/>
</g>
<!-- GenerateParity -->
<g id="node31" class="node"><title>GenerateParity</title>
<polygon fill="none" stroke="black" points="654,-521.447 556,-521.447 556,-485.447 654,-485.447 654,-521.447"/>
<text text-anchor="middle" x="605" y="-499.747" font-family="Times,serif" font-size="14.00">GenerateParity</text>
</g>
<!-- TransactionalTraffic&#45;&gt;GenerateParity -->
<g id="edge32" class="edge"><title>TransactionalTraffic&#45;&gt;GenerateParity</title>
<path fill="none" stroke="black" stroke-width="2" d="M547.771,-648.728C547.771,-606.056 547.771,-503 547.771,-503 547.771,-503 548.567,-503 548.567,-503"/>
<polygon fill="black" stroke="black" stroke-width="2" points="545.729,-506.5 555.729,-503 545.729,-499.5 545.729,-506.5"/>
</g>
<!-- AccessCapableDisks -->
<g id="node19" class="node"><title>AccessCapableDisks</title>
<polygon fill="none" stroke="black" points="416,-612.894 286,-612.894 286,-576.894 416,-576.894 416,-612.894"/>
<text text-anchor="middle" x="351" y="-591.194" font-family="Times,serif" font-size="14.00">AccessCapableDisks</text>
</g>
<!-- FUSE_Overhead&#45;&gt;AccessCapableDisks -->
<g id="edge14" class="edge"><title>FUSE_Overhead&#45;&gt;AccessCapableDisks</title>
<path fill="none" stroke="black" stroke-width="2" d="M351,-648.725C351,-648.725 351,-623.307 351,-623.307"/>
<polygon fill="black" stroke="black" stroke-width="2" points="354.5,-623.307 351,-613.307 347.5,-623.307 354.5,-623.307"/>
</g>
<!-- AccessCapableDisks&#45;&gt;barrier -->
<g id="edge15" class="edge"><title>AccessCapableDisks&#45;&gt;barrier</title>
<path fill="none" stroke="black" stroke-width="2" d="M303.223,-576.827C303.223,-576.827 303.223,-543.356 303.223,-543.356"/>
<polygon fill="black" stroke="black" stroke-width="2" points="306.724,-543.356 303.223,-533.356 299.724,-543.357 306.724,-543.356"/>
</g>
<!-- WriteMetaToDHT&#45;&gt;FUSE_Overhead_2 -->
<g id="edge17" class="edge"><title>WriteMetaToDHT&#45;&gt;FUSE_Overhead_2</title>
<path fill="none" stroke="black" stroke-width="2" d="M75,-720.725C75,-720.725 75,-695.307 75,-695.307"/>
<polygon fill="black" stroke="black" stroke-width="2" points="78.5001,-695.307 75,-685.307 71.5001,-695.307 78.5001,-695.307"/>
</g>
<!-- FUSE -->
<g id="node22" class="node"><title>FUSE</title>
<polygon fill="none" stroke="black" points="268.5,-756.894 159.5,-756.894 159.5,-720.894 268.5,-720.894 268.5,-756.894"/>
<text text-anchor="middle" x="214" y="-735.194" font-family="Times,serif" font-size="14.00">FUSE_Overhead</text>
</g>
<!-- NetworkTransfer&#45;&gt;FUSE -->
<g id="edge22" class="edge"><title>NetworkTransfer&#45;&gt;FUSE</title>
<path fill="none" stroke="black" stroke-width="2" d="M214,-792.725C214,-792.725 214,-767.307 214,-767.307"/>
<polygon fill="black" stroke="black" stroke-width="2" points="217.5,-767.307 214,-757.307 210.5,-767.307 217.5,-767.307"/>
</g>
<!-- AccessSmallDisks -->
<g id="node24" class="node"><title>AccessSmallDisks</title>
<polygon fill="none" stroke="black" points="270,-684.894 152,-684.894 152,-648.894 270,-648.894 270,-684.894"/>
<text text-anchor="middle" x="211" y="-663.194" font-family="Times,serif" font-size="14.00">AccessSmallDisks</text>
</g>
<!-- FUSE&#45;&gt;AccessSmallDisks -->
<g id="edge23" class="edge"><title>FUSE&#45;&gt;AccessSmallDisks</title>
<path fill="none" stroke="black" stroke-width="2" d="M214,-720.725C214,-720.725 214,-695.307 214,-695.307"/>
<polygon fill="black" stroke="black" stroke-width="2" points="217.5,-695.307 214,-685.307 210.5,-695.307 217.5,-695.307"/>
</g>
<!-- send_ack -->
<g id="node23" class="node"><title>send_ack</title>
<polygon fill="none" stroke="black" points="254,-612.894 188,-612.894 188,-576.894 254,-576.894 254,-612.894"/>
<text text-anchor="middle" x="221" y="-591.194" font-family="Times,serif" font-size="14.00">SendAck</text>
</g>
<!-- send_ack&#45;&gt;barrier -->
<g id="edge25" class="edge"><title>send_ack&#45;&gt;barrier</title>
<path fill="none" stroke="black" stroke-width="2" d="M254.095,-594C258.757,-594 262,-594 262,-594 262,-594 262,-538.191 262,-538.191"/>
<polygon fill="black" stroke="black" stroke-width="2" points="265.5,-538.191 262,-528.191 258.5,-538.191 265.5,-538.191"/>
</g>
<!-- AccessSmallDisks&#45;&gt;send_ack -->
<g id="edge24" class="edge"><title>AccessSmallDisks&#45;&gt;send_ack</title>
<path fill="none" stroke="black" stroke-width="2" d="M221,-648.725C221,-648.725 221,-623.307 221,-623.307"/>
<polygon fill="black" stroke="black" stroke-width="2" points="224.5,-623.307 221,-613.307 217.5,-623.307 224.5,-623.307"/>
</g>
<!-- SendAck&#45;&gt;end -->
<g id="edge39" class="edge"><title>SendAck&#45;&gt;end</title>
<path fill="none" stroke="black" stroke-width="2" d="M332,-396.901C332,-318.484 332,-12 332,-12 332,-12 627.302,-12 627.302,-12"/>
<polygon fill="black" stroke="black" stroke-width="2" points="627.302,-15.5001 637.302,-12 627.302,-8.5001 627.302,-15.5001"/>
</g>
<!-- endTrans -->
<g id="node26" class="node"><title>endTrans</title>
<polygon fill="none" stroke="black" points="612,-289 558,-289 558,-253 612,-253 612,-289"/>
<text text-anchor="middle" x="585" y="-267.3" font-family="Times,serif" font-size="14.00">end</text>
</g>
<!-- endTrans&#45;&gt;timeout_2 -->
<g id="edge35" class="edge"><title>endTrans&#45;&gt;timeout_2</title>
<g id="a_edge35"><a xlink:title="Calls to multiple nodes">
<path fill="none" stroke="black" stroke-width="2" d="M585,-252.845C581,-252.845 581,-224.248 585,-224.248"/>
<path fill="none" stroke="none" stroke-width="2" d="M585,-252.845C583,-252.845 583,-224.248 585,-224.248"/>
<path fill="none" stroke="black" stroke-width="2" d="M585,-252.845C585,-252.845 585,-224.248 585,-224.248"/>
<path fill="none" stroke="none" stroke-width="2" d="M585,-252.845C587,-252.845 587,-224.248 585,-224.248"/>
<path fill="none" stroke="black" stroke-width="2" d="M585,-252.845C589,-252.845 589,-224.248 585,-224.248"/>
<polygon fill="black" stroke="black" stroke-width="2" points="588.5,-224.248 585,-214.248 581.5,-224.248 588.5,-224.248"/>
</a>
</g>
</g>
<!-- TransTimeout -->
<g id="node27" class="node"><title>TransTimeout</title>
<polygon fill="none" stroke="black" points="495,-433 437.186,-415 495,-397 552.814,-415 495,-433"/>
<text text-anchor="middle" x="495" y="-411.3" font-family="Times,serif" font-size="14.00">Timeout</text>
</g>
<!-- TransTimeout&#45;&gt;SelectTarget -->
<g id="edge31" class="edge"><title>TransTimeout&#45;&gt;SelectTarget</title>
<path fill="none" stroke="green" stroke-width="2" d="M542.636,-418.416C542.636,-443.163 542.636,-594 542.636,-594 542.636,-594 542.126,-594 542.126,-594"/>
<polygon fill="green" stroke="green" stroke-width="2" points="547.538,-590.5 537.538,-594 547.538,-597.5 547.538,-590.5"/>
</g>
<!-- SendData -->
<g id="node30" class="node"><title>SendData</title>
<polygon fill="none" stroke="black" points="619.5,-361 550.5,-361 550.5,-325 619.5,-325 619.5,-361"/>
<text text-anchor="middle" x="585" y="-339.3" font-family="Times,serif" font-size="14.00">SendData</text>
</g>
<!-- TransTimeout&#45;&gt;SendData -->
<g id="edge30" class="edge"><title>TransTimeout&#45;&gt;SendData</title>
<path fill="none" stroke="red" stroke-width="2" d="M538.797,-410.276C538.797,-394.258 538.797,-343 538.797,-343 538.797,-343 540.456,-343 540.456,-343"/>
<polygon fill="red" stroke="red" stroke-width="2" points="540.456,-346.5 550.456,-343 540.456,-339.5 540.456,-346.5"/>
</g>
<!-- PingTarget -->
<g id="node29" class="node"><title>PingTarget</title>
<polygon fill="none" stroke="black" points="533.5,-521.447 456.5,-521.447 456.5,-485.447 533.5,-485.447 533.5,-521.447"/>
<text text-anchor="middle" x="495" y="-499.747" font-family="Times,serif" font-size="14.00">PingTarget</text>
</g>
<!-- SelectTarget&#45;&gt;PingTarget -->
<g id="edge28" class="edge"><title>SelectTarget&#45;&gt;PingTarget</title>
<path fill="none" stroke="black" stroke-width="2" d="M495,-576.827C495,-576.827 495,-531.476 495,-531.476"/>
<polygon fill="black" stroke="black" stroke-width="2" points="498.5,-531.476 495,-521.476 491.5,-531.476 498.5,-531.476"/>
</g>
<!-- PingTarget&#45;&gt;TransTimeout -->
<g id="edge29" class="edge"><title>PingTarget&#45;&gt;TransTimeout</title>
<path fill="none" stroke="black" stroke-width="2" d="M495,-485.121C495,-485.121 495,-443 495,-443"/>
<polygon fill="black" stroke="black" stroke-width="2" points="498.5,-443 495,-433 491.5,-443 498.5,-443"/>
</g>
<!-- SendData&#45;&gt;endTrans -->
<g id="edge34" class="edge"><title>SendData&#45;&gt;endTrans</title>
<path fill="none" stroke="black" stroke-width="2" d="M585,-324.831C585,-324.831 585,-299.413 585,-299.413"/>
<polygon fill="black" stroke="black" stroke-width="2" points="588.5,-299.413 585,-289.413 581.5,-299.413 588.5,-299.413"/>
</g>
<!-- GenerateParity&#45;&gt;SendData -->
<g id="edge33" class="edge"><title>GenerateParity&#45;&gt;SendData</title>
<path fill="none" stroke="black" stroke-width="2" d="M587.75,-485.354C587.75,-485.354 587.75,-371.273 587.75,-371.273"/>
<polygon fill="black" stroke="black" stroke-width="2" points="591.25,-371.273 587.75,-361.273 584.25,-371.274 591.25,-371.273"/>
</g>
</g>
</svg>
