<?xml version="1.0" encoding="UTF-8" standalone="no"?>
<!DOCTYPE svg PUBLIC "-//W3C//DTD SVG 1.1//EN"
 "http://www.w3.org/Graphics/SVG/1.1/DTD/svg11.dtd">
<!-- Generated by graphviz version 2.38.0 (20140413.2041)
 -->
<!-- Title: %3 Pages: 1 -->
<svg width="966pt" height="1132pt"
 viewBox="0.00 0.00 966.00 1131.68" xmlns="http://www.w3.org/2000/svg" xmlns:xlink="http://www.w3.org/1999/xlink">
<g id="graph0" class="graph" transform="scale(1 1) rotate(0) translate(4 1127.68)">
<title>%3</title>
<polygon fill="white" stroke="none" points="-4,4 -4,-1127.68 962,-1127.68 962,4 -4,4"/>
<g id="clust1" class="cluster"><title>cluster_0</title>
<polygon fill="none" stroke="black" stroke-dasharray="5,2" points="690,-44 690,-444 950,-444 950,-44 690,-44"/>
<text text-anchor="middle" x="904" y="-51.8" font-family="Times,serif" font-size="14.00">Read Request</text>
</g>
<g id="clust2" class="cluster"><title>cluster</title>
<polygon fill="none" stroke="darkviolet" stroke-dasharray="5,2" points="822,-75 822,-300 942,-300 942,-75 822,-75"/>
<text text-anchor="middle" x="865" y="-82.8" font-family="Times,serif" font-size="14.00">SendAnswer</text>
</g>
<g id="clust3" class="cluster"><title>cluster</title>
<polygon fill="none" stroke="black" stroke-dasharray="5,2" points="8,-150 8,-1059.68 682,-1059.68 682,-150 8,-150"/>
<text text-anchor="middle" x="345" y="-157.8" font-family="Times,serif" font-size="14.00">Write Request</text>
</g>
<g id="clust4" class="cluster"><title>cluster_propagation</title>
<polygon fill="none" stroke="black" stroke-dasharray="5,2" points="16,-548.894 16,-839.894 150,-839.894 150,-548.894 16,-548.894"/>
<text text-anchor="middle" x="83" y="-556.694" font-family="Times,serif" font-size="14.00">Write Request</text>
</g>
<g id="clust5" class="cluster"><title>cluster_1</title>
<polygon fill="none" stroke="black" stroke-dasharray="5,2" points="436,-225 436,-695.894 674,-695.894 674,-225 436,-225"/>
<text text-anchor="middle" x="555" y="-232.8" font-family="Times,serif" font-size="14.00">Write Request</text>
</g>
<!-- start -->
<g id="node1" class="node"><title>start</title>
<ellipse fill="none" stroke="black" cx="513" cy="-1105.68" rx="27" ry="18"/>
<text text-anchor="middle" x="513" y="-1101.98" font-family="Times,serif" font-size="14.00">start</text>
</g>
<!-- Receive Read Request -->
<g id="node3" class="node"><title>Receive Read Request</title>
<polygon fill="none" stroke="black" points="837.5,-436 698.5,-436 698.5,-400 837.5,-400 837.5,-436"/>
<text text-anchor="middle" x="768" y="-414.3" font-family="Times,serif" font-size="14.00">Receive Read Request</text>
</g>
<!-- start&#45;&gt;Receive Read Request -->
<g id="edge1" class="edge"><title>start&#45;&gt;Receive Read Request</title>
<path fill="none" stroke="black" stroke-width="2" d="M540.289,-1105C606.073,-1105 768,-1105 768,-1105 768,-1105 768,-446.022 768,-446.022"/>
<polygon fill="black" stroke="black" stroke-width="2" points="771.5,-446.022 768,-436.022 764.5,-446.022 771.5,-446.022"/>
</g>
<!-- ReceiveWriteRequest -->
<g id="node11" class="node"><title>ReceiveWriteRequest</title>
<polygon fill="none" stroke="black" points="358.5,-1051.68 223.5,-1051.68 223.5,-1015.68 358.5,-1015.68 358.5,-1051.68"/>
<text text-anchor="middle" x="291" y="-1029.98" font-family="Times,serif" font-size="14.00">ReceiveWriteRequest</text>
</g>
<!-- start&#45;&gt;ReceiveWriteRequest -->
<g id="edge11" class="edge"><title>start&#45;&gt;ReceiveWriteRequest</title>
<path fill="none" stroke="black" stroke-width="2" d="M513,-1087.34C513,-1065.81 513,-1033 513,-1033 513,-1033 368.512,-1033 368.512,-1033"/>
<polygon fill="black" stroke="black" stroke-width="2" points="368.512,-1029.5 358.512,-1033 368.511,-1036.5 368.512,-1029.5"/>
</g>
<!-- end -->
<g id="node2" class="node"><title>end</title>
<ellipse fill="none" stroke="black" cx="630" cy="-18" rx="27" ry="18"/>
<text text-anchor="middle" x="630" y="-14.3" font-family="Times,serif" font-size="14.00">end</text>
</g>
<!-- LocalData -->
<g id="node5" class="node"><title>LocalData</title>
<polygon fill="none" stroke="black" points="768,-364 700.803,-346 768,-328 835.197,-346 768,-364"/>
<text text-anchor="middle" x="768" y="-342.3" font-family="Times,serif" font-size="14.00">LocalData</text>
</g>
<!-- Receive Read Request&#45;&gt;LocalData -->
<g id="edge2" class="edge"><title>Receive Read Request&#45;&gt;LocalData</title>
<path fill="none" stroke="forestgreen" stroke-width="2" d="M768,-399.831C768,-399.831 768,-374.413 768,-374.413"/>
<polygon fill="forestgreen" stroke="forestgreen" stroke-width="2" points="771.5,-374.413 768,-364.413 764.5,-374.413 771.5,-374.413"/>
</g>
<!-- timeout_1 -->
<g id="node4" class="node"><title>timeout_1</title>
<polygon fill="none" stroke="black" points="756,-217 698.186,-199 756,-181 813.814,-199 756,-217"/>
<text text-anchor="middle" x="756" y="-195.3" font-family="Times,serif" font-size="14.00">Timeout</text>
</g>
<!-- timeout_1&#45;&gt;end -->
<g id="edge10" class="edge"><title>timeout_1&#45;&gt;end</title>
<path fill="none" stroke="#ff4040" stroke-width="2" d="M756,-180.931C756,-136.219 756,-24 756,-24 756,-24 665.498,-24 665.498,-24"/>
<polygon fill="#ff4040" stroke="#ff4040" stroke-width="2" points="665.498,-20.5001 655.498,-24 665.498,-27.5001 665.498,-20.5001"/>
</g>
<!-- RestructureData -->
<g id="node10" class="node"><title>RestructureData</title>
<polygon fill="none" stroke="black" points="682,-142 578,-142 578,-106 682,-106 682,-142"/>
<text text-anchor="middle" x="630" y="-120.3" font-family="Times,serif" font-size="14.00">RestructureData</text>
</g>
<!-- timeout_1&#45;&gt;RestructureData -->
<g id="edge9" class="edge"><title>timeout_1&#45;&gt;RestructureData</title>
<path fill="none" stroke="forestgreen" stroke-width="2" d="M698.159,-199C684.59,-199 674,-199 674,-199 674,-199 674,-152.155 674,-152.155"/>
<polygon fill="forestgreen" stroke="forestgreen" stroke-width="2" points="677.5,-152.155 674,-142.155 670.5,-152.155 677.5,-152.155"/>
</g>
<!-- ReadFromHDD -->
<g id="node6" class="node"><title>ReadFromHDD</title>
<polygon fill="none" stroke="black" points="934,-292 830,-292 830,-256 934,-256 934,-292"/>
<text text-anchor="middle" x="882" y="-270.3" font-family="Times,serif" font-size="14.00">ReadFromHDD</text>
</g>
<!-- LocalData&#45;&gt;ReadFromHDD -->
<g id="edge3" class="edge"><title>LocalData&#45;&gt;ReadFromHDD</title>
<path fill="none" stroke="forestgreen" stroke-width="2" d="M821.953,-342.129C821.953,-327.174 821.953,-274 821.953,-274 821.953,-274 822.738,-274 822.738,-274"/>
<polygon fill="forestgreen" stroke="forestgreen" stroke-width="2" points="819.804,-277.5 829.803,-274 819.803,-270.5 819.804,-277.5"/>
</g>
<!-- SendRequest -->
<g id="node9" class="node"><title>SendRequest</title>
<polygon fill="none" stroke="black" points="803.5,-292 716.5,-292 716.5,-256 803.5,-256 803.5,-292"/>
<text text-anchor="middle" x="760" y="-270.3" font-family="Times,serif" font-size="14.00">SendRequest</text>
</g>
<!-- LocalData&#45;&gt;SendRequest -->
<g id="edge6" class="edge"><title>LocalData&#45;&gt;SendRequest</title>
<path fill="none" stroke="#ff4040" stroke-width="2" d="M760,-330.021C760,-330.021 760,-302.218 760,-302.218"/>
<polygon fill="#ff4040" stroke="#ff4040" stroke-width="2" points="763.5,-302.218 760,-292.218 756.5,-302.218 763.5,-302.218"/>
</g>
<!-- CreatePacket -->
<g id="node7" class="node"><title>CreatePacket</title>
<polygon fill="none" stroke="black" points="925,-217 837,-217 837,-181 925,-181 925,-217"/>
<text text-anchor="middle" x="881" y="-195.3" font-family="Times,serif" font-size="14.00">CreatePacket</text>
</g>
<!-- ReadFromHDD&#45;&gt;CreatePacket -->
<g id="edge4" class="edge"><title>ReadFromHDD&#45;&gt;CreatePacket</title>
<path fill="none" stroke="black" stroke-width="2" d="M881,-255.845C881,-255.845 881,-227.248 881,-227.248"/>
<polygon fill="black" stroke="black" stroke-width="2" points="884.5,-227.248 881,-217.248 877.5,-227.248 884.5,-227.248"/>
</g>
<!-- TransmitPacket -->
<g id="node8" class="node"><title>TransmitPacket</title>
<polygon fill="none" stroke="black" points="932,-142 830,-142 830,-106 932,-106 932,-142"/>
<text text-anchor="middle" x="881" y="-120.3" font-family="Times,serif" font-size="14.00">TransmitPacket</text>
</g>
<!-- CreatePacket&#45;&gt;TransmitPacket -->
<g id="edge5" class="edge"><title>CreatePacket&#45;&gt;TransmitPacket</title>
<path fill="none" stroke="black" stroke-width="2" d="M881,-180.845C881,-180.845 881,-152.248 881,-152.248"/>
<polygon fill="black" stroke="black" stroke-width="2" points="884.5,-152.248 881,-142.248 877.5,-152.248 884.5,-152.248"/>
</g>
<!-- TransmitPacket&#45;&gt;end -->
<g id="edge8" class="edge"><title>TransmitPacket&#45;&gt;end</title>
<path fill="none" stroke="black" stroke-width="2" d="M881,-105.505C881,-73.6943 881,-12 881,-12 881,-12 665.916,-12 665.916,-12"/>
<polygon fill="black" stroke="black" stroke-width="2" points="665.916,-8.5001 655.916,-12 665.916,-15.5001 665.916,-8.5001"/>
</g>
<!-- SendRequest&#45;&gt;timeout_1 -->
<g id="edge7" class="edge"><title>SendRequest&#45;&gt;timeout_1</title>
<path fill="none" stroke="black" stroke-width="2" d="M760,-255.845C760,-255.845 760,-225.96 760,-225.96"/>
<polygon fill="black" stroke="black" stroke-width="2" points="763.5,-225.96 760,-215.96 756.5,-225.96 763.5,-225.96"/>
</g>
<!-- RestructureData&#45;&gt;end -->
<g id="edge39" class="edge"><title>RestructureData&#45;&gt;end</title>
<path fill="none" stroke="black" stroke-width="2" d="M630,-105.536C630,-105.536 630,-46.2522 630,-46.2522"/>
<polygon fill="black" stroke="black" stroke-width="2" points="633.5,-46.2522 630,-36.2522 626.5,-46.2522 633.5,-46.2522"/>
</g>
<!-- waitJUMBO -->
<g id="node14" class="node"><title>waitJUMBO</title>
<ellipse fill="none" stroke="black" cx="142" cy="-923.789" rx="55.7903" ry="55.7903"/>
<text text-anchor="middle" x="142" y="-920.089" font-family="Times,serif" font-size="14.00">waitJUMBO</text>
</g>
<!-- ReceiveWriteRequest&#45;&gt;waitJUMBO -->
<g id="edge21" class="edge"><title>ReceiveWriteRequest&#45;&gt;waitJUMBO</title>
<path fill="none" stroke="black" stroke-width="2" d="M223.475,-1033C184.052,-1033 142,-1033 142,-1033 142,-1033 142,-989.994 142,-989.994"/>
<polygon fill="black" stroke="black" stroke-width="2" points="145.5,-989.994 142,-979.994 138.5,-989.994 145.5,-989.994"/>
</g>
<!-- WriteDataToDisk -->
<g id="node17" class="node"><title>WriteDataToDisk</title>
<polygon fill="none" stroke="black" points="420,-759.894 306,-759.894 306,-723.894 420,-723.894 420,-759.894"/>
<text text-anchor="middle" x="363" y="-738.194" font-family="Times,serif" font-size="14.00">WriteDataToDisk</text>
</g>
<!-- ReceiveWriteRequest&#45;&gt;WriteDataToDisk -->
<g id="edge13" class="edge"><title>ReceiveWriteRequest&#45;&gt;WriteDataToDisk</title>
<path fill="none" stroke="black" stroke-width="2" d="M332.25,-1015.43C332.25,-1015.43 332.25,-770.14 332.25,-770.14"/>
<polygon fill="black" stroke="black" stroke-width="2" points="335.75,-770.14 332.25,-760.14 328.75,-770.14 335.75,-770.14"/>
</g>
<!-- WriteMetaToDHT -->
<g id="node21" class="node"><title>WriteMetaToDHT</title>
<polygon fill="none" stroke="black" points="281.5,-759.894 162.5,-759.894 162.5,-723.894 281.5,-723.894 281.5,-759.894"/>
<text text-anchor="middle" x="222" y="-738.194" font-family="Times,serif" font-size="14.00">WriteMetaToDHT</text>
</g>
<!-- ReceiveWriteRequest&#45;&gt;WriteMetaToDHT -->
<g id="edge17" class="edge"><title>ReceiveWriteRequest&#45;&gt;WriteMetaToDHT</title>
<path fill="none" stroke="black" stroke-width="2" d="M252.5,-1015.43C252.5,-1015.43 252.5,-770.14 252.5,-770.14"/>
<polygon fill="black" stroke="black" stroke-width="2" points="256,-770.14 252.5,-760.14 249,-770.14 256,-770.14"/>
</g>
<!-- timeout_2 -->
<g id="node12" class="node"><title>timeout_2</title>
<polygon fill="none" stroke="black" points="573,-217 515.186,-199 573,-181 630.814,-199 573,-217"/>
<text text-anchor="middle" x="573" y="-195.3" font-family="Times,serif" font-size="14.00">Timeout</text>
</g>
<!-- timeout_2&#45;&gt;end -->
<g id="edge37" class="edge"><title>timeout_2&#45;&gt;end</title>
<path fill="none" stroke="#ff4040" stroke-width="2" d="M546.547,-189.09C546.547,-152.07 546.547,-24 546.547,-24 546.547,-24 594.508,-24 594.508,-24"/>
<polygon fill="#ff4040" stroke="#ff4040" stroke-width="2" points="594.508,-27.5001 604.508,-24 594.508,-20.5001 594.508,-27.5001"/>
</g>
<!-- timeout_2&#45;&gt;RestructureData -->
<g id="edge38" class="edge"><title>timeout_2&#45;&gt;RestructureData</title>
<path fill="none" stroke="forestgreen" stroke-width="2" d="M604.453,-190.687C604.453,-190.687 604.453,-152.031 604.453,-152.031"/>
<polygon fill="forestgreen" stroke="forestgreen" stroke-width="2" points="607.954,-152.031 604.453,-142.031 600.954,-152.031 607.954,-152.031"/>
</g>
<!-- barrier -->
<g id="node13" class="node"><title>barrier</title>
<ellipse fill="none" stroke="black" cx="290" cy="-506.447" rx="34.394" ry="34.394"/>
<text text-anchor="middle" x="290" y="-502.747" font-family="Times,serif" font-size="14.00">barrier</text>
</g>
<!-- SendAck -->
<g id="node26" class="node"><title>SendAck</title>
<polygon fill="none" stroke="black" points="412,-436 346,-436 346,-400 412,-400 412,-436"/>
<text text-anchor="middle" x="379" y="-414.3" font-family="Times,serif" font-size="14.00">SendAck</text>
</g>
<!-- barrier&#45;&gt;SendAck -->
<g id="edge27" class="edge"><title>barrier&#45;&gt;SendAck</title>
<path fill="none" stroke="black" stroke-width="2" d="M312.458,-480C338.824,-480 379,-480 379,-480 379,-480 379,-446.267 379,-446.267"/>
<polygon fill="black" stroke="black" stroke-width="2" points="382.5,-446.267 379,-436.267 375.5,-446.267 382.5,-446.267"/>
</g>
<!-- NetworkTransfer -->
<g id="node22" class="node"><title>NetworkTransfer</title>
<polygon fill="none" stroke="black" points="140,-831.894 30,-831.894 30,-795.894 140,-795.894 140,-831.894"/>
<text text-anchor="middle" x="85" y="-810.194" font-family="Times,serif" font-size="14.00">NetworkTransfer</text>
</g>
<!-- waitJUMBO&#45;&gt;NetworkTransfer -->
<g id="edge22" class="edge"><title>waitJUMBO&#45;&gt;NetworkTransfer</title>
<path fill="none" stroke="black" stroke-width="2" d="M113.052,-875.907C113.052,-875.907 113.052,-842.16 113.052,-842.16"/>
<polygon fill="black" stroke="black" stroke-width="2" points="116.553,-842.16 113.052,-832.16 109.553,-842.16 116.553,-842.16"/>
</g>
<!-- accessSmallDisks -->
<g id="node15" class="node"><title>accessSmallDisks</title>
<polygon fill="none" stroke="black" points="276,-615.894 158,-615.894 158,-579.894 276,-579.894 276,-615.894"/>
<text text-anchor="middle" x="217" y="-594.194" font-family="Times,serif" font-size="14.00">AccessSmallDisks</text>
</g>
<!-- accessSmallDisks&#45;&gt;barrier -->
<g id="edge20" class="edge"><title>accessSmallDisks&#45;&gt;barrier</title>
<path fill="none" stroke="black" stroke-width="2" d="M265.777,-579.827C265.777,-579.827 265.777,-541.055 265.777,-541.055"/>
<polygon fill="black" stroke="black" stroke-width="2" points="269.277,-541.054 265.777,-531.055 262.277,-541.055 269.277,-541.054"/>
</g>
<!-- FUSE_Overhead_2 -->
<g id="node16" class="node"><title>FUSE_Overhead_2</title>
<polygon fill="none" stroke="black" points="274.5,-687.894 165.5,-687.894 165.5,-651.894 274.5,-651.894 274.5,-687.894"/>
<text text-anchor="middle" x="220" y="-666.194" font-family="Times,serif" font-size="14.00">FUSE_Overhead</text>
</g>
<!-- FUSE_Overhead_2&#45;&gt;accessSmallDisks -->
<g id="edge19" class="edge"><title>FUSE_Overhead_2&#45;&gt;accessSmallDisks</title>
<path fill="none" stroke="black" stroke-width="2" d="M220,-651.725C220,-651.725 220,-626.307 220,-626.307"/>
<polygon fill="black" stroke="black" stroke-width="2" points="223.5,-626.307 220,-616.307 216.5,-626.307 223.5,-626.307"/>
</g>
<!-- TransactionalTraffic -->
<g id="node18" class="node"><title>TransactionalTraffic</title>
<polygon fill="none" stroke="black" points="572,-687.894 444,-687.894 444,-651.894 572,-651.894 572,-687.894"/>
<text text-anchor="middle" x="508" y="-666.194" font-family="Times,serif" font-size="14.00">TransactionalTraffic</text>
</g>
<!-- WriteDataToDisk&#45;&gt;TransactionalTraffic -->
<g id="edge12" class="edge"><title>WriteDataToDisk&#45;&gt;TransactionalTraffic</title>
<path fill="none" stroke="black" stroke-width="2" stroke-dasharray="5,2" d="M420.261,-741C443.512,-741 465,-741 465,-741 465,-741 465,-698.205 465,-698.205"/>
<polygon fill="black" stroke="black" stroke-width="2" points="465,-688.205 469.5,-698.205 465.5,-693.205 465.5,-698.205 465,-698.205 464.5,-698.205 464.5,-693.205 460.5,-698.206 465,-688.205 465,-688.205"/>
</g>
<!-- FUSE_Overhead -->
<g id="node19" class="node"><title>FUSE_Overhead</title>
<polygon fill="none" stroke="black" points="417.5,-687.894 308.5,-687.894 308.5,-651.894 417.5,-651.894 417.5,-687.894"/>
<text text-anchor="middle" x="363" y="-666.194" font-family="Times,serif" font-size="14.00">FUSE_Overhead</text>
</g>
<!-- WriteDataToDisk&#45;&gt;FUSE_Overhead -->
<g id="edge14" class="edge"><title>WriteDataToDisk&#45;&gt;FUSE_Overhead</title>
<path fill="none" stroke="black" stroke-width="2" d="M363,-723.725C363,-723.725 363,-698.307 363,-698.307"/>
<polygon fill="black" stroke="black" stroke-width="2" points="366.5,-698.307 363,-688.307 359.5,-698.307 366.5,-698.307"/>
</g>
<!-- SelectTarget -->
<g id="node29" class="node"><title>SelectTarget</title>
<polygon fill="none" stroke="black" points="549.5,-615.894 464.5,-615.894 464.5,-579.894 549.5,-579.894 549.5,-615.894"/>
<text text-anchor="middle" x="507" y="-594.194" font-family="Times,serif" font-size="14.00">SelectTarget</text>
</g>
<!-- TransactionalTraffic&#45;&gt;SelectTarget -->
<g id="edge28" class="edge"><title>TransactionalTraffic&#45;&gt;SelectTarget</title>
<path fill="none" stroke="black" stroke-width="2" d="M507,-651.725C507,-651.725 507,-626.307 507,-626.307"/>
<polygon fill="black" stroke="black" stroke-width="2" points="510.5,-626.307 507,-616.307 503.5,-626.307 510.5,-626.307"/>
</g>
<!-- GenerateParity -->
<g id="node32" class="node"><title>GenerateParity</title>
<polygon fill="none" stroke="black" points="666,-524.447 568,-524.447 568,-488.447 666,-488.447 666,-524.447"/>
<text text-anchor="middle" x="617" y="-502.747" font-family="Times,serif" font-size="14.00">GenerateParity</text>
</g>
<!-- TransactionalTraffic&#45;&gt;GenerateParity -->
<g id="edge33" class="edge"><title>TransactionalTraffic&#45;&gt;GenerateParity</title>
<path fill="none" stroke="black" stroke-width="2" d="M557.203,-651.728C557.203,-609.056 557.203,-506 557.203,-506 557.203,-506 558.272,-506 558.272,-506"/>
<polygon fill="black" stroke="black" stroke-width="2" points="557.894,-509.5 567.894,-506 557.894,-502.5 557.894,-509.5"/>
</g>
<!-- AccessCapableDisks -->
<g id="node20" class="node"><title>AccessCapableDisks</title>
<polygon fill="none" stroke="black" points="428,-615.894 298,-615.894 298,-579.894 428,-579.894 428,-615.894"/>
<text text-anchor="middle" x="363" y="-594.194" font-family="Times,serif" font-size="14.00">AccessCapableDisks</text>
</g>
<!-- FUSE_Overhead&#45;&gt;AccessCapableDisks -->
<g id="edge15" class="edge"><title>FUSE_Overhead&#45;&gt;AccessCapableDisks</title>
<path fill="none" stroke="black" stroke-width="2" d="M363,-651.725C363,-651.725 363,-626.307 363,-626.307"/>
<polygon fill="black" stroke="black" stroke-width="2" points="366.5,-626.307 363,-616.307 359.5,-626.307 366.5,-626.307"/>
</g>
<!-- AccessCapableDisks&#45;&gt;barrier -->
<g id="edge16" class="edge"><title>AccessCapableDisks&#45;&gt;barrier</title>
<path fill="none" stroke="black" stroke-width="2" d="M311.223,-579.827C311.223,-579.827 311.223,-543.849 311.223,-543.849"/>
<polygon fill="black" stroke="black" stroke-width="2" points="314.724,-543.849 311.223,-533.849 307.724,-543.849 314.724,-543.849"/>
</g>
<!-- WriteMetaToDHT&#45;&gt;FUSE_Overhead_2 -->
<g id="edge18" class="edge"><title>WriteMetaToDHT&#45;&gt;FUSE_Overhead_2</title>
<path fill="none" stroke="black" stroke-width="2" d="M220,-723.725C220,-723.725 220,-698.307 220,-698.307"/>
<polygon fill="black" stroke="black" stroke-width="2" points="223.5,-698.307 220,-688.307 216.5,-698.307 223.5,-698.307"/>
</g>
<!-- FUSE -->
<g id="node23" class="node"><title>FUSE</title>
<polygon fill="none" stroke="black" points="138.5,-759.894 29.5,-759.894 29.5,-723.894 138.5,-723.894 138.5,-759.894"/>
<text text-anchor="middle" x="84" y="-738.194" font-family="Times,serif" font-size="14.00">FUSE_Overhead</text>
</g>
<!-- NetworkTransfer&#45;&gt;FUSE -->
<g id="edge23" class="edge"><title>NetworkTransfer&#45;&gt;FUSE</title>
<path fill="none" stroke="black" stroke-width="2" d="M84.25,-795.725C84.25,-795.725 84.25,-770.307 84.25,-770.307"/>
<polygon fill="black" stroke="black" stroke-width="2" points="87.7501,-770.307 84.25,-760.307 80.7501,-770.307 87.7501,-770.307"/>
</g>
<!-- AccessSmallDisks -->
<g id="node25" class="node"><title>AccessSmallDisks</title>
<polygon fill="none" stroke="black" points="142,-687.894 24,-687.894 24,-651.894 142,-651.894 142,-687.894"/>
<text text-anchor="middle" x="83" y="-666.194" font-family="Times,serif" font-size="14.00">AccessSmallDisks</text>
</g>
<!-- FUSE&#45;&gt;AccessSmallDisks -->
<g id="edge24" class="edge"><title>FUSE&#45;&gt;AccessSmallDisks</title>
<path fill="none" stroke="black" stroke-width="2" d="M84,-723.725C84,-723.725 84,-698.307 84,-698.307"/>
<polygon fill="black" stroke="black" stroke-width="2" points="87.5001,-698.307 84,-688.307 80.5001,-698.307 87.5001,-698.307"/>
</g>
<!-- send_ack -->
<g id="node24" class="node"><title>send_ack</title>
<polygon fill="none" stroke="black" points="126,-615.894 60,-615.894 60,-579.894 126,-579.894 126,-615.894"/>
<text text-anchor="middle" x="93" y="-594.194" font-family="Times,serif" font-size="14.00">SendAck</text>
</g>
<!-- send_ack&#45;&gt;barrier -->
<g id="edge26" class="edge"><title>send_ack&#45;&gt;barrier</title>
<path fill="none" stroke="black" stroke-width="2" d="M93,-579.739C93,-552.958 93,-506 93,-506 93,-506 245.234,-506 245.234,-506"/>
<polygon fill="black" stroke="black" stroke-width="2" points="245.234,-509.5 255.234,-506 245.234,-502.5 245.234,-509.5"/>
</g>
<!-- AccessSmallDisks&#45;&gt;send_ack -->
<g id="edge25" class="edge"><title>AccessSmallDisks&#45;&gt;send_ack</title>
<path fill="none" stroke="black" stroke-width="2" d="M93,-651.725C93,-651.725 93,-626.307 93,-626.307"/>
<polygon fill="black" stroke="black" stroke-width="2" points="96.5001,-626.307 93,-616.307 89.5001,-626.307 96.5001,-626.307"/>
</g>
<!-- SendAck&#45;&gt;end -->
<g id="edge40" class="edge"><title>SendAck&#45;&gt;end</title>
<path fill="none" stroke="black" stroke-width="2" d="M379,-399.766C379,-320.766 379,-12 379,-12 379,-12 594.084,-12 594.084,-12"/>
<polygon fill="black" stroke="black" stroke-width="2" points="594.084,-15.5001 604.084,-12 594.084,-8.5001 594.084,-15.5001"/>
</g>
<!-- endTrans -->
<g id="node27" class="node"><title>endTrans</title>
<polygon fill="none" stroke="black" points="600,-292 546,-292 546,-256 600,-256 600,-292"/>
<text text-anchor="middle" x="573" y="-270.3" font-family="Times,serif" font-size="14.00">end</text>
</g>
<!-- endTrans&#45;&gt;timeout_2 -->
<g id="edge36" class="edge"><title>endTrans&#45;&gt;timeout_2</title>
<g id="a_edge36"><a xlink:title="Calls to multiple nodes">
<path fill="none" stroke="black" stroke-width="2" d="M573,-255.845C569,-255.845 569,-227.248 573,-227.248"/>
<path fill="none" stroke="none" stroke-width="2" d="M573,-255.845C571,-255.845 571,-227.248 573,-227.248"/>
<path fill="none" stroke="black" stroke-width="2" d="M573,-255.845C573,-255.845 573,-227.248 573,-227.248"/>
<path fill="none" stroke="none" stroke-width="2" d="M573,-255.845C575,-255.845 575,-227.248 573,-227.248"/>
<path fill="none" stroke="black" stroke-width="2" d="M573,-255.845C577,-255.845 577,-227.248 573,-227.248"/>
<polygon fill="black" stroke="black" stroke-width="2" points="576.5,-227.248 573,-217.248 569.5,-227.248 576.5,-227.248"/>
</a>
</g>
</g>
<!-- TransTimeout -->
<g id="node28" class="node"><title>TransTimeout</title>
<polygon fill="none" stroke="black" points="507,-436 449.186,-418 507,-400 564.814,-418 507,-436"/>
<text text-anchor="middle" x="507" y="-414.3" font-family="Times,serif" font-size="14.00">Timeout</text>
</g>
<!-- TransTimeout&#45;&gt;SelectTarget -->
<g id="edge32" class="edge"><title>TransTimeout&#45;&gt;SelectTarget</title>
<path fill="none" stroke="green" stroke-width="2" d="M456.797,-420.53C456.797,-442.287 456.797,-597 456.797,-597 456.797,-597 457.537,-597 457.537,-597"/>
<polygon fill="green" stroke="green" stroke-width="2" points="454.204,-600.5 464.204,-597 454.204,-593.5 454.204,-600.5"/>
</g>
<!-- SendData -->
<g id="node31" class="node"><title>SendData</title>
<polygon fill="none" stroke="black" points="607.5,-364 538.5,-364 538.5,-328 607.5,-328 607.5,-364"/>
<text text-anchor="middle" x="573" y="-342.3" font-family="Times,serif" font-size="14.00">SendData</text>
</g>
<!-- TransTimeout&#45;&gt;SendData -->
<g id="edge31" class="edge"><title>TransTimeout&#45;&gt;SendData</title>
<path fill="none" stroke="red" stroke-width="2" d="M551.703,-413.712C551.703,-413.712 551.703,-374.282 551.703,-374.282"/>
<polygon fill="red" stroke="red" stroke-width="2" points="555.204,-374.282 551.703,-364.282 548.204,-374.282 555.204,-374.282"/>
</g>
<!-- PingTarget -->
<g id="node30" class="node"><title>PingTarget</title>
<polygon fill="none" stroke="black" points="545.5,-524.447 468.5,-524.447 468.5,-488.447 545.5,-488.447 545.5,-524.447"/>
<text text-anchor="middle" x="507" y="-502.747" font-family="Times,serif" font-size="14.00">PingTarget</text>
</g>
<!-- SelectTarget&#45;&gt;PingTarget -->
<g id="edge29" class="edge"><title>SelectTarget&#45;&gt;PingTarget</title>
<path fill="none" stroke="black" stroke-width="2" d="M507,-579.827C507,-579.827 507,-534.476 507,-534.476"/>
<polygon fill="black" stroke="black" stroke-width="2" points="510.5,-534.476 507,-524.476 503.5,-534.476 510.5,-534.476"/>
</g>
<!-- PingTarget&#45;&gt;TransTimeout -->
<g id="edge30" class="edge"><title>PingTarget&#45;&gt;TransTimeout</title>
<path fill="none" stroke="black" stroke-width="2" d="M507,-488.121C507,-488.121 507,-446 507,-446"/>
<polygon fill="black" stroke="black" stroke-width="2" points="510.5,-446 507,-436 503.5,-446 510.5,-446"/>
</g>
<!-- SendData&#45;&gt;endTrans -->
<g id="edge35" class="edge"><title>SendData&#45;&gt;endTrans</title>
<path fill="none" stroke="black" stroke-width="2" d="M573,-327.831C573,-327.831 573,-302.413 573,-302.413"/>
<polygon fill="black" stroke="black" stroke-width="2" points="576.5,-302.413 573,-292.413 569.5,-302.413 576.5,-302.413"/>
</g>
<!-- GenerateParity&#45;&gt;SendData -->
<g id="edge34" class="edge"><title>GenerateParity&#45;&gt;SendData</title>
<path fill="none" stroke="black" stroke-width="2" d="M587.75,-488.354C587.75,-488.354 587.75,-374.273 587.75,-374.273"/>
<polygon fill="black" stroke="black" stroke-width="2" points="591.25,-374.273 587.75,-364.273 584.25,-374.274 591.25,-374.273"/>
</g>
</g>
</svg>
