<?xml version="1.0" encoding="UTF-8" standalone="no"?>
<!DOCTYPE svg PUBLIC "-//W3C//DTD SVG 1.1//EN"
 "http://www.w3.org/Graphics/SVG/1.1/DTD/svg11.dtd">
<!-- Generated by graphviz version 2.38.0 (20140413.2041)
 -->
<!-- Title: System Pages: 1 -->
<svg width="666pt" height="551pt"
 viewBox="0.00 0.00 665.50 551.00" xmlns="http://www.w3.org/2000/svg" xmlns:xlink="http://www.w3.org/1999/xlink">
<g id="graph0" class="graph" transform="scale(1 1) rotate(0) translate(4 547)">
<title>System</title>
<polygon fill="white" stroke="none" points="-4,4 -4,-547 661.5,-547 661.5,4 -4,4"/>
<g id="clust1" class="cluster"><title>clusterAllocation</title>
<polygon fill="none" stroke="black" stroke-dasharray="5,2" points="61,-352 61,-499 197,-499 197,-352 61,-352"/>
<text text-anchor="middle" x="129" y="-483.8" font-family="Times,serif" font-size="14.00">allocation</text>
</g>
<g id="clust2" class="cluster"><title>clusterToken</title>
<polygon fill="none" stroke="black" stroke-dasharray="5,2" points="8,-64 8,-260 250,-260 250,-64 8,-64"/>
</g>
<g id="clust3" class="cluster"><title>clusterToken1</title>
<polygon fill="none" stroke="black" stroke-dasharray="5,2" points="265,-208 265,-404 507,-404 507,-208 265,-208"/>
</g>
<!-- write_data -->
<g id="node1" class="node"><title>write_data</title>
<polygon fill="#607d8b" stroke="#607d8b" points="167.5,-543 90.5,-543 90.5,-507 167.5,-507 167.5,-543"/>
<text text-anchor="middle" x="129" y="-521.9" font-family="Noto Sans" font-size="12.00" fill="white">write_data</text>
</g>
<!-- scatter_in_bucket -->
<g id="node2" class="node"><title>scatter_in_bucket</title>
<polygon fill="#607d8b" stroke="#607d8b" points="187,-468 71,-468 71,-432 187,-432 187,-468"/>
<text text-anchor="middle" x="129" y="-446.9" font-family="Noto Sans" font-size="12.00" fill="white">scatter_in_bucket</text>
</g>
<!-- write_data&#45;&gt;scatter_in_bucket -->
<g id="edge1" class="edge"><title>write_data&#45;&gt;scatter_in_bucket</title>
<path fill="none" stroke="#212121" stroke-width="2" d="M129,-506.845C129,-506.845 129,-478.248 129,-478.248"/>
<polygon fill="#212121" stroke="#212121" stroke-width="2" points="132.5,-478.248 129,-468.248 125.5,-478.248 132.5,-478.248"/>
</g>
<!-- scatter_in_buffers -->
<g id="node3" class="node"><title>scatter_in_buffers</title>
<polygon fill="#607d8b" stroke="#607d8b" points="188.5,-396 69.5,-396 69.5,-360 188.5,-360 188.5,-396"/>
<text text-anchor="middle" x="129" y="-374.9" font-family="Noto Sans" font-size="12.00" fill="white">scatter_in_buffers</text>
</g>
<!-- scatter_in_bucket&#45;&gt;scatter_in_buffers -->
<g id="edge2" class="edge"><title>scatter_in_bucket&#45;&gt;scatter_in_buffers</title>
<path fill="none" stroke="#212121" stroke-width="2" d="M129,-431.831C129,-431.831 129,-406.413 129,-406.413"/>
<polygon fill="#212121" stroke="#212121" stroke-width="2" points="132.5,-406.413 129,-396.413 125.5,-406.413 132.5,-406.413"/>
</g>
<!-- parity_generation -->
<g id="node4" class="node"><title>parity_generation</title>
<polygon fill="#607d8b" stroke="#607d8b" points="188,-324 70,-324 70,-288 188,-288 188,-324"/>
<text text-anchor="middle" x="129" y="-302.9" font-family="Noto Sans" font-size="12.00" fill="white">parity_generation</text>
</g>
<!-- scatter_in_buffers&#45;&gt;parity_generation -->
<g id="edge3" class="edge"><title>scatter_in_buffers&#45;&gt;parity_generation</title>
<path fill="none" stroke="#212121" stroke-width="2" d="M129,-359.831C129,-359.831 129,-334.413 129,-334.413"/>
<polygon fill="#212121" stroke="#212121" stroke-width="2" points="132.5,-334.413 129,-324.413 125.5,-334.413 132.5,-334.413"/>
</g>
<!-- token_request -->
<g id="node5" class="node"><title>token_request</title>
<polygon fill="#607d8b" stroke="#607d8b" points="178.5,-252 79.5,-252 79.5,-216 178.5,-216 178.5,-252"/>
<text text-anchor="middle" x="129" y="-230.9" font-family="Noto Sans" font-size="12.00" fill="white">token_request</text>
</g>
<!-- parity_generation&#45;&gt;token_request -->
<g id="edge4" class="edge"><title>parity_generation&#45;&gt;token_request</title>
<path fill="none" stroke="#212121" stroke-width="2" d="M129,-287.831C129,-287.831 129,-262.413 129,-262.413"/>
<polygon fill="#212121" stroke="#212121" stroke-width="2" points="132.5,-262.413 129,-252.413 125.5,-262.413 132.5,-262.413"/>
</g>
<!-- token_condition -->
<g id="node6" class="node"><title>token_condition</title>
<polygon fill="#607d8b" stroke="#607d8b" points="129,-180 15.6511,-162 129,-144 242.349,-162 129,-180"/>
<text text-anchor="middle" x="129" y="-158.9" font-family="Noto Sans" font-size="12.00" fill="white">Tokens Available &gt; 0</text>
</g>
<!-- token_request&#45;&gt;token_condition -->
<g id="edge5" class="edge"><title>token_request&#45;&gt;token_condition</title>
<path fill="none" stroke="#212121" stroke-width="2" d="M129,-215.831C129,-215.831 129,-190.413 129,-190.413"/>
<polygon fill="#212121" stroke="#212121" stroke-width="2" points="132.5,-190.413 129,-180.413 125.5,-190.413 132.5,-190.413"/>
</g>
<!-- token_granted -->
<g id="node7" class="node"><title>token_granted</title>
<polygon fill="#607d8b" stroke="#607d8b" points="117.5,-108 16.5,-108 16.5,-72 117.5,-72 117.5,-108"/>
<text text-anchor="middle" x="67" y="-86.9" font-family="Noto Sans" font-size="12.00" fill="white">token_granted</text>
</g>
<!-- token_condition&#45;&gt;token_granted -->
<g id="edge6" class="edge"><title>token_condition&#45;&gt;token_granted</title>
<path fill="none" stroke="#4caf50" stroke-width="2" d="M67,-153.741C67,-153.741 67,-118.035 67,-118.035"/>
<polygon fill="#4caf50" stroke="#4caf50" stroke-width="2" points="70.5001,-118.035 67,-108.035 63.5001,-118.035 70.5001,-118.035"/>
</g>
<!-- wait -->
<g id="node8" class="node"><title>wait</title>
<polygon fill="#607d8b" stroke="#607d8b" points="190,-108 136,-108 136,-72 190,-72 190,-108"/>
<text text-anchor="middle" x="163" y="-86.9" font-family="Noto Sans" font-size="12.00" fill="white">wait</text>
</g>
<!-- token_condition&#45;&gt;wait -->
<g id="edge7" class="edge"><title>token_condition&#45;&gt;wait</title>
<path fill="none" stroke="#f44336" stroke-width="2" d="M154,-147.775C154,-147.775 154,-118.034 154,-118.034"/>
<polygon fill="#f44336" stroke="#f44336" stroke-width="2" points="157.5,-118.034 154,-108.034 150.5,-118.034 157.5,-118.034"/>
</g>
<!-- communicate_data -->
<g id="node9" class="node"><title>communicate_data</title>
<polygon fill="#607d8b" stroke="#607d8b" points="129.5,-36 4.5,-36 4.5,-0 129.5,-0 129.5,-36"/>
<text text-anchor="middle" x="67" y="-14.9" font-family="Noto Sans" font-size="12.00" fill="white">communicate_data</text>
</g>
<!-- token_granted&#45;&gt;communicate_data -->
<g id="edge9" class="edge"><title>token_granted&#45;&gt;communicate_data</title>
<path fill="none" stroke="#212121" stroke-width="2" d="M67,-71.8314C67,-71.8314 67,-46.4133 67,-46.4133"/>
<polygon fill="#212121" stroke="#212121" stroke-width="2" points="70.5001,-46.4132 67,-36.4133 63.5001,-46.4133 70.5001,-46.4132"/>
</g>
<!-- wait&#45;&gt;token_condition -->
<g id="edge8" class="edge"><title>wait&#45;&gt;token_condition</title>
<path fill="none" stroke="#212121" stroke-width="2" d="M172,-108.169C172,-108.169 172,-140.591 172,-140.591"/>
<polygon fill="#212121" stroke="#212121" stroke-width="2" points="168.5,-140.591 172,-150.591 175.5,-140.591 168.5,-140.591"/>
</g>
<!-- recv_ack -->
<g id="node10" class="node"><title>recv_ack</title>
<polygon fill="#607d8b" stroke="#607d8b" points="293.5,-543 228.5,-543 228.5,-507 293.5,-507 293.5,-543"/>
<text text-anchor="middle" x="261" y="-521.9" font-family="Noto Sans" font-size="12.00" fill="white">recv_ack</text>
</g>
<!-- token_release -->
<g id="node11" class="node"><title>token_release</title>
<polygon fill="#607d8b" stroke="#607d8b" points="309,-468 213,-468 213,-432 309,-432 309,-468"/>
<text text-anchor="middle" x="261" y="-446.9" font-family="Noto Sans" font-size="12.00" fill="white">token_release</text>
</g>
<!-- recv_ack&#45;&gt;token_release -->
<g id="edge10" class="edge"><title>recv_ack&#45;&gt;token_release</title>
<path fill="none" stroke="#212121" stroke-width="2" d="M261,-506.845C261,-506.845 261,-478.248 261,-478.248"/>
<polygon fill="#212121" stroke="#212121" stroke-width="2" points="264.5,-478.248 261,-468.248 257.5,-478.248 264.5,-478.248"/>
</g>
<!-- read_data -->
<g id="node12" class="node"><title>read_data</title>
<polygon fill="#607d8b" stroke="#607d8b" points="423,-543 349,-543 349,-507 423,-507 423,-543"/>
<text text-anchor="middle" x="386" y="-521.9" font-family="Noto Sans" font-size="12.00" fill="white">read_data</text>
</g>
<!-- gather_targets -->
<g id="node13" class="node"><title>gather_targets</title>
<polygon fill="#607d8b" stroke="#607d8b" points="436.5,-468 335.5,-468 335.5,-432 436.5,-432 436.5,-468"/>
<text text-anchor="middle" x="386" y="-446.9" font-family="Noto Sans" font-size="12.00" fill="white">gather_targets</text>
</g>
<!-- read_data&#45;&gt;gather_targets -->
<g id="edge11" class="edge"><title>read_data&#45;&gt;gather_targets</title>
<path fill="none" stroke="#212121" stroke-width="2" d="M386,-506.845C386,-506.845 386,-478.248 386,-478.248"/>
<polygon fill="#212121" stroke="#212121" stroke-width="2" points="389.5,-478.248 386,-468.248 382.5,-478.248 389.5,-478.248"/>
</g>
<!-- token_request1 -->
<g id="node14" class="node"><title>token_request1</title>
<polygon fill="#607d8b" stroke="#607d8b" points="439,-396 333,-396 333,-360 439,-360 439,-396"/>
<text text-anchor="middle" x="386" y="-374.9" font-family="Noto Sans" font-size="12.00" fill="white">token_request1</text>
</g>
<!-- gather_targets&#45;&gt;token_request1 -->
<g id="edge12" class="edge"><title>gather_targets&#45;&gt;token_request1</title>
<path fill="none" stroke="#212121" stroke-width="2" d="M386,-431.831C386,-431.831 386,-406.413 386,-406.413"/>
<polygon fill="#212121" stroke="#212121" stroke-width="2" points="389.5,-406.413 386,-396.413 382.5,-406.413 389.5,-406.413"/>
</g>
<!-- token_condition1 -->
<g id="node15" class="node"><title>token_condition1</title>
<polygon fill="#607d8b" stroke="#607d8b" points="386,-324 272.651,-306 386,-288 499.349,-306 386,-324"/>
<text text-anchor="middle" x="386" y="-302.9" font-family="Noto Sans" font-size="12.00" fill="white">Tokens Available &gt; 0</text>
</g>
<!-- token_request1&#45;&gt;token_condition1 -->
<g id="edge13" class="edge"><title>token_request1&#45;&gt;token_condition1</title>
<path fill="none" stroke="#212121" stroke-width="2" d="M386,-359.831C386,-359.831 386,-334.413 386,-334.413"/>
<polygon fill="#212121" stroke="#212121" stroke-width="2" points="389.5,-334.413 386,-324.413 382.5,-334.413 389.5,-334.413"/>
</g>
<!-- token_granted1 -->
<g id="node16" class="node"><title>token_granted1</title>
<polygon fill="#607d8b" stroke="#607d8b" points="379.5,-252 272.5,-252 272.5,-216 379.5,-216 379.5,-252"/>
<text text-anchor="middle" x="326" y="-230.9" font-family="Noto Sans" font-size="12.00" fill="white">token_granted1</text>
</g>
<!-- token_condition1&#45;&gt;token_granted1 -->
<g id="edge14" class="edge"><title>token_condition1&#45;&gt;token_granted1</title>
<path fill="none" stroke="#4caf50" stroke-width="2" d="M326.163,-297.458C326.163,-297.458 326.163,-262.173 326.163,-262.173"/>
<polygon fill="#4caf50" stroke="#4caf50" stroke-width="2" points="329.663,-262.173 326.163,-252.173 322.663,-262.173 329.663,-262.173"/>
</g>
<!-- wait1 -->
<g id="node17" class="node"><title>wait1</title>
<polygon fill="#607d8b" stroke="#607d8b" points="452,-252 398,-252 398,-216 452,-216 452,-252"/>
<text text-anchor="middle" x="425" y="-230.9" font-family="Noto Sans" font-size="12.00" fill="white">wait1</text>
</g>
<!-- token_condition1&#45;&gt;wait1 -->
<g id="edge15" class="edge"><title>token_condition1&#45;&gt;wait1</title>
<path fill="none" stroke="#f44336" stroke-width="2" d="M416,-292.457C416,-292.457 416,-262.105 416,-262.105"/>
<polygon fill="#f44336" stroke="#f44336" stroke-width="2" points="419.5,-262.105 416,-252.105 412.5,-262.105 419.5,-262.105"/>
</g>
<!-- send__read_request -->
<g id="node18" class="node"><title>send__read_request</title>
<polygon fill="#607d8b" stroke="#607d8b" points="391.5,-180 260.5,-180 260.5,-144 391.5,-144 391.5,-180"/>
<text text-anchor="middle" x="326" y="-158.9" font-family="Noto Sans" font-size="12.00" fill="white">send__read_request</text>
</g>
<!-- token_granted1&#45;&gt;send__read_request -->
<g id="edge17" class="edge"><title>token_granted1&#45;&gt;send__read_request</title>
<path fill="none" stroke="#212121" stroke-width="2" d="M326,-215.831C326,-215.831 326,-190.413 326,-190.413"/>
<polygon fill="#212121" stroke="#212121" stroke-width="2" points="329.5,-190.413 326,-180.413 322.5,-190.413 329.5,-190.413"/>
</g>
<!-- wait1&#45;&gt;token_condition1 -->
<g id="edge16" class="edge"><title>wait1&#45;&gt;token_condition1</title>
<path fill="none" stroke="#212121" stroke-width="2" d="M434,-252.169C434,-252.169 434,-285.434 434,-285.434"/>
<polygon fill="#212121" stroke="#212121" stroke-width="2" points="430.5,-285.434 434,-295.434 437.5,-285.434 430.5,-285.434"/>
</g>
<!-- token_release1 -->
<g id="node19" class="node"><title>token_release1</title>
<polygon fill="#607d8b" stroke="#607d8b" points="626,-396 530,-396 530,-360 626,-360 626,-396"/>
<text text-anchor="middle" x="578" y="-374.9" font-family="Noto Sans" font-size="12.00" fill="white">token_release</text>
</g>
<!-- write_data_to_disk -->
<g id="node22" class="node"><title>write_data_to_disk</title>
<polygon fill="#607d8b" stroke="#607d8b" points="639,-324 517,-324 517,-288 639,-288 639,-324"/>
<text text-anchor="middle" x="578" y="-302.9" font-family="Noto Sans" font-size="12.00" fill="white">write_data_to_disk</text>
</g>
<!-- token_release1&#45;&gt;write_data_to_disk -->
<g id="edge20" class="edge"><title>token_release1&#45;&gt;write_data_to_disk</title>
<path fill="none" stroke="#212121" stroke-width="2" d="M578,-359.831C578,-359.831 578,-334.413 578,-334.413"/>
<polygon fill="#212121" stroke="#212121" stroke-width="2" points="581.5,-334.413 578,-324.413 574.5,-334.413 581.5,-334.413"/>
</g>
<!-- recv_data -->
<g id="node20" class="node"><title>recv_data</title>
<polygon fill="#607d8b" stroke="#607d8b" points="613.5,-543 542.5,-543 542.5,-507 613.5,-507 613.5,-543"/>
<text text-anchor="middle" x="578" y="-521.9" font-family="Noto Sans" font-size="12.00" fill="white">recv_data</text>
</g>
<!-- network_communication -->
<g id="node21" class="node"><title>network_communication</title>
<polygon fill="#607d8b" stroke="#607d8b" points="657.5,-468 498.5,-468 498.5,-432 657.5,-432 657.5,-468"/>
<text text-anchor="middle" x="578" y="-446.9" font-family="Noto Sans" font-size="12.00" fill="white">network_communication</text>
</g>
<!-- recv_data&#45;&gt;network_communication -->
<g id="edge18" class="edge"><title>recv_data&#45;&gt;network_communication</title>
<path fill="none" stroke="#212121" stroke-width="2" d="M578,-506.845C578,-506.845 578,-478.248 578,-478.248"/>
<polygon fill="#212121" stroke="#212121" stroke-width="2" points="581.5,-478.248 578,-468.248 574.5,-478.248 581.5,-478.248"/>
</g>
<!-- network_communication&#45;&gt;token_release1 -->
<g id="edge19" class="edge"><title>network_communication&#45;&gt;token_release1</title>
<path fill="none" stroke="#212121" stroke-width="2" d="M578,-431.831C578,-431.831 578,-406.413 578,-406.413"/>
<polygon fill="#212121" stroke="#212121" stroke-width="2" points="581.5,-406.413 578,-396.413 574.5,-406.413 581.5,-406.413"/>
</g>
</g>
</svg>
