<?xml version="1.0" encoding="UTF-8" standalone="no"?>
<!DOCTYPE svg PUBLIC "-//W3C//DTD SVG 1.1//EN"
 "http://www.w3.org/Graphics/SVG/1.1/DTD/svg11.dtd">
<!-- Generated by graphviz version 2.38.0 (20140413.2041)
 -->
<!-- Title: System Pages: 1 -->
<svg width="888pt" height="586pt"
 viewBox="0.00 0.00 887.50 586.00" xmlns="http://www.w3.org/2000/svg" xmlns:xlink="http://www.w3.org/1999/xlink">
<g id="graph0" class="graph" transform="scale(1 1) rotate(0) translate(4 582)">
<title>System</title>
<polygon fill="white" stroke="none" points="-4,4 -4,-582 883.5,-582 883.5,4 -4,4"/>
<g id="clust1" class="cluster"><title>clusterAllocation</title>
<polygon fill="none" stroke="black" stroke-dasharray="5,2" points="61,-357 61,-505 197,-505 197,-357 61,-357"/>
<text text-anchor="middle" x="129" y="-489.8" font-family="Times,serif" font-size="14.00">allocation</text>
</g>
<g id="clust2" class="cluster"><title>clusterToken</title>
<polygon fill="none" stroke="black" stroke-dasharray="5,2" points="8,-65 8,-263 250,-263 250,-65 8,-65"/>
</g>
<g id="clust3" class="cluster"><title>clusterToken1</title>
<polygon fill="none" stroke="black" stroke-dasharray="5,2" points="265,-211 265,-409 507,-409 507,-211 265,-211"/>
</g>
<!-- write_data -->
<g id="node1" class="node"><title>write_data</title>
<polygon fill="#607d8b" stroke="#607d8b" points="167.5,-578 90.5,-578 90.5,-542 167.5,-542 167.5,-578"/>
<text text-anchor="middle" x="129" y="-556.9" font-family="Noto Sans" font-size="12.00" fill="white">write_data</text>
</g>
<!-- scatter_in_bucket -->
<g id="node2" class="node"><title>scatter_in_bucket</title>
<polygon fill="#607d8b" stroke="#607d8b" points="187,-474 71,-474 71,-438 187,-438 187,-474"/>
<text text-anchor="middle" x="129" y="-452.9" font-family="Noto Sans" font-size="12.00" fill="white">scatter_in_bucket</text>
</g>
<!-- write_data&#45;&gt;scatter_in_bucket -->
<g id="edge1" class="edge"><title>write_data&#45;&gt;scatter_in_bucket</title>
<path fill="none" stroke="#212121" stroke-width="2" d="M129,-541.885C129,-541.885 129,-484.257 129,-484.257"/>
<polygon fill="#212121" stroke="#212121" stroke-width="2" points="132.5,-484.257 129,-474.257 125.5,-484.257 132.5,-484.257"/>
</g>
<!-- scatter_in_buffers -->
<g id="node3" class="node"><title>scatter_in_buffers</title>
<polygon fill="#607d8b" stroke="#607d8b" points="188.5,-401 69.5,-401 69.5,-365 188.5,-365 188.5,-401"/>
<text text-anchor="middle" x="129" y="-379.9" font-family="Noto Sans" font-size="12.00" fill="white">scatter_in_buffers</text>
</g>
<!-- scatter_in_bucket&#45;&gt;scatter_in_buffers -->
<g id="edge2" class="edge"><title>scatter_in_bucket&#45;&gt;scatter_in_buffers</title>
<path fill="none" stroke="#212121" stroke-width="2" d="M129,-437.955C129,-437.955 129,-411.09 129,-411.09"/>
<polygon fill="#212121" stroke="#212121" stroke-width="2" points="132.5,-411.09 129,-401.09 125.5,-411.09 132.5,-411.09"/>
</g>
<!-- parity_generation -->
<g id="node4" class="node"><title>parity_generation</title>
<polygon fill="#607d8b" stroke="#607d8b" points="188,-328 70,-328 70,-292 188,-292 188,-328"/>
<text text-anchor="middle" x="129" y="-306.9" font-family="Noto Sans" font-size="12.00" fill="white">parity_generation</text>
</g>
<!-- scatter_in_buffers&#45;&gt;parity_generation -->
<g id="edge3" class="edge"><title>scatter_in_buffers&#45;&gt;parity_generation</title>
<path fill="none" stroke="#212121" stroke-width="2" d="M129,-364.955C129,-364.955 129,-338.09 129,-338.09"/>
<polygon fill="#212121" stroke="#212121" stroke-width="2" points="132.5,-338.09 129,-328.09 125.5,-338.09 132.5,-338.09"/>
</g>
<!-- token_request -->
<g id="node5" class="node"><title>token_request</title>
<polygon fill="#607d8b" stroke="#607d8b" points="178.5,-255 79.5,-255 79.5,-219 178.5,-219 178.5,-255"/>
<text text-anchor="middle" x="129" y="-233.9" font-family="Noto Sans" font-size="12.00" fill="white">token_request</text>
</g>
<!-- parity_generation&#45;&gt;token_request -->
<g id="edge4" class="edge"><title>parity_generation&#45;&gt;token_request</title>
<path fill="none" stroke="#212121" stroke-width="2" d="M129,-291.955C129,-291.955 129,-265.09 129,-265.09"/>
<polygon fill="#212121" stroke="#212121" stroke-width="2" points="132.5,-265.09 129,-255.09 125.5,-265.09 132.5,-265.09"/>
</g>
<!-- token_condition -->
<g id="node6" class="node"><title>token_condition</title>
<polygon fill="#607d8b" stroke="#607d8b" points="129,-182 15.6511,-164 129,-146 242.349,-164 129,-182"/>
<text text-anchor="middle" x="129" y="-160.9" font-family="Noto Sans" font-size="12.00" fill="white">Tokens Available &gt; 0</text>
</g>
<!-- token_request&#45;&gt;token_condition -->
<g id="edge5" class="edge"><title>token_request&#45;&gt;token_condition</title>
<path fill="none" stroke="#212121" stroke-width="2" d="M129,-218.955C129,-218.955 129,-192.09 129,-192.09"/>
<polygon fill="#212121" stroke="#212121" stroke-width="2" points="132.5,-192.09 129,-182.09 125.5,-192.09 132.5,-192.09"/>
</g>
<!-- token_granted -->
<g id="node7" class="node"><title>token_granted</title>
<polygon fill="#607d8b" stroke="#607d8b" points="117.5,-109 16.5,-109 16.5,-73 117.5,-73 117.5,-109"/>
<text text-anchor="middle" x="67" y="-87.9" font-family="Noto Sans" font-size="12.00" fill="white">token_granted</text>
</g>
<!-- token_condition&#45;&gt;token_granted -->
<g id="edge6" class="edge"><title>token_condition&#45;&gt;token_granted</title>
<path fill="none" stroke="#4caf50" stroke-width="2" d="M67,-155.626C67,-155.626 67,-119.286 67,-119.286"/>
<polygon fill="#4caf50" stroke="#4caf50" stroke-width="2" points="70.5001,-119.286 67,-109.286 63.5001,-119.286 70.5001,-119.286"/>
</g>
<!-- wait -->
<g id="node8" class="node"><title>wait</title>
<polygon fill="#607d8b" stroke="#607d8b" points="190,-109 136,-109 136,-73 190,-73 190,-109"/>
<text text-anchor="middle" x="163" y="-87.9" font-family="Noto Sans" font-size="12.00" fill="white">wait</text>
</g>
<!-- token_condition&#45;&gt;wait -->
<g id="edge7" class="edge"><title>token_condition&#45;&gt;wait</title>
<path fill="none" stroke="#f44336" stroke-width="2" d="M154,-149.925C154,-149.925 154,-119.186 154,-119.186"/>
<polygon fill="#f44336" stroke="#f44336" stroke-width="2" points="157.5,-119.186 154,-109.186 150.5,-119.186 157.5,-119.186"/>
</g>
<!-- communicate_data -->
<g id="node9" class="node"><title>communicate_data</title>
<polygon fill="#607d8b" stroke="#607d8b" points="129.5,-36 4.5,-36 4.5,-0 129.5,-0 129.5,-36"/>
<text text-anchor="middle" x="67" y="-14.9" font-family="Noto Sans" font-size="12.00" fill="white">communicate_data</text>
</g>
<!-- token_granted&#45;&gt;communicate_data -->
<g id="edge9" class="edge"><title>token_granted&#45;&gt;communicate_data</title>
<path fill="none" stroke="#212121" stroke-width="2" d="M67,-72.9551C67,-72.9551 67,-46.0904 67,-46.0904"/>
<polygon fill="#212121" stroke="#212121" stroke-width="2" points="70.5001,-46.0903 67,-36.0904 63.5001,-46.0904 70.5001,-46.0903"/>
</g>
<!-- wait&#45;&gt;token_condition -->
<g id="edge8" class="edge"><title>wait&#45;&gt;token_condition</title>
<path fill="none" stroke="#212121" stroke-width="2" d="M172,-109.045C172,-109.045 172,-142.746 172,-142.746"/>
<polygon fill="#212121" stroke="#212121" stroke-width="2" points="168.5,-142.746 172,-152.746 175.5,-142.746 168.5,-142.746"/>
</g>
<!-- recv_ack -->
<g id="node10" class="node"><title>recv_ack</title>
<polygon fill="#607d8b" stroke="#607d8b" points="327.5,-578 262.5,-578 262.5,-542 327.5,-542 327.5,-578"/>
<text text-anchor="middle" x="295" y="-556.9" font-family="Noto Sans" font-size="12.00" fill="white">recv_ack</text>
</g>
<!-- token_release -->
<g id="node11" class="node"><title>token_release</title>
<polygon fill="#607d8b" stroke="#607d8b" points="343,-474 247,-474 247,-438 343,-438 343,-474"/>
<text text-anchor="middle" x="295" y="-452.9" font-family="Noto Sans" font-size="12.00" fill="white">token_release</text>
</g>
<!-- recv_ack&#45;&gt;token_release -->
<g id="edge10" class="edge"><title>recv_ack&#45;&gt;token_release</title>
<path fill="none" stroke="#212121" stroke-width="2" d="M295,-541.885C295,-541.885 295,-484.257 295,-484.257"/>
<polygon fill="#212121" stroke="#212121" stroke-width="2" points="298.5,-484.257 295,-474.257 291.5,-484.257 298.5,-484.257"/>
</g>
<!-- read_data -->
<g id="node12" class="node"><title>read_data</title>
<polygon fill="#607d8b" stroke="#607d8b" points="522,-578 448,-578 448,-542 522,-542 522,-578"/>
<text text-anchor="middle" x="485" y="-556.9" font-family="Noto Sans" font-size="12.00" fill="white">read_data</text>
</g>
<!-- gather_targets -->
<g id="node13" class="node"><title>gather_targets</title>
<polygon fill="#607d8b" stroke="#607d8b" points="475.5,-474 374.5,-474 374.5,-438 475.5,-438 475.5,-474"/>
<text text-anchor="middle" x="425" y="-452.9" font-family="Noto Sans" font-size="12.00" fill="white">gather_targets</text>
</g>
<!-- read_data&#45;&gt;gather_targets -->
<g id="edge11" class="edge"><title>read_data&#45;&gt;gather_targets</title>
<path fill="none" stroke="#212121" stroke-width="2" d="M461.75,-541.885C461.75,-541.885 461.75,-484.257 461.75,-484.257"/>
<polygon fill="#212121" stroke="#212121" stroke-width="2" points="465.25,-484.257 461.75,-474.257 458.25,-484.257 465.25,-484.257"/>
<text text-anchor="middle" x="470.5" y="-516" font-family="Noto Sans" font-size="10.00">Random</text>
</g>
<!-- finished_reading -->
<g id="node19" class="node"><title>finished_reading</title>
<polygon fill="#607d8b" stroke="#607d8b" points="594,-474 496.492,-456 594,-438 691.508,-456 594,-474"/>
<text text-anchor="middle" x="594" y="-452.9" font-family="Noto Sans" font-size="12.00" fill="white">finished_reading</text>
</g>
<!-- read_data&#45;&gt;finished_reading -->
<g id="edge18" class="edge"><title>read_data&#45;&gt;finished_reading</title>
<path fill="none" stroke="#212121" stroke-width="2" d="M509.248,-541.885C509.248,-541.885 509.248,-468.468 509.248,-468.468"/>
<polygon fill="#212121" stroke="#212121" stroke-width="2" points="512.748,-468.468 509.248,-458.468 505.748,-468.468 512.748,-468.468"/>
<text text-anchor="middle" x="554.5" y="-516" font-family="Noto Sans" font-size="10.00">linear</text>
</g>
<!-- token_request1 -->
<g id="node14" class="node"><title>token_request1</title>
<polygon fill="#607d8b" stroke="#607d8b" points="461,-401 355,-401 355,-365 461,-365 461,-401"/>
<text text-anchor="middle" x="408" y="-379.9" font-family="Noto Sans" font-size="12.00" fill="white">token_request1</text>
</g>
<!-- gather_targets&#45;&gt;token_request1 -->
<g id="edge12" class="edge"><title>gather_targets&#45;&gt;token_request1</title>
<path fill="none" stroke="#212121" stroke-width="2" d="M417.75,-437.955C417.75,-437.955 417.75,-411.09 417.75,-411.09"/>
<polygon fill="#212121" stroke="#212121" stroke-width="2" points="421.25,-411.09 417.75,-401.09 414.25,-411.09 421.25,-411.09"/>
</g>
<!-- token_condition1 -->
<g id="node15" class="node"><title>token_condition1</title>
<polygon fill="#607d8b" stroke="#607d8b" points="386,-328 272.651,-310 386,-292 499.349,-310 386,-328"/>
<text text-anchor="middle" x="386" y="-306.9" font-family="Noto Sans" font-size="12.00" fill="white">Tokens Available &gt; 0</text>
</g>
<!-- token_request1&#45;&gt;token_condition1 -->
<g id="edge13" class="edge"><title>token_request1&#45;&gt;token_condition1</title>
<path fill="none" stroke="#212121" stroke-width="2" d="M408,-364.955C408,-364.955 408,-334.891 408,-334.891"/>
<polygon fill="#212121" stroke="#212121" stroke-width="2" points="411.5,-334.891 408,-324.891 404.5,-334.891 411.5,-334.891"/>
</g>
<!-- token_granted1 -->
<g id="node16" class="node"><title>token_granted1</title>
<polygon fill="#607d8b" stroke="#607d8b" points="379.5,-255 272.5,-255 272.5,-219 379.5,-219 379.5,-255"/>
<text text-anchor="middle" x="326" y="-233.9" font-family="Noto Sans" font-size="12.00" fill="white">token_granted1</text>
</g>
<!-- token_condition1&#45;&gt;token_granted1 -->
<g id="edge14" class="edge"><title>token_condition1&#45;&gt;token_granted1</title>
<path fill="none" stroke="#4caf50" stroke-width="2" d="M326.163,-301.339C326.163,-301.339 326.163,-265.13 326.163,-265.13"/>
<polygon fill="#4caf50" stroke="#4caf50" stroke-width="2" points="329.663,-265.13 326.163,-255.13 322.663,-265.13 329.663,-265.13"/>
</g>
<!-- wait1 -->
<g id="node17" class="node"><title>wait1</title>
<polygon fill="#607d8b" stroke="#607d8b" points="452,-255 398,-255 398,-219 452,-219 452,-255"/>
<text text-anchor="middle" x="425" y="-233.9" font-family="Noto Sans" font-size="12.00" fill="white">wait1</text>
</g>
<!-- token_condition1&#45;&gt;wait1 -->
<g id="edge15" class="edge"><title>token_condition1&#45;&gt;wait1</title>
<path fill="none" stroke="#f44336" stroke-width="2" d="M416,-296.611C416,-296.611 416,-265.253 416,-265.253"/>
<polygon fill="#f44336" stroke="#f44336" stroke-width="2" points="419.5,-265.253 416,-255.253 412.5,-265.253 419.5,-265.253"/>
</g>
<!-- send__read_request -->
<g id="node18" class="node"><title>send__read_request</title>
<polygon fill="#607d8b" stroke="#607d8b" points="391.5,-182 260.5,-182 260.5,-146 391.5,-146 391.5,-182"/>
<text text-anchor="middle" x="326" y="-160.9" font-family="Noto Sans" font-size="12.00" fill="white">send__read_request</text>
</g>
<!-- token_granted1&#45;&gt;send__read_request -->
<g id="edge17" class="edge"><title>token_granted1&#45;&gt;send__read_request</title>
<path fill="none" stroke="#212121" stroke-width="2" d="M326,-218.955C326,-218.955 326,-192.09 326,-192.09"/>
<polygon fill="#212121" stroke="#212121" stroke-width="2" points="329.5,-192.09 326,-182.09 322.5,-192.09 329.5,-192.09"/>
</g>
<!-- wait1&#45;&gt;token_condition1 -->
<g id="edge16" class="edge"><title>wait1&#45;&gt;token_condition1</title>
<path fill="none" stroke="#212121" stroke-width="2" d="M434,-255.045C434,-255.045 434,-289.597 434,-289.597"/>
<polygon fill="#212121" stroke="#212121" stroke-width="2" points="430.5,-289.597 434,-299.597 437.5,-289.597 430.5,-289.597"/>
</g>
<!-- gather_target -->
<g id="node21" class="node"><title>gather_target</title>
<polygon fill="#607d8b" stroke="#607d8b" points="610.5,-401 515.5,-401 515.5,-365 610.5,-365 610.5,-401"/>
<text text-anchor="middle" x="563" y="-379.9" font-family="Noto Sans" font-size="12.00" fill="white">gather_target</text>
</g>
<!-- finished_reading&#45;&gt;gather_target -->
<g id="edge19" class="edge"><title>finished_reading&#45;&gt;gather_target</title>
<path fill="none" stroke="#f44336" stroke-width="2" d="M563,-443.617C563,-443.617 563,-411.205 563,-411.205"/>
<polygon fill="#f44336" stroke="#f44336" stroke-width="2" points="566.5,-411.205 563,-401.205 559.5,-411.205 566.5,-411.205"/>
</g>
<!-- end -->
<g id="node24" class="node"><title>end</title>
<polygon fill="none" stroke="#607d8b" stroke-width="2" points="683,-401 629,-401 629,-365 683,-365 683,-401"/>
<text text-anchor="middle" x="656" y="-379.9" font-family="Noto
    Sans" font-size="12.00" fill="#607d8b">End</text>
</g>
<!-- finished_reading&#45;&gt;end -->
<g id="edge24" class="edge"><title>finished_reading&#45;&gt;end</title>
<path fill="none" stroke="#4caf50" stroke-width="2" d="M656,-449.263C656,-449.263 656,-411.303 656,-411.303"/>
<polygon fill="#4caf50" stroke="#4caf50" stroke-width="2" points="659.5,-411.303 656,-401.303 652.5,-411.303 659.5,-411.303"/>
</g>
<!-- token_request_2 -->
<g id="node20" class="node"><title>token_request_2</title>
<polygon fill="none" stroke="#607d8b" stroke-width="2" stroke-dasharray="5,2" points="642,-328 542,-328 542,-292 642,-292 642,-328"/>
<text text-anchor="middle" x="592" y="-306.9" font-family="Noto
    Sans" font-size="12.00" fill="#607d8b">Token Request</text>
</g>
<!-- send_single_read_req -->
<g id="node22" class="node"><title>send_single_read_req</title>
<polygon fill="#607d8b" stroke="#607d8b" points="677,-255 537,-255 537,-219 677,-219 677,-255"/>
<text text-anchor="middle" x="607" y="-233.9" font-family="Noto Sans" font-size="12.00" fill="white">send_single_read_req</text>
</g>
<!-- token_request_2&#45;&gt;send_single_read_req -->
<g id="edge21" class="edge"><title>token_request_2&#45;&gt;send_single_read_req</title>
<path fill="none" stroke="#212121" stroke-width="2" d="M592,-291.955C592,-291.955 592,-265.09 592,-265.09"/>
<polygon fill="#212121" stroke="#212121" stroke-width="2" points="595.5,-265.09 592,-255.09 588.5,-265.09 595.5,-265.09"/>
</g>
<!-- gather_target&#45;&gt;token_request_2 -->
<g id="edge20" class="edge"><title>gather_target&#45;&gt;token_request_2</title>
<path fill="none" stroke="#212121" stroke-width="2" d="M576.25,-364.955C576.25,-364.955 576.25,-338.09 576.25,-338.09"/>
<polygon fill="#212121" stroke="#212121" stroke-width="2" points="579.75,-338.09 576.25,-328.09 572.75,-338.09 579.75,-338.09"/>
</g>
<!-- receive_answer -->
<g id="node23" class="node"><title>receive_answer</title>
<polygon fill="#607d8b" stroke="#607d8b" points="737,-182 633,-182 633,-146 737,-146 737,-182"/>
<text text-anchor="middle" x="685" y="-160.9" font-family="Noto Sans" font-size="12.00" fill="white">receive_answer</text>
</g>
<!-- send_single_read_req&#45;&gt;receive_answer -->
<g id="edge22" class="edge"><title>send_single_read_req&#45;&gt;receive_answer</title>
<path fill="none" stroke="#212121" stroke-width="2" stroke-dasharray="1,5" d="M655,-218.955C655,-218.955 655,-192.09 655,-192.09"/>
<polygon fill="#212121" stroke="#212121" stroke-width="2" points="658.5,-192.09 655,-182.09 651.5,-192.09 658.5,-192.09"/>
</g>
<!-- receive_answer&#45;&gt;finished_reading -->
<g id="edge23" class="edge"><title>receive_answer&#45;&gt;finished_reading</title>
<path fill="none" stroke="#212121" stroke-width="2" d="M687.252,-182.266C687.252,-182.266 687.252,-445.061 687.252,-445.061"/>
<polygon fill="#212121" stroke="#212121" stroke-width="2" points="683.752,-445.061 687.252,-455.061 690.752,-445.061 683.752,-445.061"/>
</g>
<!-- token_release1 -->
<g id="node25" class="node"><title>token_release1</title>
<polygon fill="#607d8b" stroke="#607d8b" points="848,-401 752,-401 752,-365 848,-365 848,-401"/>
<text text-anchor="middle" x="800" y="-379.9" font-family="Noto Sans" font-size="12.00" fill="white">token_release</text>
</g>
<!-- write_data_to_disk -->
<g id="node28" class="node"><title>write_data_to_disk</title>
<polygon fill="#607d8b" stroke="#607d8b" points="861,-328 739,-328 739,-292 861,-292 861,-328"/>
<text text-anchor="middle" x="800" y="-306.9" font-family="Noto Sans" font-size="12.00" fill="white">write_data_to_disk</text>
</g>
<!-- token_release1&#45;&gt;write_data_to_disk -->
<g id="edge27" class="edge"><title>token_release1&#45;&gt;write_data_to_disk</title>
<path fill="none" stroke="#212121" stroke-width="2" d="M800,-364.955C800,-364.955 800,-338.09 800,-338.09"/>
<polygon fill="#212121" stroke="#212121" stroke-width="2" points="803.5,-338.09 800,-328.09 796.5,-338.09 803.5,-338.09"/>
</g>
<!-- recv_data -->
<g id="node26" class="node"><title>recv_data</title>
<polygon fill="#607d8b" stroke="#607d8b" points="835.5,-578 764.5,-578 764.5,-542 835.5,-542 835.5,-578"/>
<text text-anchor="middle" x="800" y="-556.9" font-family="Noto Sans" font-size="12.00" fill="white">recv_data</text>
</g>
<!-- network_communication -->
<g id="node27" class="node"><title>network_communication</title>
<polygon fill="#607d8b" stroke="#607d8b" points="879.5,-474 720.5,-474 720.5,-438 879.5,-438 879.5,-474"/>
<text text-anchor="middle" x="800" y="-452.9" font-family="Noto Sans" font-size="12.00" fill="white">network_communication</text>
</g>
<!-- recv_data&#45;&gt;network_communication -->
<g id="edge25" class="edge"><title>recv_data&#45;&gt;network_communication</title>
<path fill="none" stroke="#212121" stroke-width="2" d="M800,-541.885C800,-541.885 800,-484.257 800,-484.257"/>
<polygon fill="#212121" stroke="#212121" stroke-width="2" points="803.5,-484.257 800,-474.257 796.5,-484.257 803.5,-484.257"/>
</g>
<!-- network_communication&#45;&gt;token_release1 -->
<g id="edge26" class="edge"><title>network_communication&#45;&gt;token_release1</title>
<path fill="none" stroke="#212121" stroke-width="2" d="M800,-437.955C800,-437.955 800,-411.09 800,-411.09"/>
<polygon fill="#212121" stroke="#212121" stroke-width="2" points="803.5,-411.09 800,-401.09 796.5,-411.09 803.5,-411.09"/>
</g>
</g>
</svg>
