<?xml version="1.0" encoding="UTF-8" standalone="no"?>
<!DOCTYPE svg PUBLIC "-//W3C//DTD SVG 1.1//EN"
 "http://www.w3.org/Graphics/SVG/1.1/DTD/svg11.dtd">
<!-- Generated by graphviz version 2.38.0 (20140413.2041)
 -->
<!-- Title: System Pages: 1 -->
<svg width="910pt" height="801pt"
 viewBox="0.00 0.00 910.00 801.00" xmlns="http://www.w3.org/2000/svg" xmlns:xlink="http://www.w3.org/1999/xlink">
<g id="graph0" class="graph" transform="scale(1 1) rotate(0) translate(4 797)">
<title>System</title>
<polygon fill="white" stroke="none" points="-4,4 -4,-797 906,-797 906,4 -4,4"/>
<text text-anchor="middle" x="451" y="-7.8" font-family="Times,serif" font-size="14.00">Server</text>
<g id="clust1" class="cluster"><title>clusterControlPlane</title>
<polygon fill="none" stroke="black" stroke-dasharray="5,2" points="8,-159 8,-749 284,-749 284,-159 8,-159"/>
<text text-anchor="middle" x="146" y="-733.8" font-family="Times,serif" font-size="14.00">Control plane</text>
</g>
<g id="clust2" class="cluster"><title>clusterDataPlane</title>
<polygon fill="none" stroke="black" stroke-dasharray="5,2" points="292,-530 292,-749 432,-749 432,-530 292,-530"/>
<text text-anchor="middle" x="362" y="-733.8" font-family="Times,serif" font-size="14.00">Data Plane</text>
</g>
<g id="clust3" class="cluster"><title>clusterErasureCoding</title>
<polygon fill="none" stroke="black" stroke-dasharray="5,2" points="555,-87 555,-522 701,-522 701,-87 555,-87"/>
<text text-anchor="middle" x="628" y="-506.8" font-family="Times,serif" font-size="14.00">Erasure Coding</text>
</g>
<!-- receive_write_request -->
<g id="node1" class="node"><title>receive_write_request</title>
<polygon fill="#607d8b" stroke="#607d8b" points="333,-793 201,-793 201,-757 333,-757 333,-793"/>
<text text-anchor="middle" x="267" y="-771.9" font-family="Liberation Sans" font-size="12.00" fill="white">receive_write_request</text>
</g>
<!-- control_plane -->
<g id="node2" class="node"><title>control_plane</title>
<polygon fill="none" stroke="#607d8b" stroke-width="2" points="225,-718 139,-718 139,-682 225,-682 225,-718"/>
<text text-anchor="middle" x="182" y="-696.9" font-family="Liberation Sans" font-size="12.00" fill="#424242">control_plane</text>
</g>
<!-- receive_write_request&#45;&gt;control_plane -->
<g id="edge1" class="edge"><title>receive_write_request&#45;&gt;control_plane</title>
<path fill="none" stroke="#424242" stroke-width="2" d="M213,-756.845C213,-756.845 213,-728.248 213,-728.248"/>
<polygon fill="#424242" stroke="#424242" stroke-width="2" points="216.5,-728.248 213,-718.248 209.5,-728.248 216.5,-728.248"/>
</g>
<!-- split_buffer_in_disks -->
<g id="node3" class="node"><title>split_buffer_in_disks</title>
<polygon fill="#607d8b" stroke="#607d8b" points="424,-718 300,-718 300,-682 424,-682 424,-718"/>
<text text-anchor="middle" x="362" y="-696.9" font-family="Liberation Sans" font-size="12.00" fill="white">split_buffer_in_disks</text>
</g>
<!-- receive_write_request&#45;&gt;split_buffer_in_disks -->
<g id="edge2" class="edge"><title>receive_write_request&#45;&gt;split_buffer_in_disks</title>
<path fill="none" stroke="#424242" stroke-width="2" d="M316.5,-756.845C316.5,-756.845 316.5,-728.248 316.5,-728.248"/>
<polygon fill="#424242" stroke="#424242" stroke-width="2" points="320,-728.248 316.5,-718.248 313,-728.248 320,-728.248"/>
</g>
<!-- journal -->
<g id="node8" class="node"><title>journal</title>
<polygon fill="#607d8b" stroke="#607d8b" points="70,-574 16,-574 16,-538 70,-538 70,-574"/>
<text text-anchor="middle" x="43" y="-552.9" font-family="Liberation Sans" font-size="12.00" fill="white">journal</text>
</g>
<!-- control_plane&#45;&gt;journal -->
<g id="edge3" class="edge"><title>control_plane&#45;&gt;journal</title>
<path fill="none" stroke="#424242" stroke-width="2" d="M138.781,-700C97.9777,-700 43,-700 43,-700 43,-700 43,-584.238 43,-584.238"/>
<polygon fill="#424242" stroke="#424242" stroke-width="2" points="46.5001,-584.238 43,-574.238 39.5001,-584.238 46.5001,-584.238"/>
</g>
<!-- metadata_propagation -->
<g id="node9" class="node"><title>metadata_propagation</title>
<polygon fill="#607d8b" stroke="#607d8b" points="250,-646 114,-646 114,-610 250,-610 250,-646"/>
<text text-anchor="middle" x="182" y="-624.9" font-family="Liberation Sans" font-size="12.00" fill="white">metadata_propagation</text>
</g>
<!-- control_plane&#45;&gt;metadata_propagation -->
<g id="edge5" class="edge"><title>control_plane&#45;&gt;metadata_propagation</title>
<path fill="none" stroke="#424242" stroke-width="2" d="M182,-681.831C182,-681.831 182,-656.413 182,-656.413"/>
<polygon fill="#424242" stroke="#424242" stroke-width="2" points="185.5,-656.413 182,-646.413 178.5,-656.413 185.5,-656.413"/>
</g>
<!-- track_cmloids -->
<g id="node13" class="node"><title>track_cmloids</title>
<polygon fill="#607d8b" stroke="#607d8b" points="405.5,-646 316.5,-646 316.5,-610 405.5,-610 405.5,-646"/>
<text text-anchor="middle" x="361" y="-624.9" font-family="Liberation Sans" font-size="12.00" fill="white">track_cmloids</text>
</g>
<!-- split_buffer_in_disks&#45;&gt;track_cmloids -->
<g id="edge16" class="edge"><title>split_buffer_in_disks&#45;&gt;track_cmloids</title>
<path fill="none" stroke="#424242" stroke-width="2" d="M361,-681.831C361,-681.831 361,-656.413 361,-656.413"/>
<polygon fill="#424242" stroke="#424242" stroke-width="2" points="364.5,-656.413 361,-646.413 357.5,-656.413 364.5,-656.413"/>
</g>
<!-- end -->
<g id="node4" class="node"><title>end</title>
<polygon fill="none" stroke="#607d8b" stroke-width="2" points="211.127,-177.544 211.127,-192.456 189.379,-203 158.621,-203 136.873,-192.456 136.873,-177.544 158.621,-167 189.379,-167 211.127,-177.544"/>
<text text-anchor="middle" x="174" y="-181.9" font-family="Liberation Sans" font-size="12.00" fill="#424242">wait_all</text>
</g>
<!-- send_ack -->
<g id="node12" class="node"><title>send_ack</title>
<polygon fill="#607d8b" stroke="#607d8b" points="286,-131 218,-131 218,-95 286,-95 286,-131"/>
<text text-anchor="middle" x="252" y="-109.9" font-family="Liberation Sans" font-size="12.00" fill="white">send_ack</text>
</g>
<!-- end&#45;&gt;send_ack -->
<g id="edge15" class="edge"><title>end&#45;&gt;send_ack</title>
<path fill="none" stroke="#424242" stroke-width="2" d="M211.265,-185C228.834,-185 246,-185 246,-185 246,-185 246,-141.169 246,-141.169"/>
<polygon fill="#424242" stroke="#424242" stroke-width="2" points="249.5,-141.169 246,-131.169 242.5,-141.169 249.5,-141.169"/>
</g>
<!-- is_eager_commit -->
<g id="node5" class="node"><title>is_eager_commit</title>
<polygon fill="#607d8b" stroke="#607d8b" points="182,-574 87.9566,-556 182,-538 276.043,-556 182,-574"/>
<text text-anchor="middle" x="182" y="-552.9" font-family="Liberation Sans" font-size="12.00" fill="white">is_eager_commit</text>
</g>
<!-- enough_req -->
<g id="node6" class="node"><title>enough_req</title>
<polygon fill="#607d8b" stroke="#607d8b" points="141,-491 72.449,-473 141,-455 209.551,-473 141,-491"/>
<text text-anchor="middle" x="141" y="-469.9" font-family="Liberation Sans" font-size="12.00" fill="white">enough_req</text>
</g>
<!-- is_eager_commit&#45;&gt;enough_req -->
<g id="edge8" class="edge"><title>is_eager_commit&#45;&gt;enough_req</title>
<path fill="none" stroke="#f44336" stroke-width="2" d="M148.877,-544.108C148.877,-544.108 148.877,-499.146 148.877,-499.146"/>
<polygon fill="#f44336" stroke="#f44336" stroke-width="2" points="152.377,-499.146 148.877,-489.146 145.377,-499.146 152.377,-499.146"/>
</g>
<!-- send_metadata -->
<g id="node10" class="node"><title>send_metadata</title>
<polygon fill="#607d8b" stroke="#607d8b" points="259,-347 161,-347 161,-311 259,-311 259,-347"/>
<text text-anchor="middle" x="210" y="-325.9" font-family="Liberation Sans" font-size="12.00" fill="white">send_metadata</text>
</g>
<!-- is_eager_commit&#45;&gt;send_metadata -->
<g id="edge7" class="edge"><title>is_eager_commit&#45;&gt;send_metadata</title>
<path fill="none" stroke="#4caf50" stroke-width="2" d="M234.388,-547.921C234.388,-547.921 234.388,-357.067 234.388,-357.067"/>
<polygon fill="#4caf50" stroke="#4caf50" stroke-width="2" points="237.888,-357.067 234.388,-347.067 230.888,-357.068 237.888,-357.067"/>
</g>
<!-- timeout -->
<g id="node7" class="node"><title>timeout</title>
<polygon fill="#607d8b" stroke="#607d8b" points="141,-419 93.2368,-401 141,-383 188.763,-401 141,-419"/>
<text text-anchor="middle" x="141" y="-397.9" font-family="Liberation Sans" font-size="12.00" fill="white">timeout</text>
</g>
<!-- enough_req&#45;&gt;timeout -->
<g id="edge10" class="edge"><title>enough_req&#45;&gt;timeout</title>
<path fill="none" stroke="#f44336" stroke-width="2" d="M141,-454.831C141,-454.831 141,-429.413 141,-429.413"/>
<polygon fill="#f44336" stroke="#f44336" stroke-width="2" points="144.5,-429.413 141,-419.413 137.5,-429.413 144.5,-429.413"/>
</g>
<!-- enough_req&#45;&gt;send_metadata -->
<g id="edge9" class="edge"><title>enough_req&#45;&gt;send_metadata</title>
<path fill="none" stroke="#4caf50" stroke-width="2" d="M199.328,-470.252C199.328,-470.252 199.328,-357.188 199.328,-357.188"/>
<polygon fill="#4caf50" stroke="#4caf50" stroke-width="2" points="202.828,-357.187 199.328,-347.188 195.828,-357.188 202.828,-357.187"/>
</g>
<!-- timeout&#45;&gt;end -->
<g id="edge11" class="edge"><title>timeout&#45;&gt;end</title>
<path fill="none" stroke="#f44336" stroke-width="2" d="M145.343,-384.409C145.343,-384.409 145.343,-206.935 145.343,-206.935"/>
<polygon fill="#f44336" stroke="#f44336" stroke-width="2" points="148.844,-206.935 145.343,-196.935 141.844,-206.935 148.844,-206.935"/>
</g>
<!-- timeout&#45;&gt;send_metadata -->
<g id="edge12" class="edge"><title>timeout&#45;&gt;send_metadata</title>
<path fill="none" stroke="#4caf50" stroke-width="2" d="M174.941,-395.35C174.941,-395.35 174.941,-357.035 174.941,-357.035"/>
<polygon fill="#4caf50" stroke="#4caf50" stroke-width="2" points="178.441,-357.035 174.941,-347.035 171.441,-357.035 178.441,-357.035"/>
</g>
<!-- journal&#45;&gt;end -->
<g id="edge4" class="edge"><title>journal&#45;&gt;end</title>
<path fill="none" stroke="#424242" stroke-width="2" d="M43,-537.855C43,-463.369 43,-185 43,-185 43,-185 126.811,-185 126.811,-185"/>
<polygon fill="#424242" stroke="#424242" stroke-width="2" points="126.811,-188.5 136.811,-185 126.811,-181.5 126.811,-188.5"/>
</g>
<!-- metadata_propagation&#45;&gt;is_eager_commit -->
<g id="edge6" class="edge"><title>metadata_propagation&#45;&gt;is_eager_commit</title>
<path fill="none" stroke="#424242" stroke-width="2" d="M182,-609.831C182,-609.831 182,-584.413 182,-584.413"/>
<polygon fill="#424242" stroke="#424242" stroke-width="2" points="185.5,-584.413 182,-574.413 178.5,-584.413 185.5,-584.413"/>
</g>
<!-- recv_metadata_ack -->
<g id="node11" class="node"><title>recv_metadata_ack</title>
<polygon fill="#607d8b" stroke="#607d8b" points="274,-275 154,-275 154,-239 274,-239 274,-275"/>
<text text-anchor="middle" x="214" y="-253.9" font-family="Liberation Sans" font-size="12.00" fill="white">recv_metadata_ack</text>
</g>
<!-- send_metadata&#45;&gt;recv_metadata_ack -->
<g id="edge13" class="edge"><title>send_metadata&#45;&gt;recv_metadata_ack</title>
<path fill="none" stroke="#424242" stroke-width="2" stroke-dasharray="1,5" d="M210,-310.831C210,-310.831 210,-285.413 210,-285.413"/>
<polygon fill="#424242" stroke="#424242" stroke-width="2" points="213.5,-285.413 210,-275.413 206.5,-285.413 213.5,-285.413"/>
</g>
<!-- recv_metadata_ack&#45;&gt;end -->
<g id="edge14" class="edge"><title>recv_metadata_ack&#45;&gt;end</title>
<path fill="none" stroke="#424242" stroke-width="2" d="M182.657,-238.831C182.657,-238.831 182.657,-213.413 182.657,-213.413"/>
<polygon fill="#424242" stroke="#424242" stroke-width="2" points="186.157,-213.413 182.657,-203.413 179.157,-213.413 186.157,-213.413"/>
</g>
<!-- write_data_to_disk -->
<g id="node14" class="node"><title>write_data_to_disk</title>
<polygon fill="#607d8b" stroke="#607d8b" points="417,-574 301,-574 301,-538 417,-538 417,-574"/>
<text text-anchor="middle" x="359" y="-552.9" font-family="Liberation Sans" font-size="12.00" fill="white">write_data_to_disk</text>
</g>
<!-- track_cmloids&#45;&gt;write_data_to_disk -->
<g id="edge17" class="edge"><title>track_cmloids&#45;&gt;write_data_to_disk</title>
<path fill="none" stroke="#424242" stroke-width="2" d="M361,-609.831C361,-609.831 361,-584.413 361,-584.413"/>
<polygon fill="#424242" stroke="#424242" stroke-width="2" points="364.5,-584.413 361,-574.413 357.5,-584.413 364.5,-584.413"/>
</g>
<!-- write_data_to_disk&#45;&gt;send_ack -->
<g id="edge20" class="edge"><title>write_data_to_disk&#45;&gt;send_ack</title>
<path fill="none" stroke="#424242" stroke-width="2" d="M300.691,-556C289.408,-556 281.011,-556 281.011,-556 281.011,-556 281.011,-141.192 281.011,-141.192"/>
<polygon fill="#424242" stroke="#424242" stroke-width="2" points="284.511,-141.192 281.011,-131.192 277.511,-141.192 284.511,-141.192"/>
</g>
<!-- receive_metadata_backup -->
<g id="node15" class="node"><title>receive_metadata_backup</title>
<polygon fill="#607d8b" stroke="#607d8b" points="591,-793 435,-793 435,-757 591,-757 591,-793"/>
<text text-anchor="middle" x="513" y="-771.9" font-family="Liberation Sans" font-size="12.00" fill="white">receive_metadata_backup</text>
</g>
<!-- update_local_DHT -->
<g id="node16" class="node"><title>update_local_DHT</title>
<polygon fill="#607d8b" stroke="#607d8b" points="570,-718 456,-718 456,-682 570,-682 570,-718"/>
<text text-anchor="middle" x="513" y="-696.9" font-family="Liberation Sans" font-size="12.00" fill="white">update_local_DHT</text>
</g>
<!-- receive_metadata_backup&#45;&gt;update_local_DHT -->
<g id="edge18" class="edge"><title>receive_metadata_backup&#45;&gt;update_local_DHT</title>
<path fill="none" stroke="#424242" stroke-width="2" d="M513,-756.845C513,-756.845 513,-728.248 513,-728.248"/>
<polygon fill="#424242" stroke="#424242" stroke-width="2" points="516.5,-728.248 513,-718.248 509.5,-728.248 516.5,-728.248"/>
</g>
<!-- send_metadata_ack -->
<g id="node17" class="node"><title>send_metadata_ack</title>
<polygon fill="#607d8b" stroke="#607d8b" points="575,-646 451,-646 451,-610 575,-610 575,-646"/>
<text text-anchor="middle" x="513" y="-624.9" font-family="Liberation Sans" font-size="12.00" fill="white">send_metadata_ack</text>
</g>
<!-- update_local_DHT&#45;&gt;send_metadata_ack -->
<g id="edge19" class="edge"><title>update_local_DHT&#45;&gt;send_metadata_ack</title>
<path fill="none" stroke="#424242" stroke-width="2" d="M513,-681.831C513,-681.831 513,-656.413 513,-656.413"/>
<polygon fill="#424242" stroke="#424242" stroke-width="2" points="516.5,-656.413 513,-646.413 509.5,-656.413 516.5,-656.413"/>
</g>
<!-- receive_read_request -->
<g id="node18" class="node"><title>receive_read_request</title>
<polygon fill="#607d8b" stroke="#607d8b" points="740.5,-793 609.5,-793 609.5,-757 740.5,-757 740.5,-793"/>
<text text-anchor="middle" x="675" y="-771.9" font-family="Liberation Sans" font-size="12.00" fill="white">receive_read_request</text>
</g>
<!-- gather_disk_location -->
<g id="node19" class="node"><title>gather_disk_location</title>
<polygon fill="#607d8b" stroke="#607d8b" points="737.5,-718 612.5,-718 612.5,-682 737.5,-682 737.5,-718"/>
<text text-anchor="middle" x="675" y="-696.9" font-family="Liberation Sans" font-size="12.00" fill="white">gather_disk_location</text>
</g>
<!-- receive_read_request&#45;&gt;gather_disk_location -->
<g id="edge21" class="edge"><title>receive_read_request&#45;&gt;gather_disk_location</title>
<path fill="none" stroke="#424242" stroke-width="2" d="M675,-756.845C675,-756.845 675,-728.248 675,-728.248"/>
<polygon fill="#424242" stroke="#424242" stroke-width="2" points="678.5,-728.248 675,-718.248 671.5,-728.248 678.5,-728.248"/>
</g>
<!-- read_disk_n -->
<g id="node20" class="node"><title>read_disk_n</title>
<polygon fill="#607d8b" stroke="#607d8b" points="716,-646 634,-646 634,-610 716,-610 716,-646"/>
<text text-anchor="middle" x="675" y="-624.9" font-family="Liberation Sans" font-size="12.00" fill="white">read_disk_n</text>
</g>
<!-- gather_disk_location&#45;&gt;read_disk_n -->
<g id="edge22" class="edge"><title>gather_disk_location&#45;&gt;read_disk_n</title>
<path fill="none" stroke="#424242" stroke-width="2" d="M654.5,-681.831C654.5,-681.831 654.5,-656.413 654.5,-656.413"/>
<polygon fill="#424242" stroke="#424242" stroke-width="2" points="658,-656.413 654.5,-646.413 651,-656.413 658,-656.413"/>
</g>
<!-- gather_disk_location&#45;&gt;read_disk_n -->
<g id="edge23" class="edge"><title>gather_disk_location&#45;&gt;read_disk_n</title>
<path fill="none" stroke="#424242" stroke-width="2" d="M675,-681.831C675,-681.831 675,-656.413 675,-656.413"/>
<polygon fill="#424242" stroke="#424242" stroke-width="2" points="678.5,-656.413 675,-646.413 671.5,-656.413 678.5,-656.413"/>
</g>
<!-- gather_disk_location&#45;&gt;read_disk_n -->
<g id="edge24" class="edge"><title>gather_disk_location&#45;&gt;read_disk_n</title>
<path fill="none" stroke="#424242" stroke-width="2" d="M695.5,-681.831C695.5,-681.831 695.5,-656.413 695.5,-656.413"/>
<polygon fill="#424242" stroke="#424242" stroke-width="2" points="699,-656.413 695.5,-646.413 692,-656.413 699,-656.413"/>
</g>
<!-- read_successful -->
<g id="node21" class="node"><title>read_successful</title>
<polygon fill="#607d8b" stroke="#607d8b" points="675,-574 587.144,-556 675,-538 762.856,-556 675,-574"/>
<text text-anchor="middle" x="675" y="-552.9" font-family="Liberation Sans" font-size="12.00" fill="white">read_successful</text>
</g>
<!-- read_disk_n&#45;&gt;read_successful -->
<g id="edge25" class="edge"><title>read_disk_n&#45;&gt;read_successful</title>
<path fill="none" stroke="#424242" stroke-width="2" d="M675,-609.831C675,-609.831 675,-584.413 675,-584.413"/>
<polygon fill="#424242" stroke="#424242" stroke-width="2" points="678.5,-584.413 675,-574.413 671.5,-584.413 678.5,-584.413"/>
</g>
<!-- send_data -->
<g id="node22" class="node"><title>send_data</title>
<polygon fill="#607d8b" stroke="#607d8b" points="710,-59 638,-59 638,-23 710,-23 710,-59"/>
<text text-anchor="middle" x="674" y="-37.9" font-family="Liberation Sans" font-size="12.00" fill="white">send_data</text>
</g>
<!-- read_successful&#45;&gt;send_data -->
<g id="edge26" class="edge"><title>read_successful&#45;&gt;send_data</title>
<path fill="none" stroke="#4caf50" stroke-width="2" d="M701.25,-543.27C701.25,-543.27 701.25,-69.0554 701.25,-69.0554"/>
<polygon fill="#4caf50" stroke="#4caf50" stroke-width="2" points="704.75,-69.0553 701.25,-59.0554 697.75,-69.0554 704.75,-69.0553"/>
</g>
<!-- erasure_coding -->
<g id="node23" class="node"><title>erasure_coding</title>
<polygon fill="none" stroke="#607d8b" stroke-width="2" points="687,-491 589,-491 589,-455 687,-455 687,-491"/>
<text text-anchor="middle" x="638" y="-469.9" font-family="Liberation Sans" font-size="12.00" fill="#424242">erasure_coding</text>
</g>
<!-- read_successful&#45;&gt;erasure_coding -->
<g id="edge27" class="edge"><title>read_successful&#45;&gt;erasure_coding</title>
<path fill="none" stroke="#f44336" stroke-width="2" d="M638,-545.488C638,-545.488 638,-501.311 638,-501.311"/>
<polygon fill="#f44336" stroke="#f44336" stroke-width="2" points="641.5,-501.311 638,-491.311 634.5,-501.311 641.5,-501.311"/>
</g>
<!-- gather_parity_map -->
<g id="node25" class="node"><title>gather_parity_map</title>
<polygon fill="#607d8b" stroke="#607d8b" points="687.5,-419 572.5,-419 572.5,-383 687.5,-383 687.5,-419"/>
<text text-anchor="middle" x="630" y="-397.9" font-family="Liberation Sans" font-size="12.00" fill="white">gather_parity_map</text>
</g>
<!-- erasure_coding&#45;&gt;gather_parity_map -->
<g id="edge28" class="edge"><title>erasure_coding&#45;&gt;gather_parity_map</title>
<path fill="none" stroke="#424242" stroke-width="2" d="M638,-454.831C638,-454.831 638,-429.413 638,-429.413"/>
<polygon fill="#424242" stroke="#424242" stroke-width="2" points="641.5,-429.413 638,-419.413 634.5,-429.413 641.5,-429.413"/>
</g>
<!-- wait_all_parity -->
<g id="node24" class="node"><title>wait_all_parity</title>
<polygon fill="none" stroke="#607d8b" stroke-width="2" points="666.127,-177.544 666.127,-192.456 644.379,-203 613.621,-203 591.873,-192.456 591.873,-177.544 613.621,-167 644.379,-167 666.127,-177.544"/>
<text text-anchor="middle" x="629" y="-181.9" font-family="Liberation Sans" font-size="12.00" fill="#424242">wait_all</text>
</g>
<!-- rebuild_missing_data -->
<g id="node28" class="node"><title>rebuild_missing_data</title>
<polygon fill="#607d8b" stroke="#607d8b" points="692.5,-131 563.5,-131 563.5,-95 692.5,-95 692.5,-131"/>
<text text-anchor="middle" x="628" y="-109.9" font-family="Liberation Sans" font-size="12.00" fill="white">rebuild_missing_data</text>
</g>
<!-- wait_all_parity&#45;&gt;rebuild_missing_data -->
<g id="edge36" class="edge"><title>wait_all_parity&#45;&gt;rebuild_missing_data</title>
<path fill="none" stroke="#424242" stroke-width="2" d="M629,-166.831C629,-166.831 629,-141.413 629,-141.413"/>
<polygon fill="#424242" stroke="#424242" stroke-width="2" points="632.5,-141.413 629,-131.413 625.5,-141.413 632.5,-141.413"/>
</g>
<!-- send_parity_request -->
<g id="node26" class="node"><title>send_parity_request</title>
<polygon fill="#607d8b" stroke="#607d8b" points="691.5,-347 568.5,-347 568.5,-311 691.5,-311 691.5,-347"/>
<text text-anchor="middle" x="630" y="-325.9" font-family="Liberation Sans" font-size="12.00" fill="white">send_parity_request</text>
</g>
<!-- gather_parity_map&#45;&gt;send_parity_request -->
<g id="edge29" class="edge"><title>gather_parity_map&#45;&gt;send_parity_request</title>
<path fill="none" stroke="#424242" stroke-width="2" d="M601.25,-382.831C601.25,-382.831 601.25,-357.413 601.25,-357.413"/>
<polygon fill="#424242" stroke="#424242" stroke-width="2" points="604.75,-357.413 601.25,-347.413 597.75,-357.413 604.75,-357.413"/>
</g>
<!-- gather_parity_map&#45;&gt;send_parity_request -->
<g id="edge30" class="edge"><title>gather_parity_map&#45;&gt;send_parity_request</title>
<path fill="none" stroke="#424242" stroke-width="2" d="M630,-382.831C630,-382.831 630,-357.413 630,-357.413"/>
<polygon fill="#424242" stroke="#424242" stroke-width="2" points="633.5,-357.413 630,-347.413 626.5,-357.413 633.5,-357.413"/>
</g>
<!-- gather_parity_map&#45;&gt;send_parity_request -->
<g id="edge31" class="edge"><title>gather_parity_map&#45;&gt;send_parity_request</title>
<path fill="none" stroke="#424242" stroke-width="2" d="M658.75,-382.831C658.75,-382.831 658.75,-357.413 658.75,-357.413"/>
<polygon fill="#424242" stroke="#424242" stroke-width="2" points="662.25,-357.413 658.75,-347.413 655.25,-357.413 662.25,-357.413"/>
</g>
<!-- recv_parity_request -->
<g id="node27" class="node"><title>recv_parity_request</title>
<polygon fill="#607d8b" stroke="#607d8b" points="689.5,-275 570.5,-275 570.5,-239 689.5,-239 689.5,-275"/>
<text text-anchor="middle" x="630" y="-253.9" font-family="Liberation Sans" font-size="12.00" fill="white">recv_parity_request</text>
</g>
<!-- send_parity_request&#45;&gt;recv_parity_request -->
<g id="edge32" class="edge"><title>send_parity_request&#45;&gt;recv_parity_request</title>
<path fill="none" stroke="#424242" stroke-width="2" stroke-dasharray="1,5" d="M600.25,-310.831C600.25,-310.831 600.25,-285.413 600.25,-285.413"/>
<polygon fill="#424242" stroke="#424242" stroke-width="2" points="603.75,-285.413 600.25,-275.413 596.75,-285.413 603.75,-285.413"/>
</g>
<!-- send_parity_request&#45;&gt;recv_parity_request -->
<g id="edge33" class="edge"><title>send_parity_request&#45;&gt;recv_parity_request</title>
<path fill="none" stroke="#424242" stroke-width="2" stroke-dasharray="1,5" d="M630,-310.831C630,-310.831 630,-285.413 630,-285.413"/>
<polygon fill="#424242" stroke="#424242" stroke-width="2" points="633.5,-285.413 630,-275.413 626.5,-285.413 633.5,-285.413"/>
</g>
<!-- send_parity_request&#45;&gt;recv_parity_request -->
<g id="edge34" class="edge"><title>send_parity_request&#45;&gt;recv_parity_request</title>
<path fill="none" stroke="#424242" stroke-width="2" stroke-dasharray="1,5" d="M659.75,-310.831C659.75,-310.831 659.75,-285.413 659.75,-285.413"/>
<polygon fill="#424242" stroke="#424242" stroke-width="2" points="663.25,-285.413 659.75,-275.413 656.25,-285.413 663.25,-285.413"/>
</g>
<!-- recv_parity_request&#45;&gt;wait_all_parity -->
<g id="edge35" class="edge"><title>recv_parity_request&#45;&gt;wait_all_parity</title>
<path fill="none" stroke="#424242" stroke-width="2" d="M629,-238.831C629,-238.831 629,-213.413 629,-213.413"/>
<polygon fill="#424242" stroke="#424242" stroke-width="2" points="632.5,-213.413 629,-203.413 625.5,-213.413 632.5,-213.413"/>
</g>
<!-- rebuild_missing_data&#45;&gt;send_data -->
<g id="edge37" class="edge"><title>rebuild_missing_data&#45;&gt;send_data</title>
<path fill="none" stroke="#424242" stroke-width="2" d="M665.25,-94.8314C665.25,-94.8314 665.25,-69.4133 665.25,-69.4133"/>
<polygon fill="#424242" stroke="#424242" stroke-width="2" points="668.75,-69.4132 665.25,-59.4133 661.75,-69.4133 668.75,-69.4132"/>
</g>
<!-- gather_disk_location_par -->
<g id="node29" class="node"><title>gather_disk_location_par</title>
<polygon fill="#607d8b" stroke="#607d8b" points="896.5,-718 771.5,-718 771.5,-682 896.5,-682 896.5,-718"/>
<text text-anchor="middle" x="834" y="-696.9" font-family="Liberation Sans" font-size="12.00" fill="white">gather_disk_location</text>
</g>
<!-- read_disk -->
<g id="node30" class="node"><title>read_disk</title>
<polygon fill="#607d8b" stroke="#607d8b" points="868.5,-646 799.5,-646 799.5,-610 868.5,-610 868.5,-646"/>
<text text-anchor="middle" x="834" y="-624.9" font-family="Liberation Sans" font-size="12.00" fill="white">read_disk</text>
</g>
<!-- gather_disk_location_par&#45;&gt;read_disk -->
<g id="edge39" class="edge"><title>gather_disk_location_par&#45;&gt;read_disk</title>
<path fill="none" stroke="#424242" stroke-width="2" d="M816.75,-681.831C816.75,-681.831 816.75,-656.413 816.75,-656.413"/>
<polygon fill="#424242" stroke="#424242" stroke-width="2" points="820.25,-656.413 816.75,-646.413 813.25,-656.413 820.25,-656.413"/>
</g>
<!-- gather_disk_location_par&#45;&gt;read_disk -->
<g id="edge41" class="edge"><title>gather_disk_location_par&#45;&gt;read_disk</title>
<path fill="none" stroke="#424242" stroke-width="2" d="M834,-681.831C834,-681.831 834,-656.413 834,-656.413"/>
<polygon fill="#424242" stroke="#424242" stroke-width="2" points="837.5,-656.413 834,-646.413 830.5,-656.413 837.5,-656.413"/>
</g>
<!-- gather_disk_location_par&#45;&gt;read_disk -->
<g id="edge42" class="edge"><title>gather_disk_location_par&#45;&gt;read_disk</title>
<path fill="none" stroke="#424242" stroke-width="2" d="M851.25,-681.831C851.25,-681.831 851.25,-656.413 851.25,-656.413"/>
<polygon fill="#424242" stroke="#424242" stroke-width="2" points="854.75,-656.413 851.25,-646.413 847.75,-656.413 854.75,-656.413"/>
</g>
<!-- send_parity_data -->
<g id="node32" class="node"><title>send_parity_data</title>
<polygon fill="#607d8b" stroke="#607d8b" points="887.5,-574 780.5,-574 780.5,-538 887.5,-538 887.5,-574"/>
<text text-anchor="middle" x="834" y="-552.9" font-family="Liberation Sans" font-size="12.00" fill="white">send_parity_data</text>
</g>
<!-- read_disk&#45;&gt;send_parity_data -->
<g id="edge40" class="edge"><title>read_disk&#45;&gt;send_parity_data</title>
<path fill="none" stroke="#424242" stroke-width="2" d="M834,-609.831C834,-609.831 834,-584.413 834,-584.413"/>
<polygon fill="#424242" stroke="#424242" stroke-width="2" points="837.5,-584.413 834,-574.413 830.5,-584.413 837.5,-584.413"/>
</g>
<!-- receive_parity_request -->
<g id="node31" class="node"><title>receive_parity_request</title>
<polygon fill="#607d8b" stroke="#607d8b" points="902,-793 766,-793 766,-757 902,-757 902,-793"/>
<text text-anchor="middle" x="834" y="-771.9" font-family="Liberation Sans" font-size="12.00" fill="white">receive_parity_request</text>
</g>
<!-- receive_parity_request&#45;&gt;gather_disk_location_par -->
<g id="edge38" class="edge"><title>receive_parity_request&#45;&gt;gather_disk_location_par</title>
<path fill="none" stroke="#424242" stroke-width="2" d="M834,-756.845C834,-756.845 834,-728.248 834,-728.248"/>
<polygon fill="#424242" stroke="#424242" stroke-width="2" points="837.5,-728.248 834,-718.248 830.5,-728.248 837.5,-728.248"/>
</g>
</g>
</svg>
