<?xml version="1.0" encoding="UTF-8" standalone="no"?>
<!DOCTYPE svg PUBLIC "-//W3C//DTD SVG 1.1//EN"
 "http://www.w3.org/Graphics/SVG/1.1/DTD/svg11.dtd">
<!-- Generated by graphviz version 2.38.0 (20140413.2041)
 -->
<!-- Title: %3 Pages: 1 -->
<svg width="512pt" height="401pt"
 viewBox="0.00 0.00 512.00 401.00" xmlns="http://www.w3.org/2000/svg" xmlns:xlink="http://www.w3.org/1999/xlink">
<g id="graph0" class="graph" transform="scale(1 1) rotate(0) translate(4 397)">
<title>%3</title>
<polygon fill="white" stroke="none" points="-4,4 -4,-397 508,-397 508,4 -4,4"/>
<g id="clust1" class="cluster"><title>cluster_client</title>
<polygon fill="none" stroke="black" stroke-dasharray="5,2" points="10,-91 10,-310 262,-310 262,-91 10,-91"/>
<text text-anchor="middle" x="136" y="-294.8" font-family="Times,serif" font-size="14.00">Client</text>
</g>
<g id="clust2" class="cluster"><title>cluster_server_manager</title>
<polygon fill="none" stroke="black" stroke-dasharray="5,2" points="40,-8 40,-83 318,-83 318,-8 40,-8"/>
<text text-anchor="middle" x="179" y="-67.8" font-family="Times,serif" font-size="14.00">Server manager</text>
</g>
<g id="clust3" class="cluster"><title>cluster_server</title>
<polygon fill="none" stroke="black" stroke-dasharray="5,2" points="302,-91 302,-385 496,-385 496,-91 302,-91"/>
<text text-anchor="middle" x="399" y="-369.8" font-family="Times,serif" font-size="14.00">Server</text>
</g>
<g id="clust4" class="cluster"><title>cluster_storagedevice</title>
<polygon fill="none" stroke="black" stroke-dasharray="5,2" points="326,-8 326,-83 470,-83 470,-8 326,-8"/>
<text text-anchor="middle" x="398" y="-67.8" font-family="Times,serif" font-size="14.00">Storage Device</text>
</g>
<!-- add_write_request -->
<g id="node1" class="node"><title>add_write_request</title>
<polygon fill="none" stroke="black" points="134,-279 18,-279 18,-243 134,-243 134,-279"/>
<text text-anchor="middle" x="76" y="-257.3" font-family="Times,serif" font-size="14.00">add_write_request</text>
</g>
<!-- check_request_queue -->
<g id="node3" class="node"><title>check_request_queue</title>
<ellipse fill="none" stroke="black" cx="107" cy="-189" rx="86.3847" ry="18"/>
<text text-anchor="middle" x="107" y="-185.3" font-family="Times,serif" font-size="14.00">check_request_queue</text>
</g>
<!-- add_write_request&#45;&gt;check_request_queue -->
<g id="edge1" class="edge"><title>add_write_request&#45;&gt;check_request_queue</title>
<path fill="none" stroke="black" d="M77.2788,-242.831C77.2788,-242.831 77.2788,-215.926 77.2788,-215.926"/>
<polygon fill="black" stroke="black" points="80.7789,-215.926 77.2788,-205.926 73.7789,-215.926 80.7789,-215.926"/>
</g>
<!-- receive_answer -->
<g id="node2" class="node"><title>receive_answer</title>
<polygon fill="none" stroke="black" points="253.5,-279 152.5,-279 152.5,-243 253.5,-243 253.5,-279"/>
<text text-anchor="middle" x="203" y="-257.3" font-family="Times,serif" font-size="14.00">receive_answer</text>
</g>
<!-- send_request -->
<g id="node4" class="node"><title>send_request</title>
<ellipse fill="none" stroke="black" cx="108" cy="-117" rx="56.59" ry="18"/>
<text text-anchor="middle" x="108" y="-113.3" font-family="Times,serif" font-size="14.00">send_request</text>
</g>
<!-- check_request_queue&#45;&gt;send_request -->
<g id="edge2" class="edge"><title>check_request_queue&#45;&gt;send_request</title>
<path fill="none" stroke="black" d="M108,-170.831C108,-170.831 108,-145.413 108,-145.413"/>
<polygon fill="black" stroke="black" points="111.5,-145.413 108,-135.413 104.5,-145.413 111.5,-145.413"/>
</g>
<!-- request_server -->
<g id="node5" class="node"><title>request_server</title>
<ellipse fill="none" stroke="black" cx="110" cy="-34" rx="61.99" ry="18"/>
<text text-anchor="middle" x="110" y="-30.3" font-family="Times,serif" font-size="14.00">request_server</text>
</g>
<!-- send_request&#45;&gt;request_server -->
<g id="edge3" class="edge"><title>send_request&#45;&gt;request_server</title>
<path fill="none" stroke="black" d="M108,-98.9902C108,-98.9902 108,-62.2612 108,-62.2612"/>
<polygon fill="black" stroke="black" points="111.5,-62.2612 108,-52.2612 104.5,-62.2613 111.5,-62.2612"/>
</g>
<!-- add_request -->
<g id="node6" class="node"><title>add_request</title>
<ellipse fill="none" stroke="black" cx="370" cy="-336" rx="53.0913" ry="18"/>
<text text-anchor="middle" x="370" y="-332.3" font-family="Times,serif" font-size="14.00">add_request</text>
</g>
<!-- request_server&#45;&gt;add_request -->
<g id="edge4" class="edge"><title>request_server&#45;&gt;add_request</title>
<path fill="none" stroke="black" d="M48.2476,-34C23.1733,-34 0,-34 0,-34 0,-34 0,-336 0,-336 0,-336 306.594,-336 306.594,-336"/>
<polygon fill="black" stroke="black" points="306.594,-339.5 316.594,-336 306.594,-332.5 306.594,-339.5"/>
</g>
<!-- process_request -->
<g id="node9" class="node"><title>process_request</title>
<ellipse fill="none" stroke="black" cx="388" cy="-261" rx="66.8882" ry="18"/>
<text text-anchor="middle" x="388" y="-257.3" font-family="Times,serif" font-size="14.00">process_request</text>
</g>
<!-- add_request&#45;&gt;process_request -->
<g id="edge7" class="edge"><title>add_request&#45;&gt;process_request</title>
<path fill="none" stroke="black" d="M372.176,-317.845C372.176,-317.845 372.176,-288.729 372.176,-288.729"/>
<polygon fill="black" stroke="black" points="375.676,-288.729 372.176,-278.729 368.676,-288.729 375.676,-288.729"/>
</g>
<!-- answer_client -->
<g id="node7" class="node"><title>answer_client</title>
<ellipse fill="none" stroke="black" cx="250" cy="-34" rx="59.5901" ry="18"/>
<text text-anchor="middle" x="250" y="-30.3" font-family="Times,serif" font-size="14.00">answer_client</text>
</g>
<!-- answer_client&#45;&gt;receive_answer -->
<g id="edge6" class="edge"><title>answer_client&#45;&gt;receive_answer</title>
<path fill="none" stroke="black" d="M223.471,-50.3253C223.471,-50.3253 223.471,-232.956 223.471,-232.956"/>
<polygon fill="black" stroke="black" points="219.971,-232.956 223.471,-242.956 226.971,-232.956 219.971,-232.956"/>
</g>
<!-- write_file -->
<g id="node8" class="node"><title>write_file</title>
<ellipse fill="none" stroke="black" cx="398" cy="-117" rx="44.6926" ry="18"/>
<text text-anchor="middle" x="398" y="-113.3" font-family="Times,serif" font-size="14.00">write_file</text>
</g>
<!-- write_file&#45;&gt;answer_client -->
<g id="edge5" class="edge"><title>write_file&#45;&gt;answer_client</title>
<path fill="none" stroke="black" d="M353.015,-117C320.273,-117 281.647,-117 281.647,-117 281.647,-117 281.647,-59.6117 281.647,-59.6117"/>
<polygon fill="black" stroke="black" points="285.147,-59.6116 281.647,-49.6117 278.147,-59.6117 285.147,-59.6116"/>
</g>
<!-- simulate_write -->
<g id="node11" class="node"><title>simulate_write</title>
<ellipse fill="none" stroke="black" cx="398" cy="-34" rx="63.8893" ry="18"/>
<text text-anchor="middle" x="398" y="-30.3" font-family="Times,serif" font-size="14.00">simulate_write</text>
</g>
<!-- write_file&#45;&gt;simulate_write -->
<g id="edge10" class="edge"><title>write_file&#45;&gt;simulate_write</title>
<path fill="none" stroke="black" d="M383.051,-99.8023C383.051,-99.8023 383.051,-61.7483 383.051,-61.7483"/>
<polygon fill="black" stroke="black" points="386.551,-61.7483 383.051,-51.7483 379.551,-61.7483 386.551,-61.7483"/>
</g>
<!-- process_write_request -->
<g id="node10" class="node"><title>process_write_request</title>
<ellipse fill="none" stroke="black" cx="399" cy="-189" rx="89.0842" ry="18"/>
<text text-anchor="middle" x="399" y="-185.3" font-family="Times,serif" font-size="14.00">process_write_request</text>
</g>
<!-- process_request&#45;&gt;process_write_request -->
<g id="edge8" class="edge"><title>process_request&#45;&gt;process_write_request</title>
<path fill="none" stroke="black" d="M388,-242.831C388,-242.831 388,-216.913 388,-216.913"/>
<polygon fill="black" stroke="black" points="391.5,-216.913 388,-206.913 384.5,-216.913 391.5,-216.913"/>
</g>
<!-- process_write_request&#45;&gt;write_file -->
<g id="edge9" class="edge"><title>process_write_request&#45;&gt;write_file</title>
<path fill="none" stroke="black" d="M398,-170.831C398,-170.831 398,-145.413 398,-145.413"/>
<polygon fill="black" stroke="black" points="401.5,-145.413 398,-135.413 394.5,-145.413 401.5,-145.413"/>
</g>
<!-- simulate_write&#45;&gt;write_file -->
<g id="edge11" class="edge"><title>simulate_write&#45;&gt;write_file</title>
<path fill="none" stroke="black" d="M412.949,-51.6022C412.949,-51.6022 412.949,-89.9909 412.949,-89.9909"/>
<polygon fill="black" stroke="black" points="409.449,-89.9908 412.949,-99.9909 416.449,-89.9909 409.449,-89.9908"/>
</g>
</g>
</svg>
