<?xml version="1.0" encoding="UTF-8" standalone="no"?>
<!DOCTYPE svg PUBLIC "-//W3C//DTD SVG 1.1//EN"
 "http://www.w3.org/Graphics/SVG/1.1/DTD/svg11.dtd">
<!-- Generated by graphviz version 2.38.0 (20140413.2041)
 -->
<!-- Title: %3 Pages: 1 -->
<svg width="551pt" height="508pt"
 viewBox="0.00 0.00 551.20 508.20" xmlns="http://www.w3.org/2000/svg" xmlns:xlink="http://www.w3.org/1999/xlink">
<g id="graph0" class="graph" transform="scale(1 1) rotate(0) translate(21.6 486.6)">
<title>%3</title>
<polygon fill="white" stroke="none" points="-21.6,21.6 -21.6,-486.6 529.6,-486.6 529.6,21.6 -21.6,21.6"/>
<g id="clust1" class="cluster"><title>cluster_client</title>
<polygon fill="none" stroke="black" stroke-dasharray="5,2" points="8,-91 8,-310 260,-310 260,-91 8,-91"/>
<text text-anchor="middle" x="134" y="-294.8" font-family="Times,serif" font-size="14.00">Client</text>
</g>
<g id="clust2" class="cluster"><title>cluster_server_manager</title>
<polygon fill="none" stroke="black" stroke-dasharray="5,2" points="21,-8 21,-83 299,-83 299,-8 21,-8"/>
<text text-anchor="middle" x="160" y="-67.8" font-family="Times,serif" font-size="14.00">Server manager</text>
</g>
<g id="clust3" class="cluster"><title>cluster_server</title>
<polygon fill="none" stroke="black" stroke-dasharray="5,2" points="300,-91 300,-457 500,-457 500,-91 300,-91"/>
<text text-anchor="middle" x="400" y="-441.8" font-family="Times,serif" font-size="14.00">Server</text>
</g>
<g id="clust4" class="cluster"><title>cluster_storagedevice</title>
<polygon fill="none" stroke="black" stroke-dasharray="5,2" points="316,-8 316,-83 460,-83 460,-8 316,-8"/>
<text text-anchor="middle" x="388" y="-67.8" font-family="Times,serif" font-size="14.00">Storage Device</text>
</g>
<!-- add_write_request -->
<g id="node1" class="node"><title>add_write_request</title>
<polygon fill="none" stroke="black" points="252,-279 136,-279 136,-243 252,-243 252,-279"/>
<text text-anchor="middle" x="194" y="-257.3" font-family="Times,serif" font-size="14.00">add_write_request</text>
</g>
<!-- check_request_queue -->
<g id="node3" class="node"><title>check_request_queue</title>
<ellipse fill="none" stroke="black" cx="166" cy="-189" rx="86.3847" ry="18"/>
<text text-anchor="middle" x="166" y="-185.3" font-family="Times,serif" font-size="14.00">check_request_queue</text>
</g>
<!-- add_write_request&#45;&gt;check_request_queue -->
<g id="edge1" class="edge"><title>add_write_request&#45;&gt;check_request_queue</title>
<path fill="none" stroke="black" d="M194,-242.831C194,-242.831 194,-216.418 194,-216.418"/>
<polygon fill="black" stroke="black" points="197.5,-216.418 194,-206.418 190.5,-216.418 197.5,-216.418"/>
</g>
<!-- receive_answer -->
<g id="node2" class="node"><title>receive_answer</title>
<polygon fill="none" stroke="black" points="117.5,-279 16.5,-279 16.5,-243 117.5,-243 117.5,-279"/>
<text text-anchor="middle" x="67" y="-257.3" font-family="Times,serif" font-size="14.00">receive_answer</text>
</g>
<!-- send_request -->
<g id="node4" class="node"><title>send_request</title>
<ellipse fill="none" stroke="black" cx="180" cy="-117" rx="56.59" ry="18"/>
<text text-anchor="middle" x="180" y="-113.3" font-family="Times,serif" font-size="14.00">send_request</text>
</g>
<!-- check_request_queue&#45;&gt;send_request -->
<g id="edge2" class="edge"><title>check_request_queue&#45;&gt;send_request</title>
<path fill="none" stroke="black" d="M180,-171.202C180,-171.202 180,-145.093 180,-145.093"/>
<polygon fill="black" stroke="black" points="183.5,-145.093 180,-135.093 176.5,-145.093 183.5,-145.093"/>
</g>
<!-- request_server -->
<g id="node5" class="node"><title>request_server</title>
<ellipse fill="none" stroke="black" cx="229" cy="-34" rx="61.99" ry="18"/>
<text text-anchor="middle" x="229" y="-30.3" font-family="Times,serif" font-size="14.00">request_server</text>
</g>
<!-- send_request&#45;&gt;request_server -->
<g id="edge3" class="edge"><title>send_request&#45;&gt;request_server</title>
<path fill="none" stroke="black" d="M201.9,-100.204C201.9,-100.204 201.9,-60.2064 201.9,-60.2064"/>
<polygon fill="black" stroke="black" points="205.4,-60.2064 201.9,-50.2064 198.4,-60.2065 205.4,-60.2064"/>
</g>
<!-- add_request -->
<g id="node6" class="node"><title>add_request</title>
<ellipse fill="none" stroke="black" cx="368" cy="-408" rx="53.0913" ry="18"/>
<text text-anchor="middle" x="368" y="-404.3" font-family="Times,serif" font-size="14.00">add_request</text>
</g>
<!-- request_server&#45;&gt;add_request -->
<g id="edge4" class="edge"><title>request_server&#45;&gt;add_request</title>
<path fill="none" stroke="black" d="M271.593,-47.3109C271.593,-113.935 271.593,-408 271.593,-408 271.593,-408 304.44,-408 304.44,-408"/>
<polygon fill="black" stroke="black" points="304.44,-411.5 314.44,-408 304.44,-404.5 304.44,-411.5"/>
</g>
<!-- process_request -->
<g id="node9" class="node"><title>process_request</title>
<ellipse fill="none" stroke="black" cx="387" cy="-336" rx="66.8882" ry="18"/>
<text text-anchor="middle" x="387" y="-332.3" font-family="Times,serif" font-size="14.00">process_request</text>
</g>
<!-- add_request&#45;&gt;process_request -->
<g id="edge7" class="edge"><title>add_request&#45;&gt;process_request</title>
<path fill="none" stroke="black" d="M370.676,-389.831C370.676,-389.831 370.676,-363.913 370.676,-363.913"/>
<polygon fill="black" stroke="black" points="374.176,-363.913 370.676,-353.913 367.176,-363.913 374.176,-363.913"/>
</g>
<!-- answer_client -->
<g id="node7" class="node"><title>answer_client</title>
<ellipse fill="none" stroke="black" cx="89" cy="-34" rx="59.5901" ry="18"/>
<text text-anchor="middle" x="89" y="-30.3" font-family="Times,serif" font-size="14.00">answer_client</text>
</g>
<!-- answer_client&#45;&gt;receive_answer -->
<g id="edge6" class="edge"><title>answer_client&#45;&gt;receive_answer</title>
<path fill="none" stroke="black" d="M54.3815,-48.8941C54.3815,-48.8941 54.3815,-232.962 54.3815,-232.962"/>
<polygon fill="black" stroke="black" points="50.8816,-232.962 54.3815,-242.962 57.8816,-232.962 50.8816,-232.962"/>
</g>
<!-- write_file -->
<g id="node8" class="node"><title>write_file</title>
<ellipse fill="none" stroke="black" cx="388" cy="-117" rx="44.6926" ry="18"/>
<text text-anchor="middle" x="388" y="-113.3" font-family="Times,serif" font-size="14.00">write_file</text>
</g>
<!-- write_file&#45;&gt;answer_client -->
<g id="edge5" class="edge"><title>write_file&#45;&gt;answer_client</title>
<path fill="none" stroke="black" d="M365.577,-101.361C365.577,-89.4196 365.577,-75 365.577,-75 365.577,-75 136.125,-75 136.125,-75 136.125,-75 136.125,-55.2034 136.125,-55.2034"/>
<polygon fill="black" stroke="black" points="139.625,-55.2034 136.125,-45.2034 132.625,-55.2035 139.625,-55.2034"/>
</g>
<!-- simulate_write -->
<g id="node12" class="node"><title>simulate_write</title>
<ellipse fill="none" stroke="black" cx="388" cy="-34" rx="63.8893" ry="18"/>
<text text-anchor="middle" x="388" y="-30.3" font-family="Times,serif" font-size="14.00">simulate_write</text>
</g>
<!-- write_file&#45;&gt;simulate_write -->
<g id="edge11" class="edge"><title>write_file&#45;&gt;simulate_write</title>
<path fill="none" stroke="black" d="M388,-98.9902C388,-98.9902 388,-62.2612 388,-62.2612"/>
<polygon fill="black" stroke="black" points="391.5,-62.2612 388,-52.2612 384.5,-62.2613 391.5,-62.2612"/>
</g>
<!-- process_single_request -->
<g id="node10" class="node"><title>process_single_request</title>
<ellipse fill="none" stroke="black" cx="400" cy="-261" rx="92.0841" ry="18"/>
<text text-anchor="middle" x="400" y="-257.3" font-family="Times,serif" font-size="14.00">process_single_request</text>
</g>
<!-- process_request&#45;&gt;process_single_request -->
<g id="edge8" class="edge"><title>process_request&#45;&gt;process_single_request</title>
<path fill="none" stroke="black" d="M387,-317.845C387,-317.845 387,-288.988 387,-288.988"/>
<polygon fill="black" stroke="black" points="390.5,-288.988 387,-278.988 383.5,-288.988 390.5,-288.988"/>
</g>
<!-- process_write_request -->
<g id="node11" class="node"><title>process_write_request</title>
<ellipse fill="none" stroke="black" cx="398" cy="-189" rx="89.0842" ry="18"/>
<text text-anchor="middle" x="398" y="-185.3" font-family="Times,serif" font-size="14.00">process_write_request</text>
</g>
<!-- process_single_request&#45;&gt;process_write_request -->
<g id="edge9" class="edge"><title>process_single_request&#45;&gt;process_write_request</title>
<path fill="none" stroke="black" d="M398,-242.831C398,-242.831 398,-217.413 398,-217.413"/>
<polygon fill="black" stroke="black" points="401.5,-217.413 398,-207.413 394.5,-217.413 401.5,-217.413"/>
</g>
<!-- process_write_request&#45;&gt;write_file -->
<g id="edge10" class="edge"><title>process_write_request&#45;&gt;write_file</title>
<path fill="none" stroke="black" d="M388,-170.831C388,-170.831 388,-145.413 388,-145.413"/>
<polygon fill="black" stroke="black" points="391.5,-145.413 388,-135.413 384.5,-145.413 391.5,-145.413"/>
</g>
<!-- simulate_write&#45;&gt;write_file -->
<g id="edge12" class="edge"><title>simulate_write&#45;&gt;write_file</title>
<path fill="none" stroke="black" d="M410.423,-51.1977C410.423,-51.1977 410.423,-91.2281 410.423,-91.2281"/>
<polygon fill="black" stroke="black" points="406.923,-91.2281 410.423,-101.228 413.923,-91.2282 406.923,-91.2281"/>
</g>
</g>
</svg>
