<?xml version="1.0" encoding="UTF-8" standalone="no"?>
<!DOCTYPE svg PUBLIC "-//W3C//DTD SVG 1.1//EN"
 "http://www.w3.org/Graphics/SVG/1.1/DTD/svg11.dtd">
<!-- Generated by graphviz version 2.38.0 (20140413.2041)
 -->
<!-- Title: %3 Pages: 1 -->
<svg width="475pt" height="548pt"
 viewBox="0.00 0.00 474.50 548.00" xmlns="http://www.w3.org/2000/svg" xmlns:xlink="http://www.w3.org/1999/xlink">
<g id="graph0" class="graph" transform="scale(1 1) rotate(0) translate(4 544)">
<title>%3</title>
<polygon fill="white" stroke="none" points="-4,4 -4,-544 470.5,-544 470.5,4 -4,4"/>
<!-- fs -->
<g id="node1" class="node"><title>fs</title>
<polygon fill="none" stroke="black" points="122.5,-180 7.5,-180 7.5,-144 122.5,-144 122.5,-180"/>
<text text-anchor="middle" x="65" y="-158.3" font-family="Times,serif" font-size="14.00">FailureSimulation</text>
</g>
<!-- disks -->
<g id="node8" class="node"><title>disks</title>
<polygon fill="none" stroke="black" points="54,-108 0,-108 0,-72 54,-72 54,-108"/>
<text text-anchor="middle" x="27" y="-86.3" font-family="Times,serif" font-size="14.00">disks</text>
</g>
<!-- fs&#45;&gt;disks -->
<g id="edge6" class="edge"><title>fs&#45;&gt;disks</title>
<path fill="none" stroke="black" stroke-width="2" d="M30.75,-143.831C30.75,-143.831 30.75,-118.413 30.75,-118.413"/>
<polygon fill="black" stroke="black" stroke-width="2" points="34.2501,-118.413 30.75,-108.413 27.2501,-118.413 34.2501,-118.413"/>
</g>
<!-- server -->
<g id="node13" class="node"><title>server</title>
<polygon fill="none" stroke="black" points="130,-108 76,-108 76,-72 130,-72 130,-108"/>
<text text-anchor="middle" x="103" y="-86.3" font-family="Times,serif" font-size="14.00">server</text>
</g>
<!-- fs&#45;&gt;server -->
<g id="edge12" class="edge"><title>fs&#45;&gt;server</title>
<path fill="none" stroke="black" stroke-width="2" d="M99.25,-143.831C99.25,-143.831 99.25,-118.413 99.25,-118.413"/>
<polygon fill="black" stroke="black" stroke-width="2" points="102.75,-118.413 99.25,-108.413 95.7501,-118.413 102.75,-118.413"/>
</g>
<!-- pc -->
<g id="node2" class="node"><title>pc</title>
<polygon fill="none" stroke="black" points="315.5,-396 190.5,-396 190.5,-360 315.5,-360 315.5,-396"/>
<text text-anchor="middle" x="253" y="-374.3" font-family="Times,serif" font-size="14.00">ParityConsideration</text>
</g>
<!-- sfr -->
<g id="node4" class="node"><title>sfr</title>
<polygon fill="none" stroke="black" points="314.5,-324 191.5,-324 191.5,-288 314.5,-288 314.5,-324"/>
<text text-anchor="middle" x="253" y="-302.3" font-family="Times,serif" font-size="14.00">SuccessfulFileRead</text>
</g>
<!-- pc&#45;&gt;sfr -->
<g id="edge3" class="edge"><title>pc&#45;&gt;sfr</title>
<path fill="none" stroke="black" stroke-width="2" d="M253,-359.831C253,-359.831 253,-334.413 253,-334.413"/>
<polygon fill="black" stroke="black" stroke-width="2" points="256.5,-334.413 253,-324.413 249.5,-334.413 256.5,-334.413"/>
</g>
<!-- fc -->
<g id="node3" class="node"><title>fc</title>
<polygon fill="none" stroke="black" points="388,-468 266,-468 266,-432 388,-432 388,-468"/>
<text text-anchor="middle" x="327" y="-446.3" font-family="Times,serif" font-size="14.00">FlushConsideration</text>
</g>
<!-- fc&#45;&gt;pc -->
<g id="edge2" class="edge"><title>fc&#45;&gt;pc</title>
<path fill="none" stroke="black" stroke-width="2" d="M290.75,-431.831C290.75,-431.831 290.75,-406.413 290.75,-406.413"/>
<polygon fill="black" stroke="black" stroke-width="2" points="294.25,-406.413 290.75,-396.413 287.25,-406.413 294.25,-406.413"/>
</g>
<!-- MassStorageTuning -->
<g id="node9" class="node"><title>MassStorageTuning</title>
<polygon fill="none" stroke="black" points="464,-396 338,-396 338,-360 464,-360 464,-396"/>
<text text-anchor="middle" x="401" y="-374.3" font-family="Times,serif" font-size="14.00">MassStorageTuning</text>
</g>
<!-- fc&#45;&gt;MassStorageTuning -->
<g id="edge8" class="edge"><title>fc&#45;&gt;MassStorageTuning</title>
<path fill="none" stroke="black" stroke-width="2" d="M363,-431.831C363,-431.831 363,-406.413 363,-406.413"/>
<polygon fill="black" stroke="black" stroke-width="2" points="366.5,-406.413 363,-396.413 359.5,-406.413 366.5,-406.413"/>
</g>
<!-- tt -->
<g id="node5" class="node"><title>tt</title>
<polygon fill="none" stroke="black" points="129,-252 1,-252 1,-216 129,-216 129,-252"/>
<text text-anchor="middle" x="65" y="-230.3" font-family="Times,serif" font-size="14.00">TransactionalTraffic</text>
</g>
<!-- sfr&#45;&gt;tt -->
<g id="edge4" class="edge"><title>sfr&#45;&gt;tt</title>
<path fill="none" stroke="black" stroke-width="2" d="M191.442,-306C136.613,-306 65,-306 65,-306 65,-306 65,-262.169 65,-262.169"/>
<polygon fill="black" stroke="black" stroke-width="2" points="68.5001,-262.169 65,-252.169 61.5001,-262.169 68.5001,-262.169"/>
</g>
<!-- ReadTuning -->
<g id="node10" class="node"><title>ReadTuning</title>
<polygon fill="none" stroke="black" points="234.5,-252 151.5,-252 151.5,-216 234.5,-216 234.5,-252"/>
<text text-anchor="middle" x="193" y="-230.3" font-family="Times,serif" font-size="14.00">ReadTuning</text>
</g>
<!-- sfr&#45;&gt;ReadTuning -->
<g id="edge9" class="edge"><title>sfr&#45;&gt;ReadTuning</title>
<path fill="none" stroke="black" stroke-width="2" d="M213,-287.831C213,-287.831 213,-262.413 213,-262.413"/>
<polygon fill="black" stroke="black" stroke-width="2" points="216.5,-262.413 213,-252.413 209.5,-262.413 216.5,-262.413"/>
</g>
<!-- NormalCondition -->
<g id="node11" class="node"><title>NormalCondition</title>
<polygon fill="none" stroke="black" points="369.5,-252 256.5,-252 256.5,-216 369.5,-216 369.5,-252"/>
<text text-anchor="middle" x="313" y="-230.3" font-family="Times,serif" font-size="14.00">NormalCondition</text>
</g>
<!-- sfr&#45;&gt;NormalCondition -->
<g id="edge10" class="edge"><title>sfr&#45;&gt;NormalCondition</title>
<path fill="none" stroke="black" stroke-width="2" d="M285.5,-287.831C285.5,-287.831 285.5,-262.413 285.5,-262.413"/>
<polygon fill="black" stroke="black" stroke-width="2" points="289,-262.413 285.5,-252.413 282,-262.413 289,-262.413"/>
</g>
<!-- AfterFlush -->
<g id="node12" class="node"><title>AfterFlush</title>
<polygon fill="none" stroke="black" points="466.5,-252 391.5,-252 391.5,-216 466.5,-216 466.5,-252"/>
<text text-anchor="middle" x="429" y="-230.3" font-family="Times,serif" font-size="14.00">AfterFlush</text>
</g>
<!-- sfr&#45;&gt;AfterFlush -->
<g id="edge11" class="edge"><title>sfr&#45;&gt;AfterFlush</title>
<path fill="none" stroke="black" stroke-width="2" d="M314.61,-306C364.922,-306 427.75,-306 427.75,-306 427.75,-306 427.75,-262.169 427.75,-262.169"/>
<polygon fill="black" stroke="black" stroke-width="2" points="431.25,-262.169 427.75,-252.169 424.25,-262.169 431.25,-262.169"/>
</g>
<!-- tt&#45;&gt;fs -->
<g id="edge5" class="edge"><title>tt&#45;&gt;fs</title>
<path fill="none" stroke="black" stroke-width="2" d="M65,-215.831C65,-215.831 65,-190.413 65,-190.413"/>
<polygon fill="black" stroke="black" stroke-width="2" points="68.5001,-190.413 65,-180.413 61.5001,-190.413 68.5001,-190.413"/>
</g>
<!-- raf -->
<g id="node6" class="node"><title>raf</title>
<polygon fill="none" stroke="black" points="120.5,-36 9.5,-36 9.5,-0 120.5,-0 120.5,-36"/>
<text text-anchor="middle" x="65" y="-14.3" font-family="Times,serif" font-size="14.00">ReadAfterFailure</text>
</g>
<!-- now -->
<g id="node7" class="node"><title>now</title>
<polygon fill="none" stroke="black" points="354,-540 300,-540 300,-504 354,-504 354,-540"/>
<text text-anchor="middle" x="327" y="-518.3" font-family="Times,serif" font-size="14.00">now</text>
</g>
<!-- now&#45;&gt;fc -->
<g id="edge1" class="edge"><title>now&#45;&gt;fc</title>
<path fill="none" stroke="black" stroke-width="2" d="M327,-503.831C327,-503.831 327,-478.413 327,-478.413"/>
<polygon fill="black" stroke="black" stroke-width="2" points="330.5,-478.413 327,-468.413 323.5,-478.413 330.5,-478.413"/>
</g>
<!-- disks&#45;&gt;raf -->
<g id="edge7" class="edge"><title>disks&#45;&gt;raf</title>
<path fill="none" stroke="black" stroke-width="2" d="M31.75,-71.8314C31.75,-71.8314 31.75,-46.4133 31.75,-46.4133"/>
<polygon fill="black" stroke="black" stroke-width="2" points="35.2501,-46.4132 31.75,-36.4133 28.2501,-46.4133 35.2501,-46.4132"/>
</g>
<!-- server&#45;&gt;raf -->
<g id="edge13" class="edge"><title>server&#45;&gt;raf</title>
<path fill="none" stroke="black" stroke-width="2" d="M98.25,-71.8314C98.25,-71.8314 98.25,-46.4133 98.25,-46.4133"/>
<polygon fill="black" stroke="black" stroke-width="2" points="101.75,-46.4132 98.25,-36.4133 94.7501,-46.4133 101.75,-46.4132"/>
</g>
</g>
</svg>
